  0
SECTION
  2
BLOCKS
  0
ENDSEC
  0
SECTION
  2
ENTITIES
  0
LINE
  8
0
 10
55.5
 20
150
 11
0
 21
150
  0
LINE
  8
0
 10
0
 20
150
 11
0
 21
0
  0
LINE
  8
0
 10
0
 20
0
 11
110
 21
0
  0
LINE
  8
0
 10
110
 20
0
 11
55.5
 21
150
  0
LINE
  8
0
 10
18.0421
 20
80.1283
 11
16.1177
 21
80.5111
  0
LINE
  8
0
 10
16.1177
 20
80.5111
 11
14.2597
 21
81.1418
  0
LINE
  8
0
 10
14.2597
 20
81.1418
 11
12.5
 21
82.0096
  0
LINE
  8
0
 10
12.5
 20
82.0096
 11
10.8686
 21
83.0997
  0
LINE
  8
0
 10
10.8686
 20
83.0997
 11
9.39339
 21
84.3934
  0
LINE
  8
0
 10
9.39339
 20
84.3934
 11
8.09969
 21
85.8686
  0
LINE
  8
0
 10
8.09969
 20
85.8686
 11
7.00961
 21
87.5
  0
LINE
  8
0
 10
7.00961
 20
87.5
 11
6.1418
 21
89.2597
  0
LINE
  8
0
 10
6.1418
 20
89.2597
 11
5.51111
 21
91.1177
  0
LINE
  8
0
 10
5.51111
 20
91.1177
 11
5.12833
 21
93.0421
  0
LINE
  8
0
 10
5.12833
 20
93.0421
 11
5
 21
95
  0
LINE
  8
0
 10
5
 20
95
 11
5.12833
 21
96.9579
  0
LINE
  8
0
 10
5.12833
 20
96.9579
 11
5.51111
 21
98.8823
  0
LINE
  8
0
 10
5.51111
 20
98.8823
 11
6.1418
 21
100.74
  0
LINE
  8
0
 10
6.1418
 20
100.74
 11
7.00961
 21
102.5
  0
LINE
  8
0
 10
7.00961
 20
102.5
 11
8.09969
 21
104.131
  0
LINE
  8
0
 10
8.09969
 20
104.131
 11
9.39339
 21
105.607
  0
LINE
  8
0
 10
9.39339
 20
105.607
 11
10.8686
 21
106.9
  0
LINE
  8
0
 10
10.8686
 20
106.9
 11
12.5
 21
107.99
  0
LINE
  8
0
 10
12.5
 20
107.99
 11
14.2597
 21
108.858
  0
LINE
  8
0
 10
14.2597
 20
108.858
 11
16.1177
 21
109.489
  0
LINE
  8
0
 10
16.1177
 20
109.489
 11
18.0421
 21
109.872
  0
LINE
  8
0
 10
18.0421
 20
109.872
 11
20
 21
110
  0
LINE
  8
0
 10
20
 20
110
 11
21.9579
 21
109.872
  0
LINE
  8
0
 10
21.9579
 20
109.872
 11
23.8823
 21
109.489
  0
LINE
  8
0
 10
23.8823
 20
109.489
 11
25.7402
 21
108.858
  0
LINE
  8
0
 10
25.7402
 20
108.858
 11
27.5
 21
107.99
  0
LINE
  8
0
 10
27.5
 20
107.99
 11
29.1314
 21
106.9
  0
LINE
  8
0
 10
29.1314
 20
106.9
 11
30.6066
 21
105.607
  0
LINE
  8
0
 10
30.6066
 20
105.607
 11
31.9003
 21
104.131
  0
LINE
  8
0
 10
31.9003
 20
104.131
 11
32.9904
 21
102.5
  0
LINE
  8
0
 10
32.9904
 20
102.5
 11
33.8582
 21
100.74
  0
LINE
  8
0
 10
33.8582
 20
100.74
 11
34.4889
 21
98.8823
  0
LINE
  8
0
 10
34.4889
 20
98.8823
 11
34.8717
 21
96.9579
  0
LINE
  8
0
 10
34.8717
 20
96.9579
 11
35
 21
95
  0
LINE
  8
0
 10
35
 20
95
 11
34.8717
 21
93.0421
  0
LINE
  8
0
 10
34.8717
 20
93.0421
 11
34.4889
 21
91.1177
  0
LINE
  8
0
 10
34.4889
 20
91.1177
 11
33.8582
 21
89.2597
  0
LINE
  8
0
 10
33.8582
 20
89.2597
 11
32.9904
 21
87.5
  0
LINE
  8
0
 10
32.9904
 20
87.5
 11
31.9003
 21
85.8686
  0
LINE
  8
0
 10
31.9003
 20
85.8686
 11
30.6066
 21
84.3934
  0
LINE
  8
0
 10
30.6066
 20
84.3934
 11
29.1314
 21
83.0997
  0
LINE
  8
0
 10
29.1314
 20
83.0997
 11
27.5
 21
82.0096
  0
LINE
  8
0
 10
27.5
 20
82.0096
 11
25.7402
 21
81.1418
  0
LINE
  8
0
 10
25.7402
 20
81.1418
 11
23.8823
 21
80.5111
  0
LINE
  8
0
 10
23.8823
 20
80.5111
 11
21.9579
 21
80.1283
  0
LINE
  8
0
 10
21.9579
 20
80.1283
 11
20
 21
80
  0
LINE
  8
0
 10
20
 20
80
 11
18.0421
 21
80.1283
  0
LINE
  8
0
 10
18.0421
 20
40.1283
 11
16.1177
 21
40.5111
  0
LINE
  8
0
 10
16.1177
 20
40.5111
 11
14.2597
 21
41.1418
  0
LINE
  8
0
 10
14.2597
 20
41.1418
 11
12.5
 21
42.0096
  0
LINE
  8
0
 10
12.5
 20
42.0096
 11
10.8686
 21
43.0997
  0
LINE
  8
0
 10
10.8686
 20
43.0997
 11
9.39339
 21
44.3934
  0
LINE
  8
0
 10
9.39339
 20
44.3934
 11
8.09969
 21
45.8686
  0
LINE
  8
0
 10
8.09969
 20
45.8686
 11
7.00961
 21
47.5
  0
LINE
  8
0
 10
7.00961
 20
47.5
 11
6.1418
 21
49.2597
  0
LINE
  8
0
 10
6.1418
 20
49.2597
 11
5.51111
 21
51.1177
  0
LINE
  8
0
 10
5.51111
 20
51.1177
 11
5.12833
 21
53.0421
  0
LINE
  8
0
 10
5.12833
 20
53.0421
 11
5
 21
55
  0
LINE
  8
0
 10
5
 20
55
 11
5.12833
 21
56.9579
  0
LINE
  8
0
 10
5.12833
 20
56.9579
 11
5.51111
 21
58.8823
  0
LINE
  8
0
 10
5.51111
 20
58.8823
 11
6.1418
 21
60.7402
  0
LINE
  8
0
 10
6.1418
 20
60.7402
 11
7.00961
 21
62.5
  0
LINE
  8
0
 10
7.00961
 20
62.5
 11
8.09969
 21
64.1314
  0
LINE
  8
0
 10
8.09969
 20
64.1314
 11
9.39339
 21
65.6066
  0
LINE
  8
0
 10
9.39339
 20
65.6066
 11
10.8686
 21
66.9003
  0
LINE
  8
0
 10
10.8686
 20
66.9003
 11
12.5
 21
67.9904
  0
LINE
  8
0
 10
12.5
 20
67.9904
 11
14.2597
 21
68.8582
  0
LINE
  8
0
 10
14.2597
 20
68.8582
 11
16.1177
 21
69.4889
  0
LINE
  8
0
 10
16.1177
 20
69.4889
 11
18.0421
 21
69.8717
  0
LINE
  8
0
 10
18.0421
 20
69.8717
 11
20
 21
70
  0
LINE
  8
0
 10
20
 20
70
 11
21.9579
 21
69.8717
  0
LINE
  8
0
 10
21.9579
 20
69.8717
 11
23.8823
 21
69.4889
  0
LINE
  8
0
 10
23.8823
 20
69.4889
 11
25.7402
 21
68.8582
  0
LINE
  8
0
 10
25.7402
 20
68.8582
 11
27.5
 21
67.9904
  0
LINE
  8
0
 10
27.5
 20
67.9904
 11
29.1314
 21
66.9003
  0
LINE
  8
0
 10
29.1314
 20
66.9003
 11
30.6066
 21
65.6066
  0
LINE
  8
0
 10
30.6066
 20
65.6066
 11
31.9003
 21
64.1314
  0
LINE
  8
0
 10
31.9003
 20
64.1314
 11
32.9904
 21
62.5
  0
LINE
  8
0
 10
32.9904
 20
62.5
 11
33.8582
 21
60.7402
  0
LINE
  8
0
 10
33.8582
 20
60.7402
 11
34.4889
 21
58.8823
  0
LINE
  8
0
 10
34.4889
 20
58.8823
 11
34.8717
 21
56.9579
  0
LINE
  8
0
 10
34.8717
 20
56.9579
 11
35
 21
55
  0
LINE
  8
0
 10
35
 20
55
 11
34.8717
 21
53.0421
  0
LINE
  8
0
 10
34.8717
 20
53.0421
 11
34.4889
 21
51.1177
  0
LINE
  8
0
 10
34.4889
 20
51.1177
 11
33.8582
 21
49.2597
  0
LINE
  8
0
 10
33.8582
 20
49.2597
 11
32.9904
 21
47.5
  0
LINE
  8
0
 10
32.9904
 20
47.5
 11
31.9003
 21
45.8686
  0
LINE
  8
0
 10
31.9003
 20
45.8686
 11
30.6066
 21
44.3934
  0
LINE
  8
0
 10
30.6066
 20
44.3934
 11
29.1314
 21
43.0997
  0
LINE
  8
0
 10
29.1314
 20
43.0997
 11
27.5
 21
42.0096
  0
LINE
  8
0
 10
27.5
 20
42.0096
 11
25.7402
 21
41.1418
  0
LINE
  8
0
 10
25.7402
 20
41.1418
 11
23.8823
 21
40.5111
  0
LINE
  8
0
 10
23.8823
 20
40.5111
 11
21.9579
 21
40.1283
  0
LINE
  8
0
 10
21.9579
 20
40.1283
 11
20
 21
40
  0
LINE
  8
0
 10
20
 20
40
 11
18.0421
 21
40.1283
  0
ENDSEC
  0
SECTION
  2
OBJECTS
  0
DICTIONARY
  0
ENDSEC
  0
EOF
