  0
SECTION
  2
BLOCKS
  0
ENDSEC
  0
SECTION
  2
ENTITIES
  0
LINE
  8
0
 10
80
 20
-142
 11
80
 21
139.5
  0
LINE
  8
0
 10
80
 20
139.5
 11
10
 21
154.5
  0
LINE
  8
0
 10
10
 20
154.5
 11
-10
 21
154.5
  0
LINE
  8
0
 10
-10
 20
154.5
 11
-80
 21
139.5
  0
LINE
  8
0
 10
-80
 20
139.5
 11
-80
 21
-142
  0
LINE
  8
0
 10
-80
 20
-142
 11
-5
 21
-154.5
  0
LINE
  8
0
 10
-5
 20
-154.5
 11
5
 21
-154.5
  0
LINE
  8
0
 10
5
 20
-154.5
 11
80
 21
-142
  0
LINE
  8
0
 10
-1.95789
 20
104.628
 11
-3.88228
 21
105.011
  0
LINE
  8
0
 10
-3.88228
 20
105.011
 11
-5.74025
 21
105.642
  0
LINE
  8
0
 10
-5.74025
 20
105.642
 11
-7.5
 21
106.51
  0
LINE
  8
0
 10
-7.5
 20
106.51
 11
-9.13141
 21
107.6
  0
LINE
  8
0
 10
-9.13141
 20
107.6
 11
-10.6066
 21
108.893
  0
LINE
  8
0
 10
-10.6066
 20
108.893
 11
-11.9003
 21
110.369
  0
LINE
  8
0
 10
-11.9003
 20
110.369
 11
-12.9904
 21
112
  0
LINE
  8
0
 10
-12.9904
 20
112
 11
-13.8582
 21
113.76
  0
LINE
  8
0
 10
-13.8582
 20
113.76
 11
-14.4889
 21
115.618
  0
LINE
  8
0
 10
-14.4889
 20
115.618
 11
-14.8717
 21
117.542
  0
LINE
  8
0
 10
-14.8717
 20
117.542
 11
-15
 21
119.5
  0
LINE
  8
0
 10
-15
 20
119.5
 11
-14.8717
 21
121.458
  0
LINE
  8
0
 10
-14.8717
 20
121.458
 11
-14.4889
 21
123.382
  0
LINE
  8
0
 10
-14.4889
 20
123.382
 11
-13.8582
 21
125.24
  0
LINE
  8
0
 10
-13.8582
 20
125.24
 11
-12.9904
 21
127
  0
LINE
  8
0
 10
-12.9904
 20
127
 11
-11.9003
 21
128.631
  0
LINE
  8
0
 10
-11.9003
 20
128.631
 11
-10.6066
 21
130.107
  0
LINE
  8
0
 10
-10.6066
 20
130.107
 11
-9.13141
 21
131.4
  0
LINE
  8
0
 10
-9.13141
 20
131.4
 11
-7.5
 21
132.49
  0
LINE
  8
0
 10
-7.5
 20
132.49
 11
-5.74025
 21
133.358
  0
LINE
  8
0
 10
-5.74025
 20
133.358
 11
-3.88228
 21
133.989
  0
LINE
  8
0
 10
-3.88228
 20
133.989
 11
-1.95789
 21
134.372
  0
LINE
  8
0
 10
-1.95789
 20
134.372
 11
0
 21
134.5
  0
LINE
  8
0
 10
0
 20
134.5
 11
1.95789
 21
134.372
  0
LINE
  8
0
 10
1.95789
 20
134.372
 11
3.88228
 21
133.989
  0
LINE
  8
0
 10
3.88228
 20
133.989
 11
5.74025
 21
133.358
  0
LINE
  8
0
 10
5.74025
 20
133.358
 11
7.5
 21
132.49
  0
LINE
  8
0
 10
7.5
 20
132.49
 11
9.13141
 21
131.4
  0
LINE
  8
0
 10
9.13141
 20
131.4
 11
10.6066
 21
130.107
  0
LINE
  8
0
 10
10.6066
 20
130.107
 11
11.9003
 21
128.631
  0
LINE
  8
0
 10
11.9003
 20
128.631
 11
12.9904
 21
127
  0
LINE
  8
0
 10
12.9904
 20
127
 11
13.8582
 21
125.24
  0
LINE
  8
0
 10
13.8582
 20
125.24
 11
14.4889
 21
123.382
  0
LINE
  8
0
 10
14.4889
 20
123.382
 11
14.8717
 21
121.458
  0
LINE
  8
0
 10
14.8717
 20
121.458
 11
15
 21
119.5
  0
LINE
  8
0
 10
15
 20
119.5
 11
14.8717
 21
117.542
  0
LINE
  8
0
 10
14.8717
 20
117.542
 11
14.4889
 21
115.618
  0
LINE
  8
0
 10
14.4889
 20
115.618
 11
13.8582
 21
113.76
  0
LINE
  8
0
 10
13.8582
 20
113.76
 11
12.9904
 21
112
  0
LINE
  8
0
 10
12.9904
 20
112
 11
11.9003
 21
110.369
  0
LINE
  8
0
 10
11.9003
 20
110.369
 11
10.6066
 21
108.893
  0
LINE
  8
0
 10
10.6066
 20
108.893
 11
9.13141
 21
107.6
  0
LINE
  8
0
 10
9.13141
 20
107.6
 11
7.5
 21
106.51
  0
LINE
  8
0
 10
7.5
 20
106.51
 11
5.74025
 21
105.642
  0
LINE
  8
0
 10
5.74025
 20
105.642
 11
3.88228
 21
105.011
  0
LINE
  8
0
 10
3.88228
 20
105.011
 11
1.95789
 21
104.628
  0
LINE
  8
0
 10
1.95789
 20
104.628
 11
0
 21
104.5
  0
LINE
  8
0
 10
0
 20
104.5
 11
-1.95789
 21
104.628
  0
LINE
  8
0
 10
33.0446
 20
99.6539
 11
31.1373
 21
100.112
  0
LINE
  8
0
 10
31.1373
 20
100.112
 11
29.3251
 21
100.862
  0
LINE
  8
0
 10
29.3251
 20
100.862
 11
27.6527
 21
101.887
  0
LINE
  8
0
 10
27.6527
 20
101.887
 11
26.1612
 21
103.161
  0
LINE
  8
0
 10
26.1612
 20
103.161
 11
24.8873
 21
104.653
  0
LINE
  8
0
 10
24.8873
 20
104.653
 11
23.8624
 21
106.325
  0
LINE
  8
0
 10
23.8624
 20
106.325
 11
23.1118
 21
108.137
  0
LINE
  8
0
 10
23.1118
 20
108.137
 11
22.6539
 21
110.045
  0
LINE
  8
0
 10
22.6539
 20
110.045
 11
22.5
 21
112
  0
LINE
  8
0
 10
22.5
 20
112
 11
22.6539
 21
113.955
  0
LINE
  8
0
 10
22.6539
 20
113.955
 11
23.1118
 21
115.863
  0
LINE
  8
0
 10
23.1118
 20
115.863
 11
23.8624
 21
117.675
  0
LINE
  8
0
 10
23.8624
 20
117.675
 11
24.8873
 21
119.347
  0
LINE
  8
0
 10
24.8873
 20
119.347
 11
26.1612
 21
120.839
  0
LINE
  8
0
 10
26.1612
 20
120.839
 11
27.6527
 21
122.113
  0
LINE
  8
0
 10
27.6527
 20
122.113
 11
29.3251
 21
123.138
  0
LINE
  8
0
 10
29.3251
 20
123.138
 11
31.1373
 21
123.888
  0
LINE
  8
0
 10
31.1373
 20
123.888
 11
33.0446
 21
124.346
  0
LINE
  8
0
 10
33.0446
 20
124.346
 11
35
 21
124.5
  0
LINE
  8
0
 10
35
 20
124.5
 11
36.9554
 21
124.346
  0
LINE
  8
0
 10
36.9554
 20
124.346
 11
38.8627
 21
123.888
  0
LINE
  8
0
 10
38.8627
 20
123.888
 11
40.6749
 21
123.138
  0
LINE
  8
0
 10
40.6749
 20
123.138
 11
42.3473
 21
122.113
  0
LINE
  8
0
 10
42.3473
 20
122.113
 11
43.8388
 21
120.839
  0
LINE
  8
0
 10
43.8388
 20
120.839
 11
45.1127
 21
119.347
  0
LINE
  8
0
 10
45.1127
 20
119.347
 11
46.1376
 21
117.675
  0
LINE
  8
0
 10
46.1376
 20
117.675
 11
46.8882
 21
115.863
  0
LINE
  8
0
 10
46.8882
 20
115.863
 11
47.3461
 21
113.955
  0
LINE
  8
0
 10
47.3461
 20
113.955
 11
47.5
 21
112
  0
LINE
  8
0
 10
47.5
 20
112
 11
47.3461
 21
110.045
  0
LINE
  8
0
 10
47.3461
 20
110.045
 11
46.8882
 21
108.137
  0
LINE
  8
0
 10
46.8882
 20
108.137
 11
46.1376
 21
106.325
  0
LINE
  8
0
 10
46.1376
 20
106.325
 11
45.1127
 21
104.653
  0
LINE
  8
0
 10
45.1127
 20
104.653
 11
43.8388
 21
103.161
  0
LINE
  8
0
 10
43.8388
 20
103.161
 11
42.3473
 21
101.887
  0
LINE
  8
0
 10
42.3473
 20
101.887
 11
40.6749
 21
100.862
  0
LINE
  8
0
 10
40.6749
 20
100.862
 11
38.8627
 21
100.112
  0
LINE
  8
0
 10
38.8627
 20
100.112
 11
36.9554
 21
99.6539
  0
LINE
  8
0
 10
36.9554
 20
99.6539
 11
35
 21
99.5
  0
LINE
  8
0
 10
35
 20
99.5
 11
33.0446
 21
99.6539
  0
LINE
  8
0
 10
-36.9554
 20
99.6539
 11
-38.8627
 21
100.112
  0
LINE
  8
0
 10
-38.8627
 20
100.112
 11
-40.6749
 21
100.862
  0
LINE
  8
0
 10
-40.6749
 20
100.862
 11
-42.3473
 21
101.887
  0
LINE
  8
0
 10
-42.3473
 20
101.887
 11
-43.8388
 21
103.161
  0
LINE
  8
0
 10
-43.8388
 20
103.161
 11
-45.1127
 21
104.653
  0
LINE
  8
0
 10
-45.1127
 20
104.653
 11
-46.1376
 21
106.325
  0
LINE
  8
0
 10
-46.1376
 20
106.325
 11
-46.8882
 21
108.137
  0
LINE
  8
0
 10
-46.8882
 20
108.137
 11
-47.3461
 21
110.045
  0
LINE
  8
0
 10
-47.3461
 20
110.045
 11
-47.5
 21
112
  0
LINE
  8
0
 10
-47.5
 20
112
 11
-47.3461
 21
113.955
  0
LINE
  8
0
 10
-47.3461
 20
113.955
 11
-46.8882
 21
115.863
  0
LINE
  8
0
 10
-46.8882
 20
115.863
 11
-46.1376
 21
117.675
  0
LINE
  8
0
 10
-46.1376
 20
117.675
 11
-45.1127
 21
119.347
  0
LINE
  8
0
 10
-45.1127
 20
119.347
 11
-43.8388
 21
120.839
  0
LINE
  8
0
 10
-43.8388
 20
120.839
 11
-42.3473
 21
122.113
  0
LINE
  8
0
 10
-42.3473
 20
122.113
 11
-40.6749
 21
123.138
  0
LINE
  8
0
 10
-40.6749
 20
123.138
 11
-38.8627
 21
123.888
  0
LINE
  8
0
 10
-38.8627
 20
123.888
 11
-36.9554
 21
124.346
  0
LINE
  8
0
 10
-36.9554
 20
124.346
 11
-35
 21
124.5
  0
LINE
  8
0
 10
-35
 20
124.5
 11
-33.0446
 21
124.346
  0
LINE
  8
0
 10
-33.0446
 20
124.346
 11
-31.1373
 21
123.888
  0
LINE
  8
0
 10
-31.1373
 20
123.888
 11
-29.3251
 21
123.138
  0
LINE
  8
0
 10
-29.3251
 20
123.138
 11
-27.6527
 21
122.113
  0
LINE
  8
0
 10
-27.6527
 20
122.113
 11
-26.1612
 21
120.839
  0
LINE
  8
0
 10
-26.1612
 20
120.839
 11
-24.8873
 21
119.347
  0
LINE
  8
0
 10
-24.8873
 20
119.347
 11
-23.8624
 21
117.675
  0
LINE
  8
0
 10
-23.8624
 20
117.675
 11
-23.1118
 21
115.863
  0
LINE
  8
0
 10
-23.1118
 20
115.863
 11
-22.6539
 21
113.955
  0
LINE
  8
0
 10
-22.6539
 20
113.955
 11
-22.5
 21
112
  0
LINE
  8
0
 10
-22.5
 20
112
 11
-22.6539
 21
110.045
  0
LINE
  8
0
 10
-22.6539
 20
110.045
 11
-23.1118
 21
108.137
  0
LINE
  8
0
 10
-23.1118
 20
108.137
 11
-23.8624
 21
106.325
  0
LINE
  8
0
 10
-23.8624
 20
106.325
 11
-24.8873
 21
104.653
  0
LINE
  8
0
 10
-24.8873
 20
104.653
 11
-26.1612
 21
103.161
  0
LINE
  8
0
 10
-26.1612
 20
103.161
 11
-27.6527
 21
101.887
  0
LINE
  8
0
 10
-27.6527
 20
101.887
 11
-29.3251
 21
100.862
  0
LINE
  8
0
 10
-29.3251
 20
100.862
 11
-31.1373
 21
100.112
  0
LINE
  8
0
 10
-31.1373
 20
100.112
 11
-33.0446
 21
99.6539
  0
LINE
  8
0
 10
-33.0446
 20
99.6539
 11
-35
 21
99.5
  0
LINE
  8
0
 10
-35
 20
99.5
 11
-36.9554
 21
99.6539
  0
LINE
  8
0
 10
58.0491
 20
-124.308
 11
56.1732
 21
-123.739
  0
LINE
  8
0
 10
56.1732
 20
-123.739
 11
54.4443
 21
-122.815
  0
LINE
  8
0
 10
54.4443
 20
-122.815
 11
52.9289
 21
-121.571
  0
LINE
  8
0
 10
52.9289
 20
-121.571
 11
51.6853
 21
-120.056
  0
LINE
  8
0
 10
51.6853
 20
-120.056
 11
50.7612
 21
-118.327
  0
LINE
  8
0
 10
50.7612
 20
-118.327
 11
50.1921
 21
-116.451
  0
LINE
  8
0
 10
50.1921
 20
-116.451
 11
50
 21
-114.5
  0
LINE
  8
0
 10
50
 20
-114.5
 11
50.1921
 21
-112.549
  0
LINE
  8
0
 10
50.1921
 20
-112.549
 11
50.7612
 21
-110.673
  0
LINE
  8
0
 10
50.7612
 20
-110.673
 11
51.6853
 21
-108.944
  0
LINE
  8
0
 10
51.6853
 20
-108.944
 11
52.9289
 21
-107.429
  0
LINE
  8
0
 10
52.9289
 20
-107.429
 11
54.4443
 21
-106.185
  0
LINE
  8
0
 10
54.4443
 20
-106.185
 11
56.1732
 21
-105.261
  0
LINE
  8
0
 10
56.1732
 20
-105.261
 11
58.0491
 21
-104.692
  0
LINE
  8
0
 10
58.0491
 20
-104.692
 11
60
 21
-104.5
  0
LINE
  8
0
 10
60
 20
-104.5
 11
61.9509
 21
-104.692
  0
LINE
  8
0
 10
61.9509
 20
-104.692
 11
63.8268
 21
-105.261
  0
LINE
  8
0
 10
63.8268
 20
-105.261
 11
65.5557
 21
-106.185
  0
LINE
  8
0
 10
65.5557
 20
-106.185
 11
67.0711
 21
-107.429
  0
LINE
  8
0
 10
67.0711
 20
-107.429
 11
68.3147
 21
-108.944
  0
LINE
  8
0
 10
68.3147
 20
-108.944
 11
69.2388
 21
-110.673
  0
LINE
  8
0
 10
69.2388
 20
-110.673
 11
69.8078
 21
-112.549
  0
LINE
  8
0
 10
69.8078
 20
-112.549
 11
70
 21
-114.5
  0
LINE
  8
0
 10
70
 20
-114.5
 11
69.8078
 21
-116.451
  0
LINE
  8
0
 10
69.8078
 20
-116.451
 11
69.2388
 21
-118.327
  0
LINE
  8
0
 10
69.2388
 20
-118.327
 11
68.3147
 21
-120.056
  0
LINE
  8
0
 10
68.3147
 20
-120.056
 11
67.0711
 21
-121.571
  0
LINE
  8
0
 10
67.0711
 20
-121.571
 11
65.5557
 21
-122.815
  0
LINE
  8
0
 10
65.5557
 20
-122.815
 11
63.8268
 21
-123.739
  0
LINE
  8
0
 10
63.8268
 20
-123.739
 11
61.9509
 21
-124.308
  0
LINE
  8
0
 10
61.9509
 20
-124.308
 11
60
 21
-124.5
  0
LINE
  8
0
 10
60
 20
-124.5
 11
58.0491
 21
-124.308
  0
LINE
  8
0
 10
-61.9509
 20
-124.308
 11
-63.8268
 21
-123.739
  0
LINE
  8
0
 10
-63.8268
 20
-123.739
 11
-65.5557
 21
-122.815
  0
LINE
  8
0
 10
-65.5557
 20
-122.815
 11
-67.0711
 21
-121.571
  0
LINE
  8
0
 10
-67.0711
 20
-121.571
 11
-68.3147
 21
-120.056
  0
LINE
  8
0
 10
-68.3147
 20
-120.056
 11
-69.2388
 21
-118.327
  0
LINE
  8
0
 10
-69.2388
 20
-118.327
 11
-69.8078
 21
-116.451
  0
LINE
  8
0
 10
-69.8078
 20
-116.451
 11
-70
 21
-114.5
  0
LINE
  8
0
 10
-70
 20
-114.5
 11
-69.8078
 21
-112.549
  0
LINE
  8
0
 10
-69.8078
 20
-112.549
 11
-69.2388
 21
-110.673
  0
LINE
  8
0
 10
-69.2388
 20
-110.673
 11
-68.3147
 21
-108.944
  0
LINE
  8
0
 10
-68.3147
 20
-108.944
 11
-67.0711
 21
-107.429
  0
LINE
  8
0
 10
-67.0711
 20
-107.429
 11
-65.5557
 21
-106.185
  0
LINE
  8
0
 10
-65.5557
 20
-106.185
 11
-63.8268
 21
-105.261
  0
LINE
  8
0
 10
-63.8268
 20
-105.261
 11
-61.9509
 21
-104.692
  0
LINE
  8
0
 10
-61.9509
 20
-104.692
 11
-60
 21
-104.5
  0
LINE
  8
0
 10
-60
 20
-104.5
 11
-58.0491
 21
-104.692
  0
LINE
  8
0
 10
-58.0491
 20
-104.692
 11
-56.1732
 21
-105.261
  0
LINE
  8
0
 10
-56.1732
 20
-105.261
 11
-54.4443
 21
-106.185
  0
LINE
  8
0
 10
-54.4443
 20
-106.185
 11
-52.9289
 21
-107.429
  0
LINE
  8
0
 10
-52.9289
 20
-107.429
 11
-51.6853
 21
-108.944
  0
LINE
  8
0
 10
-51.6853
 20
-108.944
 11
-50.7612
 21
-110.673
  0
LINE
  8
0
 10
-50.7612
 20
-110.673
 11
-50.1921
 21
-112.549
  0
LINE
  8
0
 10
-50.1921
 20
-112.549
 11
-50
 21
-114.5
  0
LINE
  8
0
 10
-50
 20
-114.5
 11
-50.1921
 21
-116.451
  0
LINE
  8
0
 10
-50.1921
 20
-116.451
 11
-50.7612
 21
-118.327
  0
LINE
  8
0
 10
-50.7612
 20
-118.327
 11
-51.6853
 21
-120.056
  0
LINE
  8
0
 10
-51.6853
 20
-120.056
 11
-52.9289
 21
-121.571
  0
LINE
  8
0
 10
-52.9289
 20
-121.571
 11
-54.4443
 21
-122.815
  0
LINE
  8
0
 10
-54.4443
 20
-122.815
 11
-56.1732
 21
-123.739
  0
LINE
  8
0
 10
-56.1732
 20
-123.739
 11
-58.0491
 21
-124.308
  0
LINE
  8
0
 10
-58.0491
 20
-124.308
 11
-60
 21
-124.5
  0
LINE
  8
0
 10
-60
 20
-124.5
 11
-61.9509
 21
-124.308
  0
LINE
  8
0
 10
28.0491
 20
-129.308
 11
26.1732
 21
-128.739
  0
LINE
  8
0
 10
26.1732
 20
-128.739
 11
24.4443
 21
-127.815
  0
LINE
  8
0
 10
24.4443
 20
-127.815
 11
22.9289
 21
-126.571
  0
LINE
  8
0
 10
22.9289
 20
-126.571
 11
21.6853
 21
-125.056
  0
LINE
  8
0
 10
21.6853
 20
-125.056
 11
20.7612
 21
-123.327
  0
LINE
  8
0
 10
20.7612
 20
-123.327
 11
20.1921
 21
-121.451
  0
LINE
  8
0
 10
20.1921
 20
-121.451
 11
20
 21
-119.5
  0
LINE
  8
0
 10
20
 20
-119.5
 11
20.1921
 21
-117.549
  0
LINE
  8
0
 10
20.1921
 20
-117.549
 11
20.7612
 21
-115.673
  0
LINE
  8
0
 10
20.7612
 20
-115.673
 11
21.6853
 21
-113.944
  0
LINE
  8
0
 10
21.6853
 20
-113.944
 11
22.9289
 21
-112.429
  0
LINE
  8
0
 10
22.9289
 20
-112.429
 11
24.4443
 21
-111.185
  0
LINE
  8
0
 10
24.4443
 20
-111.185
 11
26.1732
 21
-110.261
  0
LINE
  8
0
 10
26.1732
 20
-110.261
 11
28.0491
 21
-109.692
  0
LINE
  8
0
 10
28.0491
 20
-109.692
 11
30
 21
-109.5
  0
LINE
  8
0
 10
30
 20
-109.5
 11
31.9509
 21
-109.692
  0
LINE
  8
0
 10
31.9509
 20
-109.692
 11
33.8268
 21
-110.261
  0
LINE
  8
0
 10
33.8268
 20
-110.261
 11
35.5557
 21
-111.185
  0
LINE
  8
0
 10
35.5557
 20
-111.185
 11
37.0711
 21
-112.429
  0
LINE
  8
0
 10
37.0711
 20
-112.429
 11
38.3147
 21
-113.944
  0
LINE
  8
0
 10
38.3147
 20
-113.944
 11
39.2388
 21
-115.673
  0
LINE
  8
0
 10
39.2388
 20
-115.673
 11
39.8078
 21
-117.549
  0
LINE
  8
0
 10
39.8078
 20
-117.549
 11
40
 21
-119.5
  0
LINE
  8
0
 10
40
 20
-119.5
 11
39.8078
 21
-121.451
  0
LINE
  8
0
 10
39.8078
 20
-121.451
 11
39.2388
 21
-123.327
  0
LINE
  8
0
 10
39.2388
 20
-123.327
 11
38.3147
 21
-125.056
  0
LINE
  8
0
 10
38.3147
 20
-125.056
 11
37.0711
 21
-126.571
  0
LINE
  8
0
 10
37.0711
 20
-126.571
 11
35.5557
 21
-127.815
  0
LINE
  8
0
 10
35.5557
 20
-127.815
 11
33.8268
 21
-128.739
  0
LINE
  8
0
 10
33.8268
 20
-128.739
 11
31.9509
 21
-129.308
  0
LINE
  8
0
 10
31.9509
 20
-129.308
 11
30
 21
-129.5
  0
LINE
  8
0
 10
30
 20
-129.5
 11
28.0491
 21
-129.308
  0
LINE
  8
0
 10
-31.9509
 20
-129.308
 11
-33.8268
 21
-128.739
  0
LINE
  8
0
 10
-33.8268
 20
-128.739
 11
-35.5557
 21
-127.815
  0
LINE
  8
0
 10
-35.5557
 20
-127.815
 11
-37.0711
 21
-126.571
  0
LINE
  8
0
 10
-37.0711
 20
-126.571
 11
-38.3147
 21
-125.056
  0
LINE
  8
0
 10
-38.3147
 20
-125.056
 11
-39.2388
 21
-123.327
  0
LINE
  8
0
 10
-39.2388
 20
-123.327
 11
-39.8078
 21
-121.451
  0
LINE
  8
0
 10
-39.8078
 20
-121.451
 11
-40
 21
-119.5
  0
LINE
  8
0
 10
-40
 20
-119.5
 11
-39.8078
 21
-117.549
  0
LINE
  8
0
 10
-39.8078
 20
-117.549
 11
-39.2388
 21
-115.673
  0
LINE
  8
0
 10
-39.2388
 20
-115.673
 11
-38.3147
 21
-113.944
  0
LINE
  8
0
 10
-38.3147
 20
-113.944
 11
-37.0711
 21
-112.429
  0
LINE
  8
0
 10
-37.0711
 20
-112.429
 11
-35.5557
 21
-111.185
  0
LINE
  8
0
 10
-35.5557
 20
-111.185
 11
-33.8268
 21
-110.261
  0
LINE
  8
0
 10
-33.8268
 20
-110.261
 11
-31.9509
 21
-109.692
  0
LINE
  8
0
 10
-31.9509
 20
-109.692
 11
-30
 21
-109.5
  0
LINE
  8
0
 10
-30
 20
-109.5
 11
-28.0491
 21
-109.692
  0
LINE
  8
0
 10
-28.0491
 20
-109.692
 11
-26.1732
 21
-110.261
  0
LINE
  8
0
 10
-26.1732
 20
-110.261
 11
-24.4443
 21
-111.185
  0
LINE
  8
0
 10
-24.4443
 20
-111.185
 11
-22.9289
 21
-112.429
  0
LINE
  8
0
 10
-22.9289
 20
-112.429
 11
-21.6853
 21
-113.944
  0
LINE
  8
0
 10
-21.6853
 20
-113.944
 11
-20.7612
 21
-115.673
  0
LINE
  8
0
 10
-20.7612
 20
-115.673
 11
-20.1921
 21
-117.549
  0
LINE
  8
0
 10
-20.1921
 20
-117.549
 11
-20
 21
-119.5
  0
LINE
  8
0
 10
-20
 20
-119.5
 11
-20.1921
 21
-121.451
  0
LINE
  8
0
 10
-20.1921
 20
-121.451
 11
-20.7612
 21
-123.327
  0
LINE
  8
0
 10
-20.7612
 20
-123.327
 11
-21.6853
 21
-125.056
  0
LINE
  8
0
 10
-21.6853
 20
-125.056
 11
-22.9289
 21
-126.571
  0
LINE
  8
0
 10
-22.9289
 20
-126.571
 11
-24.4443
 21
-127.815
  0
LINE
  8
0
 10
-24.4443
 20
-127.815
 11
-26.1732
 21
-128.739
  0
LINE
  8
0
 10
-26.1732
 20
-128.739
 11
-28.0491
 21
-129.308
  0
LINE
  8
0
 10
-28.0491
 20
-129.308
 11
-30
 21
-129.5
  0
LINE
  8
0
 10
-30
 20
-129.5
 11
-31.9509
 21
-129.308
  0
LINE
  8
0
 10
-1.9509
 20
-134.308
 11
-3.82683
 21
-133.739
  0
LINE
  8
0
 10
-3.82683
 20
-133.739
 11
-5.55569
 21
-132.815
  0
LINE
  8
0
 10
-5.55569
 20
-132.815
 11
-7.07106
 21
-131.571
  0
LINE
  8
0
 10
-7.07106
 20
-131.571
 11
-8.31468
 21
-130.056
  0
LINE
  8
0
 10
-8.31468
 20
-130.056
 11
-9.23878
 21
-128.327
  0
LINE
  8
0
 10
-9.23878
 20
-128.327
 11
-9.80785
 21
-126.451
  0
LINE
  8
0
 10
-9.80785
 20
-126.451
 11
-10
 21
-124.5
  0
LINE
  8
0
 10
-10
 20
-124.5
 11
-9.80785
 21
-122.549
  0
LINE
  8
0
 10
-9.80785
 20
-122.549
 11
-9.23878
 21
-120.673
  0
LINE
  8
0
 10
-9.23878
 20
-120.673
 11
-8.31468
 21
-118.944
  0
LINE
  8
0
 10
-8.31468
 20
-118.944
 11
-7.07106
 21
-117.429
  0
LINE
  8
0
 10
-7.07106
 20
-117.429
 11
-5.55569
 21
-116.185
  0
LINE
  8
0
 10
-5.55569
 20
-116.185
 11
-3.82683
 21
-115.261
  0
LINE
  8
0
 10
-3.82683
 20
-115.261
 11
-1.9509
 21
-114.692
  0
LINE
  8
0
 10
-1.9509
 20
-114.692
 11
0
 21
-114.5
  0
LINE
  8
0
 10
0
 20
-114.5
 11
1.9509
 21
-114.692
  0
LINE
  8
0
 10
1.9509
 20
-114.692
 11
3.82683
 21
-115.261
  0
LINE
  8
0
 10
3.82683
 20
-115.261
 11
5.55569
 21
-116.185
  0
LINE
  8
0
 10
5.55569
 20
-116.185
 11
7.07106
 21
-117.429
  0
LINE
  8
0
 10
7.07106
 20
-117.429
 11
8.31468
 21
-118.944
  0
LINE
  8
0
 10
8.31468
 20
-118.944
 11
9.23878
 21
-120.673
  0
LINE
  8
0
 10
9.23878
 20
-120.673
 11
9.80785
 21
-122.549
  0
LINE
  8
0
 10
9.80785
 20
-122.549
 11
10
 21
-124.5
  0
LINE
  8
0
 10
10
 20
-124.5
 11
9.80785
 21
-126.451
  0
LINE
  8
0
 10
9.80785
 20
-126.451
 11
9.23878
 21
-128.327
  0
LINE
  8
0
 10
9.23878
 20
-128.327
 11
8.31468
 21
-130.056
  0
LINE
  8
0
 10
8.31468
 20
-130.056
 11
7.07106
 21
-131.571
  0
LINE
  8
0
 10
7.07106
 20
-131.571
 11
5.55569
 21
-132.815
  0
LINE
  8
0
 10
5.55569
 20
-132.815
 11
3.82683
 21
-133.739
  0
LINE
  8
0
 10
3.82683
 20
-133.739
 11
1.9509
 21
-134.308
  0
LINE
  8
0
 10
1.9509
 20
-134.308
 11
0
 21
-134.5
  0
LINE
  8
0
 10
0
 20
-134.5
 11
-1.9509
 21
-134.308
  0
ENDSEC
  0
SECTION
  2
OBJECTS
  0
DICTIONARY
  0
ENDSEC
  0
EOF
