  0
SECTION
  2
BLOCKS
  0
ENDSEC
  0
SECTION
  2
ENTITIES
  0
LINE
  8
0
 10
33
 20
17.5
 11
0
 21
17.5
  0
LINE
  8
0
 10
0
 20
17.5
 11
0
 21
-17.5
  0
LINE
  8
0
 10
0
 20
-17.5
 11
33
 21
-17.5
  0
LINE
  8
0
 10
33
 20
-17.5
 11
33
 21
17.5
  0
LINE
  8
0
 10
16.2802
 20
4.0069
 11
15.8442
 21
4.06198
  0
LINE
  8
0
 10
15.8442
 20
4.06198
 11
15.4184
 21
4.1713
  0
LINE
  8
0
 10
15.4184
 20
4.1713
 11
15.0098
 21
4.3331
  0
LINE
  8
0
 10
15.0098
 20
4.3331
 11
14.6246
 21
4.54485
  0
LINE
  8
0
 10
14.6246
 20
4.54485
 11
14.269
 21
4.80319
  0
LINE
  8
0
 10
14.269
 20
4.80319
 11
13.9486
 21
5.10408
  0
LINE
  8
0
 10
13.9486
 20
5.10408
 11
13.6684
 21
5.44275
  0
LINE
  8
0
 10
13.6684
 20
5.44275
 11
13.4329
 21
5.81386
  0
LINE
  8
0
 10
13.4329
 20
5.81386
 11
13.2458
 21
6.21156
  0
LINE
  8
0
 10
13.2458
 20
6.21156
 11
13.11
 21
6.62958
  0
LINE
  8
0
 10
13.11
 20
6.62958
 11
13.0276
 21
7.06133
  0
LINE
  8
0
 10
13.0276
 20
7.06133
 11
13
 21
7.5
  0
LINE
  8
0
 10
13
 20
7.5
 11
13.0276
 21
7.93866
  0
LINE
  8
0
 10
13.0276
 20
7.93866
 11
13.11
 21
8.37041
  0
LINE
  8
0
 10
13.11
 20
8.37041
 11
13.2458
 21
8.78842
  0
LINE
  8
0
 10
13.2458
 20
8.78842
 11
13.4329
 21
9.18613
  0
LINE
  8
0
 10
13.4329
 20
9.18613
 11
13.6684
 21
9.55724
  0
LINE
  8
0
 10
13.6684
 20
9.55724
 11
13.9486
 21
9.8959
  0
LINE
  8
0
 10
13.9486
 20
9.8959
 11
14.269
 21
10.1968
  0
LINE
  8
0
 10
14.269
 20
10.1968
 11
14.6246
 21
10.4551
  0
LINE
  8
0
 10
14.6246
 20
10.4551
 11
15.0098
 21
10.6669
  0
LINE
  8
0
 10
15.0098
 20
10.6669
 11
15.4184
 21
10.8287
  0
LINE
  8
0
 10
15.4184
 20
10.8287
 11
15.8442
 21
10.938
  0
LINE
  8
0
 10
15.8442
 20
10.938
 11
16.2802
 21
10.9931
  0
LINE
  8
0
 10
16.2802
 20
10.9931
 11
16.7198
 21
10.9931
  0
LINE
  8
0
 10
16.7198
 20
10.9931
 11
17.1558
 21
10.938
  0
LINE
  8
0
 10
17.1558
 20
10.938
 11
17.5816
 21
10.8287
  0
LINE
  8
0
 10
17.5816
 20
10.8287
 11
17.9902
 21
10.6669
  0
LINE
  8
0
 10
17.9902
 20
10.6669
 11
18.3754
 21
10.4551
  0
LINE
  8
0
 10
18.3754
 20
10.4551
 11
18.731
 21
10.1968
  0
LINE
  8
0
 10
18.731
 20
10.1968
 11
19.0514
 21
9.8959
  0
LINE
  8
0
 10
19.0514
 20
9.8959
 11
19.3316
 21
9.55724
  0
LINE
  8
0
 10
19.3316
 20
9.55724
 11
19.5671
 21
9.18613
  0
LINE
  8
0
 10
19.5671
 20
9.18613
 11
19.7542
 21
8.78842
  0
LINE
  8
0
 10
19.7542
 20
8.78842
 11
19.89
 21
8.37041
  0
LINE
  8
0
 10
19.89
 20
8.37041
 11
19.9724
 21
7.93866
  0
LINE
  8
0
 10
19.9724
 20
7.93866
 11
20
 21
7.5
  0
LINE
  8
0
 10
20
 20
7.5
 11
19.9724
 21
7.06133
  0
LINE
  8
0
 10
19.9724
 20
7.06133
 11
19.89
 21
6.62958
  0
LINE
  8
0
 10
19.89
 20
6.62958
 11
19.7542
 21
6.21156
  0
LINE
  8
0
 10
19.7542
 20
6.21156
 11
19.5671
 21
5.81386
  0
LINE
  8
0
 10
19.5671
 20
5.81386
 11
19.3316
 21
5.44275
  0
LINE
  8
0
 10
19.3316
 20
5.44275
 11
19.0514
 21
5.10408
  0
LINE
  8
0
 10
19.0514
 20
5.10408
 11
18.731
 21
4.80319
  0
LINE
  8
0
 10
18.731
 20
4.80319
 11
18.3754
 21
4.54485
  0
LINE
  8
0
 10
18.3754
 20
4.54485
 11
17.9902
 21
4.3331
  0
LINE
  8
0
 10
17.9902
 20
4.3331
 11
17.5816
 21
4.1713
  0
LINE
  8
0
 10
17.5816
 20
4.1713
 11
17.1558
 21
4.06198
  0
LINE
  8
0
 10
17.1558
 20
4.06198
 11
16.7198
 21
4.0069
  0
LINE
  8
0
 10
16.7198
 20
4.0069
 11
16.2802
 21
4.0069
  0
LINE
  8
0
 10
6.78023
 20
-3.49309
 11
6.34416
 21
-3.438
  0
LINE
  8
0
 10
6.34416
 20
-3.438
 11
5.91843
 21
-3.32869
  0
LINE
  8
0
 10
5.91843
 20
-3.32869
 11
5.50977
 21
-3.16689
  0
LINE
  8
0
 10
5.50977
 20
-3.16689
 11
5.1246
 21
-2.95514
  0
LINE
  8
0
 10
5.1246
 20
-2.95514
 11
4.76901
 21
-2.69679
  0
LINE
  8
0
 10
4.76901
 20
-2.69679
 11
4.44861
 21
-2.3959
  0
LINE
  8
0
 10
4.44861
 20
-2.3959
 11
4.16843
 21
-2.05724
  0
LINE
  8
0
 10
4.16843
 20
-2.05724
 11
3.93292
 21
-1.68613
  0
LINE
  8
0
 10
3.93292
 20
-1.68613
 11
3.74577
 21
-1.28842
  0
LINE
  8
0
 10
3.74577
 20
-1.28842
 11
3.60995
 21
-0.870407
  0
LINE
  8
0
 10
3.60995
 20
-0.870407
 11
3.52759
 21
-0.43866
  0
LINE
  8
0
 10
3.52759
 20
-0.43866
 11
3.5
 21
0
  0
LINE
  8
0
 10
3.5
 20
0
 11
3.52759
 21
0.43866
  0
LINE
  8
0
 10
3.52759
 20
0.43866
 11
3.60995
 21
0.870407
  0
LINE
  8
0
 10
3.60995
 20
0.870407
 11
3.74577
 21
1.28842
  0
LINE
  8
0
 10
3.74577
 20
1.28842
 11
3.93292
 21
1.68613
  0
LINE
  8
0
 10
3.93292
 20
1.68613
 11
4.16843
 21
2.05724
  0
LINE
  8
0
 10
4.16843
 20
2.05724
 11
4.44861
 21
2.3959
  0
LINE
  8
0
 10
4.44861
 20
2.3959
 11
4.76901
 21
2.69679
  0
LINE
  8
0
 10
4.76901
 20
2.69679
 11
5.1246
 21
2.95514
  0
LINE
  8
0
 10
5.1246
 20
2.95514
 11
5.50977
 21
3.16689
  0
LINE
  8
0
 10
5.50977
 20
3.16689
 11
5.91843
 21
3.32869
  0
LINE
  8
0
 10
5.91843
 20
3.32869
 11
6.34416
 21
3.438
  0
LINE
  8
0
 10
6.34416
 20
3.438
 11
6.78023
 21
3.49309
  0
LINE
  8
0
 10
6.78023
 20
3.49309
 11
7.21976
 21
3.49309
  0
LINE
  8
0
 10
7.21976
 20
3.49309
 11
7.65582
 21
3.438
  0
LINE
  8
0
 10
7.65582
 20
3.438
 11
8.08156
 21
3.32869
  0
LINE
  8
0
 10
8.08156
 20
3.32869
 11
8.49022
 21
3.16689
  0
LINE
  8
0
 10
8.49022
 20
3.16689
 11
8.87538
 21
2.95514
  0
LINE
  8
0
 10
8.87538
 20
2.95514
 11
9.23097
 21
2.69679
  0
LINE
  8
0
 10
9.23097
 20
2.69679
 11
9.55138
 21
2.3959
  0
LINE
  8
0
 10
9.55138
 20
2.3959
 11
9.83156
 21
2.05724
  0
LINE
  8
0
 10
9.83156
 20
2.05724
 11
10.0671
 21
1.68613
  0
LINE
  8
0
 10
10.0671
 20
1.68613
 11
10.2542
 21
1.28842
  0
LINE
  8
0
 10
10.2542
 20
1.28842
 11
10.39
 21
0.870407
  0
LINE
  8
0
 10
10.39
 20
0.870407
 11
10.4724
 21
0.43866
  0
LINE
  8
0
 10
10.4724
 20
0.43866
 11
10.5
 21
0
  0
LINE
  8
0
 10
10.5
 20
0
 11
10.4724
 21
-0.43866
  0
LINE
  8
0
 10
10.4724
 20
-0.43866
 11
10.39
 21
-0.870407
  0
LINE
  8
0
 10
10.39
 20
-0.870407
 11
10.2542
 21
-1.28842
  0
LINE
  8
0
 10
10.2542
 20
-1.28842
 11
10.0671
 21
-1.68613
  0
LINE
  8
0
 10
10.0671
 20
-1.68613
 11
9.83156
 21
-2.05724
  0
LINE
  8
0
 10
9.83156
 20
-2.05724
 11
9.55138
 21
-2.3959
  0
LINE
  8
0
 10
9.55138
 20
-2.3959
 11
9.23097
 21
-2.69679
  0
LINE
  8
0
 10
9.23097
 20
-2.69679
 11
8.87538
 21
-2.95514
  0
LINE
  8
0
 10
8.87538
 20
-2.95514
 11
8.49022
 21
-3.16689
  0
LINE
  8
0
 10
8.49022
 20
-3.16689
 11
8.08156
 21
-3.32869
  0
LINE
  8
0
 10
8.08156
 20
-3.32869
 11
7.65582
 21
-3.438
  0
LINE
  8
0
 10
7.65582
 20
-3.438
 11
7.21976
 21
-3.49309
  0
LINE
  8
0
 10
7.21976
 20
-3.49309
 11
6.78023
 21
-3.49309
  0
LINE
  8
0
 10
25.7802
 20
-3.49309
 11
25.3442
 21
-3.438
  0
LINE
  8
0
 10
25.3442
 20
-3.438
 11
24.9184
 21
-3.32869
  0
LINE
  8
0
 10
24.9184
 20
-3.32869
 11
24.5098
 21
-3.16689
  0
LINE
  8
0
 10
24.5098
 20
-3.16689
 11
24.1246
 21
-2.95514
  0
LINE
  8
0
 10
24.1246
 20
-2.95514
 11
23.769
 21
-2.69679
  0
LINE
  8
0
 10
23.769
 20
-2.69679
 11
23.4486
 21
-2.3959
  0
LINE
  8
0
 10
23.4486
 20
-2.3959
 11
23.1684
 21
-2.05724
  0
LINE
  8
0
 10
23.1684
 20
-2.05724
 11
22.9329
 21
-1.68613
  0
LINE
  8
0
 10
22.9329
 20
-1.68613
 11
22.7458
 21
-1.28842
  0
LINE
  8
0
 10
22.7458
 20
-1.28842
 11
22.61
 21
-0.870407
  0
LINE
  8
0
 10
22.61
 20
-0.870407
 11
22.5276
 21
-0.43866
  0
LINE
  8
0
 10
22.5276
 20
-0.43866
 11
22.5
 21
0
  0
LINE
  8
0
 10
22.5
 20
0
 11
22.5276
 21
0.43866
  0
LINE
  8
0
 10
22.5276
 20
0.43866
 11
22.61
 21
0.870407
  0
LINE
  8
0
 10
22.61
 20
0.870407
 11
22.7458
 21
1.28842
  0
LINE
  8
0
 10
22.7458
 20
1.28842
 11
22.9329
 21
1.68613
  0
LINE
  8
0
 10
22.9329
 20
1.68613
 11
23.1684
 21
2.05724
  0
LINE
  8
0
 10
23.1684
 20
2.05724
 11
23.4486
 21
2.3959
  0
LINE
  8
0
 10
23.4486
 20
2.3959
 11
23.769
 21
2.69679
  0
LINE
  8
0
 10
23.769
 20
2.69679
 11
24.1246
 21
2.95514
  0
LINE
  8
0
 10
24.1246
 20
2.95514
 11
24.5098
 21
3.16689
  0
LINE
  8
0
 10
24.5098
 20
3.16689
 11
24.9184
 21
3.32869
  0
LINE
  8
0
 10
24.9184
 20
3.32869
 11
25.3442
 21
3.438
  0
LINE
  8
0
 10
25.3442
 20
3.438
 11
25.7802
 21
3.49309
  0
LINE
  8
0
 10
25.7802
 20
3.49309
 11
26.2198
 21
3.49309
  0
LINE
  8
0
 10
26.2198
 20
3.49309
 11
26.6558
 21
3.438
  0
LINE
  8
0
 10
26.6558
 20
3.438
 11
27.0816
 21
3.32869
  0
LINE
  8
0
 10
27.0816
 20
3.32869
 11
27.4902
 21
3.16689
  0
LINE
  8
0
 10
27.4902
 20
3.16689
 11
27.8754
 21
2.95514
  0
LINE
  8
0
 10
27.8754
 20
2.95514
 11
28.231
 21
2.69679
  0
LINE
  8
0
 10
28.231
 20
2.69679
 11
28.5514
 21
2.3959
  0
LINE
  8
0
 10
28.5514
 20
2.3959
 11
28.8316
 21
2.05724
  0
LINE
  8
0
 10
28.8316
 20
2.05724
 11
29.0671
 21
1.68613
  0
LINE
  8
0
 10
29.0671
 20
1.68613
 11
29.2542
 21
1.28842
  0
LINE
  8
0
 10
29.2542
 20
1.28842
 11
29.39
 21
0.870407
  0
LINE
  8
0
 10
29.39
 20
0.870407
 11
29.4724
 21
0.43866
  0
LINE
  8
0
 10
29.4724
 20
0.43866
 11
29.5
 21
0
  0
LINE
  8
0
 10
29.5
 20
0
 11
29.4724
 21
-0.43866
  0
LINE
  8
0
 10
29.4724
 20
-0.43866
 11
29.39
 21
-0.870407
  0
LINE
  8
0
 10
29.39
 20
-0.870407
 11
29.2542
 21
-1.28842
  0
LINE
  8
0
 10
29.2542
 20
-1.28842
 11
29.0671
 21
-1.68613
  0
LINE
  8
0
 10
29.0671
 20
-1.68613
 11
28.8316
 21
-2.05724
  0
LINE
  8
0
 10
28.8316
 20
-2.05724
 11
28.5514
 21
-2.3959
  0
LINE
  8
0
 10
28.5514
 20
-2.3959
 11
28.231
 21
-2.69679
  0
LINE
  8
0
 10
28.231
 20
-2.69679
 11
27.8754
 21
-2.95514
  0
LINE
  8
0
 10
27.8754
 20
-2.95514
 11
27.4902
 21
-3.16689
  0
LINE
  8
0
 10
27.4902
 20
-3.16689
 11
27.0816
 21
-3.32869
  0
LINE
  8
0
 10
27.0816
 20
-3.32869
 11
26.6558
 21
-3.438
  0
LINE
  8
0
 10
26.6558
 20
-3.438
 11
26.2198
 21
-3.49309
  0
LINE
  8
0
 10
26.2198
 20
-3.49309
 11
25.7802
 21
-3.49309
  0
LINE
  8
0
 10
16.2802
 20
-10.9931
 11
15.8442
 21
-10.938
  0
LINE
  8
0
 10
15.8442
 20
-10.938
 11
15.4184
 21
-10.8287
  0
LINE
  8
0
 10
15.4184
 20
-10.8287
 11
15.0098
 21
-10.6669
  0
LINE
  8
0
 10
15.0098
 20
-10.6669
 11
14.6246
 21
-10.4551
  0
LINE
  8
0
 10
14.6246
 20
-10.4551
 11
14.269
 21
-10.1968
  0
LINE
  8
0
 10
14.269
 20
-10.1968
 11
13.9486
 21
-9.8959
  0
LINE
  8
0
 10
13.9486
 20
-9.8959
 11
13.6684
 21
-9.55724
  0
LINE
  8
0
 10
13.6684
 20
-9.55724
 11
13.4329
 21
-9.18613
  0
LINE
  8
0
 10
13.4329
 20
-9.18613
 11
13.2458
 21
-8.78842
  0
LINE
  8
0
 10
13.2458
 20
-8.78842
 11
13.11
 21
-8.37041
  0
LINE
  8
0
 10
13.11
 20
-8.37041
 11
13.0276
 21
-7.93866
  0
LINE
  8
0
 10
13.0276
 20
-7.93866
 11
13
 21
-7.5
  0
LINE
  8
0
 10
13
 20
-7.5
 11
13.0276
 21
-7.06133
  0
LINE
  8
0
 10
13.0276
 20
-7.06133
 11
13.11
 21
-6.62958
  0
LINE
  8
0
 10
13.11
 20
-6.62958
 11
13.2458
 21
-6.21156
  0
LINE
  8
0
 10
13.2458
 20
-6.21156
 11
13.4329
 21
-5.81386
  0
LINE
  8
0
 10
13.4329
 20
-5.81386
 11
13.6684
 21
-5.44275
  0
LINE
  8
0
 10
13.6684
 20
-5.44275
 11
13.9486
 21
-5.10408
  0
LINE
  8
0
 10
13.9486
 20
-5.10408
 11
14.269
 21
-4.80319
  0
LINE
  8
0
 10
14.269
 20
-4.80319
 11
14.6246
 21
-4.54485
  0
LINE
  8
0
 10
14.6246
 20
-4.54485
 11
15.0098
 21
-4.3331
  0
LINE
  8
0
 10
15.0098
 20
-4.3331
 11
15.4184
 21
-4.1713
  0
LINE
  8
0
 10
15.4184
 20
-4.1713
 11
15.8442
 21
-4.06198
  0
LINE
  8
0
 10
15.8442
 20
-4.06198
 11
16.2802
 21
-4.0069
  0
LINE
  8
0
 10
16.2802
 20
-4.0069
 11
16.7198
 21
-4.0069
  0
LINE
  8
0
 10
16.7198
 20
-4.0069
 11
17.1558
 21
-4.06198
  0
LINE
  8
0
 10
17.1558
 20
-4.06198
 11
17.5816
 21
-4.1713
  0
LINE
  8
0
 10
17.5816
 20
-4.1713
 11
17.9902
 21
-4.3331
  0
LINE
  8
0
 10
17.9902
 20
-4.3331
 11
18.3754
 21
-4.54485
  0
LINE
  8
0
 10
18.3754
 20
-4.54485
 11
18.731
 21
-4.80319
  0
LINE
  8
0
 10
18.731
 20
-4.80319
 11
19.0514
 21
-5.10408
  0
LINE
  8
0
 10
19.0514
 20
-5.10408
 11
19.3316
 21
-5.44275
  0
LINE
  8
0
 10
19.3316
 20
-5.44275
 11
19.5671
 21
-5.81386
  0
LINE
  8
0
 10
19.5671
 20
-5.81386
 11
19.7542
 21
-6.21156
  0
LINE
  8
0
 10
19.7542
 20
-6.21156
 11
19.89
 21
-6.62958
  0
LINE
  8
0
 10
19.89
 20
-6.62958
 11
19.9724
 21
-7.06133
  0
LINE
  8
0
 10
19.9724
 20
-7.06133
 11
20
 21
-7.5
  0
LINE
  8
0
 10
20
 20
-7.5
 11
19.9724
 21
-7.93866
  0
LINE
  8
0
 10
19.9724
 20
-7.93866
 11
19.89
 21
-8.37041
  0
LINE
  8
0
 10
19.89
 20
-8.37041
 11
19.7542
 21
-8.78842
  0
LINE
  8
0
 10
19.7542
 20
-8.78842
 11
19.5671
 21
-9.18613
  0
LINE
  8
0
 10
19.5671
 20
-9.18613
 11
19.3316
 21
-9.55724
  0
LINE
  8
0
 10
19.3316
 20
-9.55724
 11
19.0514
 21
-9.8959
  0
LINE
  8
0
 10
19.0514
 20
-9.8959
 11
18.731
 21
-10.1968
  0
LINE
  8
0
 10
18.731
 20
-10.1968
 11
18.3754
 21
-10.4551
  0
LINE
  8
0
 10
18.3754
 20
-10.4551
 11
17.9902
 21
-10.6669
  0
LINE
  8
0
 10
17.9902
 20
-10.6669
 11
17.5816
 21
-10.8287
  0
LINE
  8
0
 10
17.5816
 20
-10.8287
 11
17.1558
 21
-10.938
  0
LINE
  8
0
 10
17.1558
 20
-10.938
 11
16.7198
 21
-10.9931
  0
LINE
  8
0
 10
16.7198
 20
-10.9931
 11
16.2802
 21
-10.9931
  0
ENDSEC
  0
SECTION
  2
OBJECTS
  0
DICTIONARY
  0
ENDSEC
  0
EOF
