  0
SECTION
  2
BLOCKS
  0
ENDSEC
  0
SECTION
  2
ENTITIES
  0
LINE
  8
0
 10
380
 20
25
 11
0
 21
25
  0
LINE
  8
0
 10
0
 20
25
 11
0
 21
-25
  0
LINE
  8
0
 10
0
 20
-25
 11
380
 21
-25
  0
LINE
  8
0
 10
380
 20
-25
 11
380
 21
25
  0
LINE
  8
0
 10
248.296
 20
4.25641
 11
247.891
 21
4.30756
  0
LINE
  8
0
 10
247.891
 20
4.30756
 11
247.496
 21
4.40906
  0
LINE
  8
0
 10
247.496
 20
4.40906
 11
247.116
 21
4.55931
  0
LINE
  8
0
 10
247.116
 20
4.55931
 11
246.759
 21
4.75592
  0
LINE
  8
0
 10
246.759
 20
4.75592
 11
246.428
 21
4.99582
  0
LINE
  8
0
 10
246.428
 20
4.99582
 11
246.131
 21
5.27521
  0
LINE
  8
0
 10
246.131
 20
5.27521
 11
245.871
 21
5.58969
  0
LINE
  8
0
 10
245.871
 20
5.58969
 11
245.652
 21
5.9343
  0
LINE
  8
0
 10
245.652
 20
5.9343
 11
245.478
 21
6.30359
  0
LINE
  8
0
 10
245.478
 20
6.30359
 11
245.352
 21
6.69176
  0
LINE
  8
0
 10
245.352
 20
6.69176
 11
245.276
 21
7.09267
  0
LINE
  8
0
 10
245.276
 20
7.09267
 11
245.25
 21
7.5
  0
LINE
  8
0
 10
245.25
 20
7.5
 11
245.276
 21
7.90732
  0
LINE
  8
0
 10
245.276
 20
7.90732
 11
245.352
 21
8.30823
  0
LINE
  8
0
 10
245.352
 20
8.30823
 11
245.478
 21
8.6964
  0
LINE
  8
0
 10
245.478
 20
8.6964
 11
245.652
 21
9.06569
  0
LINE
  8
0
 10
245.652
 20
9.06569
 11
245.871
 21
9.41029
  0
LINE
  8
0
 10
245.871
 20
9.41029
 11
246.131
 21
9.72478
  0
LINE
  8
0
 10
246.131
 20
9.72478
 11
246.428
 21
10.0042
  0
LINE
  8
0
 10
246.428
 20
10.0042
 11
246.759
 21
10.2441
  0
LINE
  8
0
 10
246.759
 20
10.2441
 11
247.116
 21
10.4407
  0
LINE
  8
0
 10
247.116
 20
10.4407
 11
247.496
 21
10.5909
  0
LINE
  8
0
 10
247.496
 20
10.5909
 11
247.891
 21
10.6924
  0
LINE
  8
0
 10
247.891
 20
10.6924
 11
248.296
 21
10.7436
  0
LINE
  8
0
 10
248.296
 20
10.7436
 11
248.704
 21
10.7436
  0
LINE
  8
0
 10
248.704
 20
10.7436
 11
249.109
 21
10.6924
  0
LINE
  8
0
 10
249.109
 20
10.6924
 11
249.504
 21
10.5909
  0
LINE
  8
0
 10
249.504
 20
10.5909
 11
249.884
 21
10.4407
  0
LINE
  8
0
 10
249.884
 20
10.4407
 11
250.241
 21
10.2441
  0
LINE
  8
0
 10
250.241
 20
10.2441
 11
250.572
 21
10.0042
  0
LINE
  8
0
 10
250.572
 20
10.0042
 11
250.869
 21
9.72478
  0
LINE
  8
0
 10
250.869
 20
9.72478
 11
251.129
 21
9.41029
  0
LINE
  8
0
 10
251.129
 20
9.41029
 11
251.348
 21
9.06569
  0
LINE
  8
0
 10
251.348
 20
9.06569
 11
251.522
 21
8.6964
  0
LINE
  8
0
 10
251.522
 20
8.6964
 11
251.648
 21
8.30823
  0
LINE
  8
0
 10
251.648
 20
8.30823
 11
251.724
 21
7.90732
  0
LINE
  8
0
 10
251.724
 20
7.90732
 11
251.75
 21
7.5
  0
LINE
  8
0
 10
251.75
 20
7.5
 11
251.724
 21
7.09267
  0
LINE
  8
0
 10
251.724
 20
7.09267
 11
251.648
 21
6.69176
  0
LINE
  8
0
 10
251.648
 20
6.69176
 11
251.522
 21
6.30359
  0
LINE
  8
0
 10
251.522
 20
6.30359
 11
251.348
 21
5.9343
  0
LINE
  8
0
 10
251.348
 20
5.9343
 11
251.129
 21
5.58969
  0
LINE
  8
0
 10
251.129
 20
5.58969
 11
250.869
 21
5.27521
  0
LINE
  8
0
 10
250.869
 20
5.27521
 11
250.572
 21
4.99582
  0
LINE
  8
0
 10
250.572
 20
4.99582
 11
250.241
 21
4.75592
  0
LINE
  8
0
 10
250.241
 20
4.75592
 11
249.884
 21
4.55931
  0
LINE
  8
0
 10
249.884
 20
4.55931
 11
249.504
 21
4.40906
  0
LINE
  8
0
 10
249.504
 20
4.40906
 11
249.109
 21
4.30756
  0
LINE
  8
0
 10
249.109
 20
4.30756
 11
248.704
 21
4.25641
  0
LINE
  8
0
 10
248.704
 20
4.25641
 11
248.296
 21
4.25641
  0
LINE
  8
0
 10
238.796
 20
-3.24358
 11
238.391
 21
-3.19243
  0
LINE
  8
0
 10
238.391
 20
-3.19243
 11
237.996
 21
-3.09093
  0
LINE
  8
0
 10
237.996
 20
-3.09093
 11
237.616
 21
-2.94067
  0
LINE
  8
0
 10
237.616
 20
-2.94067
 11
237.259
 21
-2.74406
  0
LINE
  8
0
 10
237.259
 20
-2.74406
 11
236.928
 21
-2.50417
  0
LINE
  8
0
 10
236.928
 20
-2.50417
 11
236.631
 21
-2.22478
  0
LINE
  8
0
 10
236.631
 20
-2.22478
 11
236.371
 21
-1.91029
  0
LINE
  8
0
 10
236.371
 20
-1.91029
 11
236.152
 21
-1.56569
  0
LINE
  8
0
 10
236.152
 20
-1.56569
 11
235.978
 21
-1.1964
  0
LINE
  8
0
 10
235.978
 20
-1.1964
 11
235.852
 21
-0.808228
  0
LINE
  8
0
 10
235.852
 20
-0.808228
 11
235.776
 21
-0.407318
  0
LINE
  8
0
 10
235.776
 20
-0.407318
 11
235.75
 21
0
  0
LINE
  8
0
 10
235.75
 20
0
 11
235.776
 21
0.407318
  0
LINE
  8
0
 10
235.776
 20
0.407318
 11
235.852
 21
0.808228
  0
LINE
  8
0
 10
235.852
 20
0.808228
 11
235.978
 21
1.1964
  0
LINE
  8
0
 10
235.978
 20
1.1964
 11
236.152
 21
1.56569
  0
LINE
  8
0
 10
236.152
 20
1.56569
 11
236.371
 21
1.91029
  0
LINE
  8
0
 10
236.371
 20
1.91029
 11
236.631
 21
2.22478
  0
LINE
  8
0
 10
236.631
 20
2.22478
 11
236.928
 21
2.50417
  0
LINE
  8
0
 10
236.928
 20
2.50417
 11
237.259
 21
2.74406
  0
LINE
  8
0
 10
237.259
 20
2.74406
 11
237.616
 21
2.94067
  0
LINE
  8
0
 10
237.616
 20
2.94067
 11
237.996
 21
3.09093
  0
LINE
  8
0
 10
237.996
 20
3.09093
 11
238.391
 21
3.19243
  0
LINE
  8
0
 10
238.391
 20
3.19243
 11
238.796
 21
3.24358
  0
LINE
  8
0
 10
238.796
 20
3.24358
 11
239.204
 21
3.24358
  0
LINE
  8
0
 10
239.204
 20
3.24358
 11
239.609
 21
3.19243
  0
LINE
  8
0
 10
239.609
 20
3.19243
 11
240.004
 21
3.09093
  0
LINE
  8
0
 10
240.004
 20
3.09093
 11
240.384
 21
2.94067
  0
LINE
  8
0
 10
240.384
 20
2.94067
 11
240.741
 21
2.74406
  0
LINE
  8
0
 10
240.741
 20
2.74406
 11
241.072
 21
2.50417
  0
LINE
  8
0
 10
241.072
 20
2.50417
 11
241.369
 21
2.22478
  0
LINE
  8
0
 10
241.369
 20
2.22478
 11
241.629
 21
1.91029
  0
LINE
  8
0
 10
241.629
 20
1.91029
 11
241.848
 21
1.56569
  0
LINE
  8
0
 10
241.848
 20
1.56569
 11
242.022
 21
1.1964
  0
LINE
  8
0
 10
242.022
 20
1.1964
 11
242.148
 21
0.808228
  0
LINE
  8
0
 10
242.148
 20
0.808228
 11
242.224
 21
0.407318
  0
LINE
  8
0
 10
242.224
 20
0.407318
 11
242.25
 21
0
  0
LINE
  8
0
 10
242.25
 20
0
 11
242.224
 21
-0.407318
  0
LINE
  8
0
 10
242.224
 20
-0.407318
 11
242.148
 21
-0.808228
  0
LINE
  8
0
 10
242.148
 20
-0.808228
 11
242.022
 21
-1.1964
  0
LINE
  8
0
 10
242.022
 20
-1.1964
 11
241.848
 21
-1.56569
  0
LINE
  8
0
 10
241.848
 20
-1.56569
 11
241.629
 21
-1.91029
  0
LINE
  8
0
 10
241.629
 20
-1.91029
 11
241.369
 21
-2.22478
  0
LINE
  8
0
 10
241.369
 20
-2.22478
 11
241.072
 21
-2.50417
  0
LINE
  8
0
 10
241.072
 20
-2.50417
 11
240.741
 21
-2.74406
  0
LINE
  8
0
 10
240.741
 20
-2.74406
 11
240.384
 21
-2.94067
  0
LINE
  8
0
 10
240.384
 20
-2.94067
 11
240.004
 21
-3.09093
  0
LINE
  8
0
 10
240.004
 20
-3.09093
 11
239.609
 21
-3.19243
  0
LINE
  8
0
 10
239.609
 20
-3.19243
 11
239.204
 21
-3.24358
  0
LINE
  8
0
 10
239.204
 20
-3.24358
 11
238.796
 21
-3.24358
  0
LINE
  8
0
 10
257.796
 20
-3.24358
 11
257.391
 21
-3.19243
  0
LINE
  8
0
 10
257.391
 20
-3.19243
 11
256.996
 21
-3.09093
  0
LINE
  8
0
 10
256.996
 20
-3.09093
 11
256.616
 21
-2.94067
  0
LINE
  8
0
 10
256.616
 20
-2.94067
 11
256.259
 21
-2.74406
  0
LINE
  8
0
 10
256.259
 20
-2.74406
 11
255.928
 21
-2.50417
  0
LINE
  8
0
 10
255.928
 20
-2.50417
 11
255.631
 21
-2.22478
  0
LINE
  8
0
 10
255.631
 20
-2.22478
 11
255.371
 21
-1.91029
  0
LINE
  8
0
 10
255.371
 20
-1.91029
 11
255.152
 21
-1.56569
  0
LINE
  8
0
 10
255.152
 20
-1.56569
 11
254.978
 21
-1.1964
  0
LINE
  8
0
 10
254.978
 20
-1.1964
 11
254.852
 21
-0.808228
  0
LINE
  8
0
 10
254.852
 20
-0.808228
 11
254.776
 21
-0.407318
  0
LINE
  8
0
 10
254.776
 20
-0.407318
 11
254.75
 21
0
  0
LINE
  8
0
 10
254.75
 20
0
 11
254.776
 21
0.407318
  0
LINE
  8
0
 10
254.776
 20
0.407318
 11
254.852
 21
0.808228
  0
LINE
  8
0
 10
254.852
 20
0.808228
 11
254.978
 21
1.1964
  0
LINE
  8
0
 10
254.978
 20
1.1964
 11
255.152
 21
1.56569
  0
LINE
  8
0
 10
255.152
 20
1.56569
 11
255.371
 21
1.91029
  0
LINE
  8
0
 10
255.371
 20
1.91029
 11
255.631
 21
2.22478
  0
LINE
  8
0
 10
255.631
 20
2.22478
 11
255.928
 21
2.50417
  0
LINE
  8
0
 10
255.928
 20
2.50417
 11
256.259
 21
2.74406
  0
LINE
  8
0
 10
256.259
 20
2.74406
 11
256.616
 21
2.94067
  0
LINE
  8
0
 10
256.616
 20
2.94067
 11
256.996
 21
3.09093
  0
LINE
  8
0
 10
256.996
 20
3.09093
 11
257.391
 21
3.19243
  0
LINE
  8
0
 10
257.391
 20
3.19243
 11
257.796
 21
3.24358
  0
LINE
  8
0
 10
257.796
 20
3.24358
 11
258.204
 21
3.24358
  0
LINE
  8
0
 10
258.204
 20
3.24358
 11
258.609
 21
3.19243
  0
LINE
  8
0
 10
258.609
 20
3.19243
 11
259.004
 21
3.09093
  0
LINE
  8
0
 10
259.004
 20
3.09093
 11
259.384
 21
2.94067
  0
LINE
  8
0
 10
259.384
 20
2.94067
 11
259.741
 21
2.74406
  0
LINE
  8
0
 10
259.741
 20
2.74406
 11
260.072
 21
2.50417
  0
LINE
  8
0
 10
260.072
 20
2.50417
 11
260.369
 21
2.22478
  0
LINE
  8
0
 10
260.369
 20
2.22478
 11
260.629
 21
1.91029
  0
LINE
  8
0
 10
260.629
 20
1.91029
 11
260.848
 21
1.56569
  0
LINE
  8
0
 10
260.848
 20
1.56569
 11
261.022
 21
1.1964
  0
LINE
  8
0
 10
261.022
 20
1.1964
 11
261.148
 21
0.808228
  0
LINE
  8
0
 10
261.148
 20
0.808228
 11
261.224
 21
0.407318
  0
LINE
  8
0
 10
261.224
 20
0.407318
 11
261.25
 21
0
  0
LINE
  8
0
 10
261.25
 20
0
 11
261.224
 21
-0.407318
  0
LINE
  8
0
 10
261.224
 20
-0.407318
 11
261.148
 21
-0.808228
  0
LINE
  8
0
 10
261.148
 20
-0.808228
 11
261.022
 21
-1.1964
  0
LINE
  8
0
 10
261.022
 20
-1.1964
 11
260.848
 21
-1.56569
  0
LINE
  8
0
 10
260.848
 20
-1.56569
 11
260.629
 21
-1.91029
  0
LINE
  8
0
 10
260.629
 20
-1.91029
 11
260.369
 21
-2.22478
  0
LINE
  8
0
 10
260.369
 20
-2.22478
 11
260.072
 21
-2.50417
  0
LINE
  8
0
 10
260.072
 20
-2.50417
 11
259.741
 21
-2.74406
  0
LINE
  8
0
 10
259.741
 20
-2.74406
 11
259.384
 21
-2.94067
  0
LINE
  8
0
 10
259.384
 20
-2.94067
 11
259.004
 21
-3.09093
  0
LINE
  8
0
 10
259.004
 20
-3.09093
 11
258.609
 21
-3.19243
  0
LINE
  8
0
 10
258.609
 20
-3.19243
 11
258.204
 21
-3.24358
  0
LINE
  8
0
 10
258.204
 20
-3.24358
 11
257.796
 21
-3.24358
  0
LINE
  8
0
 10
248.296
 20
-10.7436
 11
247.891
 21
-10.6924
  0
LINE
  8
0
 10
247.891
 20
-10.6924
 11
247.496
 21
-10.5909
  0
LINE
  8
0
 10
247.496
 20
-10.5909
 11
247.116
 21
-10.4407
  0
LINE
  8
0
 10
247.116
 20
-10.4407
 11
246.759
 21
-10.2441
  0
LINE
  8
0
 10
246.759
 20
-10.2441
 11
246.428
 21
-10.0042
  0
LINE
  8
0
 10
246.428
 20
-10.0042
 11
246.131
 21
-9.72478
  0
LINE
  8
0
 10
246.131
 20
-9.72478
 11
245.871
 21
-9.41029
  0
LINE
  8
0
 10
245.871
 20
-9.41029
 11
245.652
 21
-9.06569
  0
LINE
  8
0
 10
245.652
 20
-9.06569
 11
245.478
 21
-8.6964
  0
LINE
  8
0
 10
245.478
 20
-8.6964
 11
245.352
 21
-8.30823
  0
LINE
  8
0
 10
245.352
 20
-8.30823
 11
245.276
 21
-7.90732
  0
LINE
  8
0
 10
245.276
 20
-7.90732
 11
245.25
 21
-7.5
  0
LINE
  8
0
 10
245.25
 20
-7.5
 11
245.276
 21
-7.09267
  0
LINE
  8
0
 10
245.276
 20
-7.09267
 11
245.352
 21
-6.69176
  0
LINE
  8
0
 10
245.352
 20
-6.69176
 11
245.478
 21
-6.30359
  0
LINE
  8
0
 10
245.478
 20
-6.30359
 11
245.652
 21
-5.9343
  0
LINE
  8
0
 10
245.652
 20
-5.9343
 11
245.871
 21
-5.58969
  0
LINE
  8
0
 10
245.871
 20
-5.58969
 11
246.131
 21
-5.27521
  0
LINE
  8
0
 10
246.131
 20
-5.27521
 11
246.428
 21
-4.99582
  0
LINE
  8
0
 10
246.428
 20
-4.99582
 11
246.759
 21
-4.75592
  0
LINE
  8
0
 10
246.759
 20
-4.75592
 11
247.116
 21
-4.55931
  0
LINE
  8
0
 10
247.116
 20
-4.55931
 11
247.496
 21
-4.40906
  0
LINE
  8
0
 10
247.496
 20
-4.40906
 11
247.891
 21
-4.30756
  0
LINE
  8
0
 10
247.891
 20
-4.30756
 11
248.296
 21
-4.25641
  0
LINE
  8
0
 10
248.296
 20
-4.25641
 11
248.704
 21
-4.25641
  0
LINE
  8
0
 10
248.704
 20
-4.25641
 11
249.109
 21
-4.30756
  0
LINE
  8
0
 10
249.109
 20
-4.30756
 11
249.504
 21
-4.40906
  0
LINE
  8
0
 10
249.504
 20
-4.40906
 11
249.884
 21
-4.55931
  0
LINE
  8
0
 10
249.884
 20
-4.55931
 11
250.241
 21
-4.75592
  0
LINE
  8
0
 10
250.241
 20
-4.75592
 11
250.572
 21
-4.99582
  0
LINE
  8
0
 10
250.572
 20
-4.99582
 11
250.869
 21
-5.27521
  0
LINE
  8
0
 10
250.869
 20
-5.27521
 11
251.129
 21
-5.58969
  0
LINE
  8
0
 10
251.129
 20
-5.58969
 11
251.348
 21
-5.9343
  0
LINE
  8
0
 10
251.348
 20
-5.9343
 11
251.522
 21
-6.30359
  0
LINE
  8
0
 10
251.522
 20
-6.30359
 11
251.648
 21
-6.69176
  0
LINE
  8
0
 10
251.648
 20
-6.69176
 11
251.724
 21
-7.09267
  0
LINE
  8
0
 10
251.724
 20
-7.09267
 11
251.75
 21
-7.5
  0
LINE
  8
0
 10
251.75
 20
-7.5
 11
251.724
 21
-7.90732
  0
LINE
  8
0
 10
251.724
 20
-7.90732
 11
251.648
 21
-8.30823
  0
LINE
  8
0
 10
251.648
 20
-8.30823
 11
251.522
 21
-8.6964
  0
LINE
  8
0
 10
251.522
 20
-8.6964
 11
251.348
 21
-9.06569
  0
LINE
  8
0
 10
251.348
 20
-9.06569
 11
251.129
 21
-9.41029
  0
LINE
  8
0
 10
251.129
 20
-9.41029
 11
250.869
 21
-9.72478
  0
LINE
  8
0
 10
250.869
 20
-9.72478
 11
250.572
 21
-10.0042
  0
LINE
  8
0
 10
250.572
 20
-10.0042
 11
250.241
 21
-10.2441
  0
LINE
  8
0
 10
250.241
 20
-10.2441
 11
249.884
 21
-10.4407
  0
LINE
  8
0
 10
249.884
 20
-10.4407
 11
249.504
 21
-10.5909
  0
LINE
  8
0
 10
249.504
 20
-10.5909
 11
249.109
 21
-10.6924
  0
LINE
  8
0
 10
249.109
 20
-10.6924
 11
248.704
 21
-10.7436
  0
LINE
  8
0
 10
248.704
 20
-10.7436
 11
248.296
 21
-10.7436
  0
ENDSEC
  0
SECTION
  2
OBJECTS
  0
DICTIONARY
  0
ENDSEC
  0
EOF
