  0
SECTION
  2
BLOCKS
  0
ENDSEC
  0
SECTION
  2
ENTITIES
  0
LINE
  8
0
 10
380
 20
25
 11
0
 21
25
  0
LINE
  8
0
 10
0
 20
25
 11
0
 21
-25
  0
LINE
  8
0
 10
0
 20
-25
 11
380
 21
-25
  0
LINE
  8
0
 10
380
 20
-25
 11
380
 21
25
  0
LINE
  8
0
 10
131.296
 20
4.25641
 11
130.891
 21
4.30756
  0
LINE
  8
0
 10
130.891
 20
4.30756
 11
130.496
 21
4.40906
  0
LINE
  8
0
 10
130.496
 20
4.40906
 11
130.116
 21
4.55931
  0
LINE
  8
0
 10
130.116
 20
4.55931
 11
129.759
 21
4.75592
  0
LINE
  8
0
 10
129.759
 20
4.75592
 11
129.428
 21
4.99582
  0
LINE
  8
0
 10
129.428
 20
4.99582
 11
129.131
 21
5.27521
  0
LINE
  8
0
 10
129.131
 20
5.27521
 11
128.871
 21
5.58969
  0
LINE
  8
0
 10
128.871
 20
5.58969
 11
128.652
 21
5.9343
  0
LINE
  8
0
 10
128.652
 20
5.9343
 11
128.478
 21
6.30359
  0
LINE
  8
0
 10
128.478
 20
6.30359
 11
128.352
 21
6.69176
  0
LINE
  8
0
 10
128.352
 20
6.69176
 11
128.276
 21
7.09267
  0
LINE
  8
0
 10
128.276
 20
7.09267
 11
128.25
 21
7.5
  0
LINE
  8
0
 10
128.25
 20
7.5
 11
128.276
 21
7.90732
  0
LINE
  8
0
 10
128.276
 20
7.90732
 11
128.352
 21
8.30823
  0
LINE
  8
0
 10
128.352
 20
8.30823
 11
128.478
 21
8.6964
  0
LINE
  8
0
 10
128.478
 20
8.6964
 11
128.652
 21
9.06569
  0
LINE
  8
0
 10
128.652
 20
9.06569
 11
128.871
 21
9.41029
  0
LINE
  8
0
 10
128.871
 20
9.41029
 11
129.131
 21
9.72478
  0
LINE
  8
0
 10
129.131
 20
9.72478
 11
129.428
 21
10.0042
  0
LINE
  8
0
 10
129.428
 20
10.0042
 11
129.759
 21
10.2441
  0
LINE
  8
0
 10
129.759
 20
10.2441
 11
130.116
 21
10.4407
  0
LINE
  8
0
 10
130.116
 20
10.4407
 11
130.496
 21
10.5909
  0
LINE
  8
0
 10
130.496
 20
10.5909
 11
130.891
 21
10.6924
  0
LINE
  8
0
 10
130.891
 20
10.6924
 11
131.296
 21
10.7436
  0
LINE
  8
0
 10
131.296
 20
10.7436
 11
131.704
 21
10.7436
  0
LINE
  8
0
 10
131.704
 20
10.7436
 11
132.109
 21
10.6924
  0
LINE
  8
0
 10
132.109
 20
10.6924
 11
132.504
 21
10.5909
  0
LINE
  8
0
 10
132.504
 20
10.5909
 11
132.884
 21
10.4407
  0
LINE
  8
0
 10
132.884
 20
10.4407
 11
133.241
 21
10.2441
  0
LINE
  8
0
 10
133.241
 20
10.2441
 11
133.572
 21
10.0042
  0
LINE
  8
0
 10
133.572
 20
10.0042
 11
133.869
 21
9.72478
  0
LINE
  8
0
 10
133.869
 20
9.72478
 11
134.129
 21
9.41029
  0
LINE
  8
0
 10
134.129
 20
9.41029
 11
134.348
 21
9.06569
  0
LINE
  8
0
 10
134.348
 20
9.06569
 11
134.522
 21
8.6964
  0
LINE
  8
0
 10
134.522
 20
8.6964
 11
134.648
 21
8.30823
  0
LINE
  8
0
 10
134.648
 20
8.30823
 11
134.724
 21
7.90732
  0
LINE
  8
0
 10
134.724
 20
7.90732
 11
134.75
 21
7.5
  0
LINE
  8
0
 10
134.75
 20
7.5
 11
134.724
 21
7.09267
  0
LINE
  8
0
 10
134.724
 20
7.09267
 11
134.648
 21
6.69176
  0
LINE
  8
0
 10
134.648
 20
6.69176
 11
134.522
 21
6.30359
  0
LINE
  8
0
 10
134.522
 20
6.30359
 11
134.348
 21
5.9343
  0
LINE
  8
0
 10
134.348
 20
5.9343
 11
134.129
 21
5.58969
  0
LINE
  8
0
 10
134.129
 20
5.58969
 11
133.869
 21
5.27521
  0
LINE
  8
0
 10
133.869
 20
5.27521
 11
133.572
 21
4.99582
  0
LINE
  8
0
 10
133.572
 20
4.99582
 11
133.241
 21
4.75592
  0
LINE
  8
0
 10
133.241
 20
4.75592
 11
132.884
 21
4.55931
  0
LINE
  8
0
 10
132.884
 20
4.55931
 11
132.504
 21
4.40906
  0
LINE
  8
0
 10
132.504
 20
4.40906
 11
132.109
 21
4.30756
  0
LINE
  8
0
 10
132.109
 20
4.30756
 11
131.704
 21
4.25641
  0
LINE
  8
0
 10
131.704
 20
4.25641
 11
131.296
 21
4.25641
  0
LINE
  8
0
 10
248.296
 20
4.25641
 11
247.891
 21
4.30756
  0
LINE
  8
0
 10
247.891
 20
4.30756
 11
247.496
 21
4.40906
  0
LINE
  8
0
 10
247.496
 20
4.40906
 11
247.116
 21
4.55931
  0
LINE
  8
0
 10
247.116
 20
4.55931
 11
246.759
 21
4.75592
  0
LINE
  8
0
 10
246.759
 20
4.75592
 11
246.428
 21
4.99582
  0
LINE
  8
0
 10
246.428
 20
4.99582
 11
246.131
 21
5.27521
  0
LINE
  8
0
 10
246.131
 20
5.27521
 11
245.871
 21
5.58969
  0
LINE
  8
0
 10
245.871
 20
5.58969
 11
245.652
 21
5.9343
  0
LINE
  8
0
 10
245.652
 20
5.9343
 11
245.478
 21
6.30359
  0
LINE
  8
0
 10
245.478
 20
6.30359
 11
245.352
 21
6.69176
  0
LINE
  8
0
 10
245.352
 20
6.69176
 11
245.276
 21
7.09267
  0
LINE
  8
0
 10
245.276
 20
7.09267
 11
245.25
 21
7.5
  0
LINE
  8
0
 10
245.25
 20
7.5
 11
245.276
 21
7.90732
  0
LINE
  8
0
 10
245.276
 20
7.90732
 11
245.352
 21
8.30823
  0
LINE
  8
0
 10
245.352
 20
8.30823
 11
245.478
 21
8.6964
  0
LINE
  8
0
 10
245.478
 20
8.6964
 11
245.652
 21
9.06569
  0
LINE
  8
0
 10
245.652
 20
9.06569
 11
245.871
 21
9.41029
  0
LINE
  8
0
 10
245.871
 20
9.41029
 11
246.131
 21
9.72478
  0
LINE
  8
0
 10
246.131
 20
9.72478
 11
246.428
 21
10.0042
  0
LINE
  8
0
 10
246.428
 20
10.0042
 11
246.759
 21
10.2441
  0
LINE
  8
0
 10
246.759
 20
10.2441
 11
247.116
 21
10.4407
  0
LINE
  8
0
 10
247.116
 20
10.4407
 11
247.496
 21
10.5909
  0
LINE
  8
0
 10
247.496
 20
10.5909
 11
247.891
 21
10.6924
  0
LINE
  8
0
 10
247.891
 20
10.6924
 11
248.296
 21
10.7436
  0
LINE
  8
0
 10
248.296
 20
10.7436
 11
248.704
 21
10.7436
  0
LINE
  8
0
 10
248.704
 20
10.7436
 11
249.109
 21
10.6924
  0
LINE
  8
0
 10
249.109
 20
10.6924
 11
249.504
 21
10.5909
  0
LINE
  8
0
 10
249.504
 20
10.5909
 11
249.884
 21
10.4407
  0
LINE
  8
0
 10
249.884
 20
10.4407
 11
250.241
 21
10.2441
  0
LINE
  8
0
 10
250.241
 20
10.2441
 11
250.572
 21
10.0042
  0
LINE
  8
0
 10
250.572
 20
10.0042
 11
250.869
 21
9.72478
  0
LINE
  8
0
 10
250.869
 20
9.72478
 11
251.129
 21
9.41029
  0
LINE
  8
0
 10
251.129
 20
9.41029
 11
251.348
 21
9.06569
  0
LINE
  8
0
 10
251.348
 20
9.06569
 11
251.522
 21
8.6964
  0
LINE
  8
0
 10
251.522
 20
8.6964
 11
251.648
 21
8.30823
  0
LINE
  8
0
 10
251.648
 20
8.30823
 11
251.724
 21
7.90732
  0
LINE
  8
0
 10
251.724
 20
7.90732
 11
251.75
 21
7.5
  0
LINE
  8
0
 10
251.75
 20
7.5
 11
251.724
 21
7.09267
  0
LINE
  8
0
 10
251.724
 20
7.09267
 11
251.648
 21
6.69176
  0
LINE
  8
0
 10
251.648
 20
6.69176
 11
251.522
 21
6.30359
  0
LINE
  8
0
 10
251.522
 20
6.30359
 11
251.348
 21
5.9343
  0
LINE
  8
0
 10
251.348
 20
5.9343
 11
251.129
 21
5.58969
  0
LINE
  8
0
 10
251.129
 20
5.58969
 11
250.869
 21
5.27521
  0
LINE
  8
0
 10
250.869
 20
5.27521
 11
250.572
 21
4.99582
  0
LINE
  8
0
 10
250.572
 20
4.99582
 11
250.241
 21
4.75592
  0
LINE
  8
0
 10
250.241
 20
4.75592
 11
249.884
 21
4.55931
  0
LINE
  8
0
 10
249.884
 20
4.55931
 11
249.504
 21
4.40906
  0
LINE
  8
0
 10
249.504
 20
4.40906
 11
249.109
 21
4.30756
  0
LINE
  8
0
 10
249.109
 20
4.30756
 11
248.704
 21
4.25641
  0
LINE
  8
0
 10
248.704
 20
4.25641
 11
248.296
 21
4.25641
  0
LINE
  8
0
 10
121.796
 20
-3.24358
 11
121.391
 21
-3.19243
  0
LINE
  8
0
 10
121.391
 20
-3.19243
 11
120.996
 21
-3.09093
  0
LINE
  8
0
 10
120.996
 20
-3.09093
 11
120.616
 21
-2.94067
  0
LINE
  8
0
 10
120.616
 20
-2.94067
 11
120.259
 21
-2.74406
  0
LINE
  8
0
 10
120.259
 20
-2.74406
 11
119.928
 21
-2.50417
  0
LINE
  8
0
 10
119.928
 20
-2.50417
 11
119.631
 21
-2.22478
  0
LINE
  8
0
 10
119.631
 20
-2.22478
 11
119.371
 21
-1.91029
  0
LINE
  8
0
 10
119.371
 20
-1.91029
 11
119.152
 21
-1.56569
  0
LINE
  8
0
 10
119.152
 20
-1.56569
 11
118.978
 21
-1.1964
  0
LINE
  8
0
 10
118.978
 20
-1.1964
 11
118.852
 21
-0.808228
  0
LINE
  8
0
 10
118.852
 20
-0.808228
 11
118.776
 21
-0.407318
  0
LINE
  8
0
 10
118.776
 20
-0.407318
 11
118.75
 21
0
  0
LINE
  8
0
 10
118.75
 20
0
 11
118.776
 21
0.407318
  0
LINE
  8
0
 10
118.776
 20
0.407318
 11
118.852
 21
0.808228
  0
LINE
  8
0
 10
118.852
 20
0.808228
 11
118.978
 21
1.1964
  0
LINE
  8
0
 10
118.978
 20
1.1964
 11
119.152
 21
1.56569
  0
LINE
  8
0
 10
119.152
 20
1.56569
 11
119.371
 21
1.91029
  0
LINE
  8
0
 10
119.371
 20
1.91029
 11
119.631
 21
2.22478
  0
LINE
  8
0
 10
119.631
 20
2.22478
 11
119.928
 21
2.50417
  0
LINE
  8
0
 10
119.928
 20
2.50417
 11
120.259
 21
2.74406
  0
LINE
  8
0
 10
120.259
 20
2.74406
 11
120.616
 21
2.94067
  0
LINE
  8
0
 10
120.616
 20
2.94067
 11
120.996
 21
3.09093
  0
LINE
  8
0
 10
120.996
 20
3.09093
 11
121.391
 21
3.19243
  0
LINE
  8
0
 10
121.391
 20
3.19243
 11
121.796
 21
3.24358
  0
LINE
  8
0
 10
121.796
 20
3.24358
 11
122.204
 21
3.24358
  0
LINE
  8
0
 10
122.204
 20
3.24358
 11
122.609
 21
3.19243
  0
LINE
  8
0
 10
122.609
 20
3.19243
 11
123.004
 21
3.09093
  0
LINE
  8
0
 10
123.004
 20
3.09093
 11
123.384
 21
2.94067
  0
LINE
  8
0
 10
123.384
 20
2.94067
 11
123.741
 21
2.74406
  0
LINE
  8
0
 10
123.741
 20
2.74406
 11
124.072
 21
2.50417
  0
LINE
  8
0
 10
124.072
 20
2.50417
 11
124.369
 21
2.22478
  0
LINE
  8
0
 10
124.369
 20
2.22478
 11
124.629
 21
1.91029
  0
LINE
  8
0
 10
124.629
 20
1.91029
 11
124.848
 21
1.56569
  0
LINE
  8
0
 10
124.848
 20
1.56569
 11
125.022
 21
1.1964
  0
LINE
  8
0
 10
125.022
 20
1.1964
 11
125.148
 21
0.808228
  0
LINE
  8
0
 10
125.148
 20
0.808228
 11
125.224
 21
0.407318
  0
LINE
  8
0
 10
125.224
 20
0.407318
 11
125.25
 21
0
  0
LINE
  8
0
 10
125.25
 20
0
 11
125.224
 21
-0.407318
  0
LINE
  8
0
 10
125.224
 20
-0.407318
 11
125.148
 21
-0.808228
  0
LINE
  8
0
 10
125.148
 20
-0.808228
 11
125.022
 21
-1.1964
  0
LINE
  8
0
 10
125.022
 20
-1.1964
 11
124.848
 21
-1.56569
  0
LINE
  8
0
 10
124.848
 20
-1.56569
 11
124.629
 21
-1.91029
  0
LINE
  8
0
 10
124.629
 20
-1.91029
 11
124.369
 21
-2.22478
  0
LINE
  8
0
 10
124.369
 20
-2.22478
 11
124.072
 21
-2.50417
  0
LINE
  8
0
 10
124.072
 20
-2.50417
 11
123.741
 21
-2.74406
  0
LINE
  8
0
 10
123.741
 20
-2.74406
 11
123.384
 21
-2.94067
  0
LINE
  8
0
 10
123.384
 20
-2.94067
 11
123.004
 21
-3.09093
  0
LINE
  8
0
 10
123.004
 20
-3.09093
 11
122.609
 21
-3.19243
  0
LINE
  8
0
 10
122.609
 20
-3.19243
 11
122.204
 21
-3.24358
  0
LINE
  8
0
 10
122.204
 20
-3.24358
 11
121.796
 21
-3.24358
  0
LINE
  8
0
 10
140.796
 20
-3.24358
 11
140.391
 21
-3.19243
  0
LINE
  8
0
 10
140.391
 20
-3.19243
 11
139.996
 21
-3.09093
  0
LINE
  8
0
 10
139.996
 20
-3.09093
 11
139.616
 21
-2.94067
  0
LINE
  8
0
 10
139.616
 20
-2.94067
 11
139.259
 21
-2.74406
  0
LINE
  8
0
 10
139.259
 20
-2.74406
 11
138.928
 21
-2.50417
  0
LINE
  8
0
 10
138.928
 20
-2.50417
 11
138.631
 21
-2.22478
  0
LINE
  8
0
 10
138.631
 20
-2.22478
 11
138.371
 21
-1.91029
  0
LINE
  8
0
 10
138.371
 20
-1.91029
 11
138.152
 21
-1.56569
  0
LINE
  8
0
 10
138.152
 20
-1.56569
 11
137.978
 21
-1.1964
  0
LINE
  8
0
 10
137.978
 20
-1.1964
 11
137.852
 21
-0.808228
  0
LINE
  8
0
 10
137.852
 20
-0.808228
 11
137.776
 21
-0.407318
  0
LINE
  8
0
 10
137.776
 20
-0.407318
 11
137.75
 21
0
  0
LINE
  8
0
 10
137.75
 20
0
 11
137.776
 21
0.407318
  0
LINE
  8
0
 10
137.776
 20
0.407318
 11
137.852
 21
0.808228
  0
LINE
  8
0
 10
137.852
 20
0.808228
 11
137.978
 21
1.1964
  0
LINE
  8
0
 10
137.978
 20
1.1964
 11
138.152
 21
1.56569
  0
LINE
  8
0
 10
138.152
 20
1.56569
 11
138.371
 21
1.91029
  0
LINE
  8
0
 10
138.371
 20
1.91029
 11
138.631
 21
2.22478
  0
LINE
  8
0
 10
138.631
 20
2.22478
 11
138.928
 21
2.50417
  0
LINE
  8
0
 10
138.928
 20
2.50417
 11
139.259
 21
2.74406
  0
LINE
  8
0
 10
139.259
 20
2.74406
 11
139.616
 21
2.94067
  0
LINE
  8
0
 10
139.616
 20
2.94067
 11
139.996
 21
3.09093
  0
LINE
  8
0
 10
139.996
 20
3.09093
 11
140.391
 21
3.19243
  0
LINE
  8
0
 10
140.391
 20
3.19243
 11
140.796
 21
3.24358
  0
LINE
  8
0
 10
140.796
 20
3.24358
 11
141.204
 21
3.24358
  0
LINE
  8
0
 10
141.204
 20
3.24358
 11
141.609
 21
3.19243
  0
LINE
  8
0
 10
141.609
 20
3.19243
 11
142.004
 21
3.09093
  0
LINE
  8
0
 10
142.004
 20
3.09093
 11
142.384
 21
2.94067
  0
LINE
  8
0
 10
142.384
 20
2.94067
 11
142.741
 21
2.74406
  0
LINE
  8
0
 10
142.741
 20
2.74406
 11
143.072
 21
2.50417
  0
LINE
  8
0
 10
143.072
 20
2.50417
 11
143.369
 21
2.22478
  0
LINE
  8
0
 10
143.369
 20
2.22478
 11
143.629
 21
1.91029
  0
LINE
  8
0
 10
143.629
 20
1.91029
 11
143.848
 21
1.56569
  0
LINE
  8
0
 10
143.848
 20
1.56569
 11
144.022
 21
1.1964
  0
LINE
  8
0
 10
144.022
 20
1.1964
 11
144.148
 21
0.808228
  0
LINE
  8
0
 10
144.148
 20
0.808228
 11
144.224
 21
0.407318
  0
LINE
  8
0
 10
144.224
 20
0.407318
 11
144.25
 21
0
  0
LINE
  8
0
 10
144.25
 20
0
 11
144.224
 21
-0.407318
  0
LINE
  8
0
 10
144.224
 20
-0.407318
 11
144.148
 21
-0.808228
  0
LINE
  8
0
 10
144.148
 20
-0.808228
 11
144.022
 21
-1.1964
  0
LINE
  8
0
 10
144.022
 20
-1.1964
 11
143.848
 21
-1.56569
  0
LINE
  8
0
 10
143.848
 20
-1.56569
 11
143.629
 21
-1.91029
  0
LINE
  8
0
 10
143.629
 20
-1.91029
 11
143.369
 21
-2.22478
  0
LINE
  8
0
 10
143.369
 20
-2.22478
 11
143.072
 21
-2.50417
  0
LINE
  8
0
 10
143.072
 20
-2.50417
 11
142.741
 21
-2.74406
  0
LINE
  8
0
 10
142.741
 20
-2.74406
 11
142.384
 21
-2.94067
  0
LINE
  8
0
 10
142.384
 20
-2.94067
 11
142.004
 21
-3.09093
  0
LINE
  8
0
 10
142.004
 20
-3.09093
 11
141.609
 21
-3.19243
  0
LINE
  8
0
 10
141.609
 20
-3.19243
 11
141.204
 21
-3.24358
  0
LINE
  8
0
 10
141.204
 20
-3.24358
 11
140.796
 21
-3.24358
  0
LINE
  8
0
 10
29.7959
 20
-3.24358
 11
29.391
 21
-3.19243
  0
LINE
  8
0
 10
29.391
 20
-3.19243
 11
28.9957
 21
-3.09093
  0
LINE
  8
0
 10
28.9957
 20
-3.09093
 11
28.6162
 21
-2.94067
  0
LINE
  8
0
 10
28.6162
 20
-2.94067
 11
28.2586
 21
-2.74406
  0
LINE
  8
0
 10
28.2586
 20
-2.74406
 11
27.9284
 21
-2.50417
  0
LINE
  8
0
 10
27.9284
 20
-2.50417
 11
27.6308
 21
-2.22478
  0
LINE
  8
0
 10
27.6308
 20
-2.22478
 11
27.3707
 21
-1.91029
  0
LINE
  8
0
 10
27.3707
 20
-1.91029
 11
27.152
 21
-1.56569
  0
LINE
  8
0
 10
27.152
 20
-1.56569
 11
26.9782
 21
-1.1964
  0
LINE
  8
0
 10
26.9782
 20
-1.1964
 11
26.8521
 21
-0.808228
  0
LINE
  8
0
 10
26.8521
 20
-0.808228
 11
26.7756
 21
-0.407318
  0
LINE
  8
0
 10
26.7756
 20
-0.407318
 11
26.75
 21
0
  0
LINE
  8
0
 10
26.75
 20
0
 11
26.7756
 21
0.407318
  0
LINE
  8
0
 10
26.7756
 20
0.407318
 11
26.8521
 21
0.808228
  0
LINE
  8
0
 10
26.8521
 20
0.808228
 11
26.9782
 21
1.1964
  0
LINE
  8
0
 10
26.9782
 20
1.1964
 11
27.152
 21
1.56569
  0
LINE
  8
0
 10
27.152
 20
1.56569
 11
27.3707
 21
1.91029
  0
LINE
  8
0
 10
27.3707
 20
1.91029
 11
27.6308
 21
2.22478
  0
LINE
  8
0
 10
27.6308
 20
2.22478
 11
27.9284
 21
2.50417
  0
LINE
  8
0
 10
27.9284
 20
2.50417
 11
28.2586
 21
2.74406
  0
LINE
  8
0
 10
28.2586
 20
2.74406
 11
28.6162
 21
2.94067
  0
LINE
  8
0
 10
28.6162
 20
2.94067
 11
28.9957
 21
3.09093
  0
LINE
  8
0
 10
28.9957
 20
3.09093
 11
29.391
 21
3.19243
  0
LINE
  8
0
 10
29.391
 20
3.19243
 11
29.7959
 21
3.24358
  0
LINE
  8
0
 10
29.7959
 20
3.24358
 11
30.2041
 21
3.24358
  0
LINE
  8
0
 10
30.2041
 20
3.24358
 11
30.609
 21
3.19243
  0
LINE
  8
0
 10
30.609
 20
3.19243
 11
31.0043
 21
3.09093
  0
LINE
  8
0
 10
31.0043
 20
3.09093
 11
31.3838
 21
2.94067
  0
LINE
  8
0
 10
31.3838
 20
2.94067
 11
31.7414
 21
2.74406
  0
LINE
  8
0
 10
31.7414
 20
2.74406
 11
32.0716
 21
2.50417
  0
LINE
  8
0
 10
32.0716
 20
2.50417
 11
32.3691
 21
2.22478
  0
LINE
  8
0
 10
32.3691
 20
2.22478
 11
32.6293
 21
1.91029
  0
LINE
  8
0
 10
32.6293
 20
1.91029
 11
32.848
 21
1.56569
  0
LINE
  8
0
 10
32.848
 20
1.56569
 11
33.0218
 21
1.1964
  0
LINE
  8
0
 10
33.0218
 20
1.1964
 11
33.1479
 21
0.808228
  0
LINE
  8
0
 10
33.1479
 20
0.808228
 11
33.2244
 21
0.407318
  0
LINE
  8
0
 10
33.2244
 20
0.407318
 11
33.25
 21
0
  0
LINE
  8
0
 10
33.25
 20
0
 11
33.2244
 21
-0.407318
  0
LINE
  8
0
 10
33.2244
 20
-0.407318
 11
33.1479
 21
-0.808228
  0
LINE
  8
0
 10
33.1479
 20
-0.808228
 11
33.0218
 21
-1.1964
  0
LINE
  8
0
 10
33.0218
 20
-1.1964
 11
32.848
 21
-1.56569
  0
LINE
  8
0
 10
32.848
 20
-1.56569
 11
32.6293
 21
-1.91029
  0
LINE
  8
0
 10
32.6293
 20
-1.91029
 11
32.3691
 21
-2.22478
  0
LINE
  8
0
 10
32.3691
 20
-2.22478
 11
32.0716
 21
-2.50417
  0
LINE
  8
0
 10
32.0716
 20
-2.50417
 11
31.7414
 21
-2.74406
  0
LINE
  8
0
 10
31.7414
 20
-2.74406
 11
31.3838
 21
-2.94067
  0
LINE
  8
0
 10
31.3838
 20
-2.94067
 11
31.0043
 21
-3.09093
  0
LINE
  8
0
 10
31.0043
 20
-3.09093
 11
30.609
 21
-3.19243
  0
LINE
  8
0
 10
30.609
 20
-3.19243
 11
30.2041
 21
-3.24358
  0
LINE
  8
0
 10
30.2041
 20
-3.24358
 11
29.7959
 21
-3.24358
  0
LINE
  8
0
 10
238.796
 20
-3.24358
 11
238.391
 21
-3.19243
  0
LINE
  8
0
 10
238.391
 20
-3.19243
 11
237.996
 21
-3.09093
  0
LINE
  8
0
 10
237.996
 20
-3.09093
 11
237.616
 21
-2.94067
  0
LINE
  8
0
 10
237.616
 20
-2.94067
 11
237.259
 21
-2.74406
  0
LINE
  8
0
 10
237.259
 20
-2.74406
 11
236.928
 21
-2.50417
  0
LINE
  8
0
 10
236.928
 20
-2.50417
 11
236.631
 21
-2.22478
  0
LINE
  8
0
 10
236.631
 20
-2.22478
 11
236.371
 21
-1.91029
  0
LINE
  8
0
 10
236.371
 20
-1.91029
 11
236.152
 21
-1.56569
  0
LINE
  8
0
 10
236.152
 20
-1.56569
 11
235.978
 21
-1.1964
  0
LINE
  8
0
 10
235.978
 20
-1.1964
 11
235.852
 21
-0.808228
  0
LINE
  8
0
 10
235.852
 20
-0.808228
 11
235.776
 21
-0.407318
  0
LINE
  8
0
 10
235.776
 20
-0.407318
 11
235.75
 21
0
  0
LINE
  8
0
 10
235.75
 20
0
 11
235.776
 21
0.407318
  0
LINE
  8
0
 10
235.776
 20
0.407318
 11
235.852
 21
0.808228
  0
LINE
  8
0
 10
235.852
 20
0.808228
 11
235.978
 21
1.1964
  0
LINE
  8
0
 10
235.978
 20
1.1964
 11
236.152
 21
1.56569
  0
LINE
  8
0
 10
236.152
 20
1.56569
 11
236.371
 21
1.91029
  0
LINE
  8
0
 10
236.371
 20
1.91029
 11
236.631
 21
2.22478
  0
LINE
  8
0
 10
236.631
 20
2.22478
 11
236.928
 21
2.50417
  0
LINE
  8
0
 10
236.928
 20
2.50417
 11
237.259
 21
2.74406
  0
LINE
  8
0
 10
237.259
 20
2.74406
 11
237.616
 21
2.94067
  0
LINE
  8
0
 10
237.616
 20
2.94067
 11
237.996
 21
3.09093
  0
LINE
  8
0
 10
237.996
 20
3.09093
 11
238.391
 21
3.19243
  0
LINE
  8
0
 10
238.391
 20
3.19243
 11
238.796
 21
3.24358
  0
LINE
  8
0
 10
238.796
 20
3.24358
 11
239.204
 21
3.24358
  0
LINE
  8
0
 10
239.204
 20
3.24358
 11
239.609
 21
3.19243
  0
LINE
  8
0
 10
239.609
 20
3.19243
 11
240.004
 21
3.09093
  0
LINE
  8
0
 10
240.004
 20
3.09093
 11
240.384
 21
2.94067
  0
LINE
  8
0
 10
240.384
 20
2.94067
 11
240.741
 21
2.74406
  0
LINE
  8
0
 10
240.741
 20
2.74406
 11
241.072
 21
2.50417
  0
LINE
  8
0
 10
241.072
 20
2.50417
 11
241.369
 21
2.22478
  0
LINE
  8
0
 10
241.369
 20
2.22478
 11
241.629
 21
1.91029
  0
LINE
  8
0
 10
241.629
 20
1.91029
 11
241.848
 21
1.56569
  0
LINE
  8
0
 10
241.848
 20
1.56569
 11
242.022
 21
1.1964
  0
LINE
  8
0
 10
242.022
 20
1.1964
 11
242.148
 21
0.808228
  0
LINE
  8
0
 10
242.148
 20
0.808228
 11
242.224
 21
0.407318
  0
LINE
  8
0
 10
242.224
 20
0.407318
 11
242.25
 21
0
  0
LINE
  8
0
 10
242.25
 20
0
 11
242.224
 21
-0.407318
  0
LINE
  8
0
 10
242.224
 20
-0.407318
 11
242.148
 21
-0.808228
  0
LINE
  8
0
 10
242.148
 20
-0.808228
 11
242.022
 21
-1.1964
  0
LINE
  8
0
 10
242.022
 20
-1.1964
 11
241.848
 21
-1.56569
  0
LINE
  8
0
 10
241.848
 20
-1.56569
 11
241.629
 21
-1.91029
  0
LINE
  8
0
 10
241.629
 20
-1.91029
 11
241.369
 21
-2.22478
  0
LINE
  8
0
 10
241.369
 20
-2.22478
 11
241.072
 21
-2.50417
  0
LINE
  8
0
 10
241.072
 20
-2.50417
 11
240.741
 21
-2.74406
  0
LINE
  8
0
 10
240.741
 20
-2.74406
 11
240.384
 21
-2.94067
  0
LINE
  8
0
 10
240.384
 20
-2.94067
 11
240.004
 21
-3.09093
  0
LINE
  8
0
 10
240.004
 20
-3.09093
 11
239.609
 21
-3.19243
  0
LINE
  8
0
 10
239.609
 20
-3.19243
 11
239.204
 21
-3.24358
  0
LINE
  8
0
 10
239.204
 20
-3.24358
 11
238.796
 21
-3.24358
  0
LINE
  8
0
 10
257.796
 20
-3.24358
 11
257.391
 21
-3.19243
  0
LINE
  8
0
 10
257.391
 20
-3.19243
 11
256.996
 21
-3.09093
  0
LINE
  8
0
 10
256.996
 20
-3.09093
 11
256.616
 21
-2.94067
  0
LINE
  8
0
 10
256.616
 20
-2.94067
 11
256.259
 21
-2.74406
  0
LINE
  8
0
 10
256.259
 20
-2.74406
 11
255.928
 21
-2.50417
  0
LINE
  8
0
 10
255.928
 20
-2.50417
 11
255.631
 21
-2.22478
  0
LINE
  8
0
 10
255.631
 20
-2.22478
 11
255.371
 21
-1.91029
  0
LINE
  8
0
 10
255.371
 20
-1.91029
 11
255.152
 21
-1.56569
  0
LINE
  8
0
 10
255.152
 20
-1.56569
 11
254.978
 21
-1.1964
  0
LINE
  8
0
 10
254.978
 20
-1.1964
 11
254.852
 21
-0.808228
  0
LINE
  8
0
 10
254.852
 20
-0.808228
 11
254.776
 21
-0.407318
  0
LINE
  8
0
 10
254.776
 20
-0.407318
 11
254.75
 21
0
  0
LINE
  8
0
 10
254.75
 20
0
 11
254.776
 21
0.407318
  0
LINE
  8
0
 10
254.776
 20
0.407318
 11
254.852
 21
0.808228
  0
LINE
  8
0
 10
254.852
 20
0.808228
 11
254.978
 21
1.1964
  0
LINE
  8
0
 10
254.978
 20
1.1964
 11
255.152
 21
1.56569
  0
LINE
  8
0
 10
255.152
 20
1.56569
 11
255.371
 21
1.91029
  0
LINE
  8
0
 10
255.371
 20
1.91029
 11
255.631
 21
2.22478
  0
LINE
  8
0
 10
255.631
 20
2.22478
 11
255.928
 21
2.50417
  0
LINE
  8
0
 10
255.928
 20
2.50417
 11
256.259
 21
2.74406
  0
LINE
  8
0
 10
256.259
 20
2.74406
 11
256.616
 21
2.94067
  0
LINE
  8
0
 10
256.616
 20
2.94067
 11
256.996
 21
3.09093
  0
LINE
  8
0
 10
256.996
 20
3.09093
 11
257.391
 21
3.19243
  0
LINE
  8
0
 10
257.391
 20
3.19243
 11
257.796
 21
3.24358
  0
LINE
  8
0
 10
257.796
 20
3.24358
 11
258.204
 21
3.24358
  0
LINE
  8
0
 10
258.204
 20
3.24358
 11
258.609
 21
3.19243
  0
LINE
  8
0
 10
258.609
 20
3.19243
 11
259.004
 21
3.09093
  0
LINE
  8
0
 10
259.004
 20
3.09093
 11
259.384
 21
2.94067
  0
LINE
  8
0
 10
259.384
 20
2.94067
 11
259.741
 21
2.74406
  0
LINE
  8
0
 10
259.741
 20
2.74406
 11
260.072
 21
2.50417
  0
LINE
  8
0
 10
260.072
 20
2.50417
 11
260.369
 21
2.22478
  0
LINE
  8
0
 10
260.369
 20
2.22478
 11
260.629
 21
1.91029
  0
LINE
  8
0
 10
260.629
 20
1.91029
 11
260.848
 21
1.56569
  0
LINE
  8
0
 10
260.848
 20
1.56569
 11
261.022
 21
1.1964
  0
LINE
  8
0
 10
261.022
 20
1.1964
 11
261.148
 21
0.808228
  0
LINE
  8
0
 10
261.148
 20
0.808228
 11
261.224
 21
0.407318
  0
LINE
  8
0
 10
261.224
 20
0.407318
 11
261.25
 21
0
  0
LINE
  8
0
 10
261.25
 20
0
 11
261.224
 21
-0.407318
  0
LINE
  8
0
 10
261.224
 20
-0.407318
 11
261.148
 21
-0.808228
  0
LINE
  8
0
 10
261.148
 20
-0.808228
 11
261.022
 21
-1.1964
  0
LINE
  8
0
 10
261.022
 20
-1.1964
 11
260.848
 21
-1.56569
  0
LINE
  8
0
 10
260.848
 20
-1.56569
 11
260.629
 21
-1.91029
  0
LINE
  8
0
 10
260.629
 20
-1.91029
 11
260.369
 21
-2.22478
  0
LINE
  8
0
 10
260.369
 20
-2.22478
 11
260.072
 21
-2.50417
  0
LINE
  8
0
 10
260.072
 20
-2.50417
 11
259.741
 21
-2.74406
  0
LINE
  8
0
 10
259.741
 20
-2.74406
 11
259.384
 21
-2.94067
  0
LINE
  8
0
 10
259.384
 20
-2.94067
 11
259.004
 21
-3.09093
  0
LINE
  8
0
 10
259.004
 20
-3.09093
 11
258.609
 21
-3.19243
  0
LINE
  8
0
 10
258.609
 20
-3.19243
 11
258.204
 21
-3.24358
  0
LINE
  8
0
 10
258.204
 20
-3.24358
 11
257.796
 21
-3.24358
  0
LINE
  8
0
 10
131.296
 20
-10.7436
 11
130.891
 21
-10.6924
  0
LINE
  8
0
 10
130.891
 20
-10.6924
 11
130.496
 21
-10.5909
  0
LINE
  8
0
 10
130.496
 20
-10.5909
 11
130.116
 21
-10.4407
  0
LINE
  8
0
 10
130.116
 20
-10.4407
 11
129.759
 21
-10.2441
  0
LINE
  8
0
 10
129.759
 20
-10.2441
 11
129.428
 21
-10.0042
  0
LINE
  8
0
 10
129.428
 20
-10.0042
 11
129.131
 21
-9.72478
  0
LINE
  8
0
 10
129.131
 20
-9.72478
 11
128.871
 21
-9.41029
  0
LINE
  8
0
 10
128.871
 20
-9.41029
 11
128.652
 21
-9.06569
  0
LINE
  8
0
 10
128.652
 20
-9.06569
 11
128.478
 21
-8.6964
  0
LINE
  8
0
 10
128.478
 20
-8.6964
 11
128.352
 21
-8.30823
  0
LINE
  8
0
 10
128.352
 20
-8.30823
 11
128.276
 21
-7.90732
  0
LINE
  8
0
 10
128.276
 20
-7.90732
 11
128.25
 21
-7.5
  0
LINE
  8
0
 10
128.25
 20
-7.5
 11
128.276
 21
-7.09267
  0
LINE
  8
0
 10
128.276
 20
-7.09267
 11
128.352
 21
-6.69176
  0
LINE
  8
0
 10
128.352
 20
-6.69176
 11
128.478
 21
-6.30359
  0
LINE
  8
0
 10
128.478
 20
-6.30359
 11
128.652
 21
-5.9343
  0
LINE
  8
0
 10
128.652
 20
-5.9343
 11
128.871
 21
-5.58969
  0
LINE
  8
0
 10
128.871
 20
-5.58969
 11
129.131
 21
-5.27521
  0
LINE
  8
0
 10
129.131
 20
-5.27521
 11
129.428
 21
-4.99582
  0
LINE
  8
0
 10
129.428
 20
-4.99582
 11
129.759
 21
-4.75592
  0
LINE
  8
0
 10
129.759
 20
-4.75592
 11
130.116
 21
-4.55931
  0
LINE
  8
0
 10
130.116
 20
-4.55931
 11
130.496
 21
-4.40906
  0
LINE
  8
0
 10
130.496
 20
-4.40906
 11
130.891
 21
-4.30756
  0
LINE
  8
0
 10
130.891
 20
-4.30756
 11
131.296
 21
-4.25641
  0
LINE
  8
0
 10
131.296
 20
-4.25641
 11
131.704
 21
-4.25641
  0
LINE
  8
0
 10
131.704
 20
-4.25641
 11
132.109
 21
-4.30756
  0
LINE
  8
0
 10
132.109
 20
-4.30756
 11
132.504
 21
-4.40906
  0
LINE
  8
0
 10
132.504
 20
-4.40906
 11
132.884
 21
-4.55931
  0
LINE
  8
0
 10
132.884
 20
-4.55931
 11
133.241
 21
-4.75592
  0
LINE
  8
0
 10
133.241
 20
-4.75592
 11
133.572
 21
-4.99582
  0
LINE
  8
0
 10
133.572
 20
-4.99582
 11
133.869
 21
-5.27521
  0
LINE
  8
0
 10
133.869
 20
-5.27521
 11
134.129
 21
-5.58969
  0
LINE
  8
0
 10
134.129
 20
-5.58969
 11
134.348
 21
-5.9343
  0
LINE
  8
0
 10
134.348
 20
-5.9343
 11
134.522
 21
-6.30359
  0
LINE
  8
0
 10
134.522
 20
-6.30359
 11
134.648
 21
-6.69176
  0
LINE
  8
0
 10
134.648
 20
-6.69176
 11
134.724
 21
-7.09267
  0
LINE
  8
0
 10
134.724
 20
-7.09267
 11
134.75
 21
-7.5
  0
LINE
  8
0
 10
134.75
 20
-7.5
 11
134.724
 21
-7.90732
  0
LINE
  8
0
 10
134.724
 20
-7.90732
 11
134.648
 21
-8.30823
  0
LINE
  8
0
 10
134.648
 20
-8.30823
 11
134.522
 21
-8.6964
  0
LINE
  8
0
 10
134.522
 20
-8.6964
 11
134.348
 21
-9.06569
  0
LINE
  8
0
 10
134.348
 20
-9.06569
 11
134.129
 21
-9.41029
  0
LINE
  8
0
 10
134.129
 20
-9.41029
 11
133.869
 21
-9.72478
  0
LINE
  8
0
 10
133.869
 20
-9.72478
 11
133.572
 21
-10.0042
  0
LINE
  8
0
 10
133.572
 20
-10.0042
 11
133.241
 21
-10.2441
  0
LINE
  8
0
 10
133.241
 20
-10.2441
 11
132.884
 21
-10.4407
  0
LINE
  8
0
 10
132.884
 20
-10.4407
 11
132.504
 21
-10.5909
  0
LINE
  8
0
 10
132.504
 20
-10.5909
 11
132.109
 21
-10.6924
  0
LINE
  8
0
 10
132.109
 20
-10.6924
 11
131.704
 21
-10.7436
  0
LINE
  8
0
 10
131.704
 20
-10.7436
 11
131.296
 21
-10.7436
  0
LINE
  8
0
 10
248.296
 20
-10.7436
 11
247.891
 21
-10.6924
  0
LINE
  8
0
 10
247.891
 20
-10.6924
 11
247.496
 21
-10.5909
  0
LINE
  8
0
 10
247.496
 20
-10.5909
 11
247.116
 21
-10.4407
  0
LINE
  8
0
 10
247.116
 20
-10.4407
 11
246.759
 21
-10.2441
  0
LINE
  8
0
 10
246.759
 20
-10.2441
 11
246.428
 21
-10.0042
  0
LINE
  8
0
 10
246.428
 20
-10.0042
 11
246.131
 21
-9.72478
  0
LINE
  8
0
 10
246.131
 20
-9.72478
 11
245.871
 21
-9.41029
  0
LINE
  8
0
 10
245.871
 20
-9.41029
 11
245.652
 21
-9.06569
  0
LINE
  8
0
 10
245.652
 20
-9.06569
 11
245.478
 21
-8.6964
  0
LINE
  8
0
 10
245.478
 20
-8.6964
 11
245.352
 21
-8.30823
  0
LINE
  8
0
 10
245.352
 20
-8.30823
 11
245.276
 21
-7.90732
  0
LINE
  8
0
 10
245.276
 20
-7.90732
 11
245.25
 21
-7.5
  0
LINE
  8
0
 10
245.25
 20
-7.5
 11
245.276
 21
-7.09267
  0
LINE
  8
0
 10
245.276
 20
-7.09267
 11
245.352
 21
-6.69176
  0
LINE
  8
0
 10
245.352
 20
-6.69176
 11
245.478
 21
-6.30359
  0
LINE
  8
0
 10
245.478
 20
-6.30359
 11
245.652
 21
-5.9343
  0
LINE
  8
0
 10
245.652
 20
-5.9343
 11
245.871
 21
-5.58969
  0
LINE
  8
0
 10
245.871
 20
-5.58969
 11
246.131
 21
-5.27521
  0
LINE
  8
0
 10
246.131
 20
-5.27521
 11
246.428
 21
-4.99582
  0
LINE
  8
0
 10
246.428
 20
-4.99582
 11
246.759
 21
-4.75592
  0
LINE
  8
0
 10
246.759
 20
-4.75592
 11
247.116
 21
-4.55931
  0
LINE
  8
0
 10
247.116
 20
-4.55931
 11
247.496
 21
-4.40906
  0
LINE
  8
0
 10
247.496
 20
-4.40906
 11
247.891
 21
-4.30756
  0
LINE
  8
0
 10
247.891
 20
-4.30756
 11
248.296
 21
-4.25641
  0
LINE
  8
0
 10
248.296
 20
-4.25641
 11
248.704
 21
-4.25641
  0
LINE
  8
0
 10
248.704
 20
-4.25641
 11
249.109
 21
-4.30756
  0
LINE
  8
0
 10
249.109
 20
-4.30756
 11
249.504
 21
-4.40906
  0
LINE
  8
0
 10
249.504
 20
-4.40906
 11
249.884
 21
-4.55931
  0
LINE
  8
0
 10
249.884
 20
-4.55931
 11
250.241
 21
-4.75592
  0
LINE
  8
0
 10
250.241
 20
-4.75592
 11
250.572
 21
-4.99582
  0
LINE
  8
0
 10
250.572
 20
-4.99582
 11
250.869
 21
-5.27521
  0
LINE
  8
0
 10
250.869
 20
-5.27521
 11
251.129
 21
-5.58969
  0
LINE
  8
0
 10
251.129
 20
-5.58969
 11
251.348
 21
-5.9343
  0
LINE
  8
0
 10
251.348
 20
-5.9343
 11
251.522
 21
-6.30359
  0
LINE
  8
0
 10
251.522
 20
-6.30359
 11
251.648
 21
-6.69176
  0
LINE
  8
0
 10
251.648
 20
-6.69176
 11
251.724
 21
-7.09267
  0
LINE
  8
0
 10
251.724
 20
-7.09267
 11
251.75
 21
-7.5
  0
LINE
  8
0
 10
251.75
 20
-7.5
 11
251.724
 21
-7.90732
  0
LINE
  8
0
 10
251.724
 20
-7.90732
 11
251.648
 21
-8.30823
  0
LINE
  8
0
 10
251.648
 20
-8.30823
 11
251.522
 21
-8.6964
  0
LINE
  8
0
 10
251.522
 20
-8.6964
 11
251.348
 21
-9.06569
  0
LINE
  8
0
 10
251.348
 20
-9.06569
 11
251.129
 21
-9.41029
  0
LINE
  8
0
 10
251.129
 20
-9.41029
 11
250.869
 21
-9.72478
  0
LINE
  8
0
 10
250.869
 20
-9.72478
 11
250.572
 21
-10.0042
  0
LINE
  8
0
 10
250.572
 20
-10.0042
 11
250.241
 21
-10.2441
  0
LINE
  8
0
 10
250.241
 20
-10.2441
 11
249.884
 21
-10.4407
  0
LINE
  8
0
 10
249.884
 20
-10.4407
 11
249.504
 21
-10.5909
  0
LINE
  8
0
 10
249.504
 20
-10.5909
 11
249.109
 21
-10.6924
  0
LINE
  8
0
 10
249.109
 20
-10.6924
 11
248.704
 21
-10.7436
  0
LINE
  8
0
 10
248.704
 20
-10.7436
 11
248.296
 21
-10.7436
  0
ENDSEC
  0
SECTION
  2
OBJECTS
  0
DICTIONARY
  0
ENDSEC
  0
EOF
