  0
SECTION
  2
BLOCKS
  0
ENDSEC
  0
SECTION
  2
ENTITIES
  0
LINE
  8
0
 10
0
 20
129.904
 11
-75
 21
0
  0
LINE
  8
0
 10
-75
 20
0
 11
75
 21
0
  0
LINE
  8
0
 10
75
 20
0
 11
0
 21
129.904
  0
LINE
  8
0
 10
-0.941849
 20
28.3309
 11
-2.81071
 21
28.567
  0
LINE
  8
0
 10
-2.81071
 20
28.567
 11
-4.63525
 21
29.0354
  0
LINE
  8
0
 10
-4.63525
 20
29.0354
 11
-6.38669
 21
29.7289
  0
LINE
  8
0
 10
-6.38669
 20
29.7289
 11
-8.0374
 21
30.6363
  0
LINE
  8
0
 10
-8.0374
 20
30.6363
 11
-9.56136
 21
31.7436
  0
LINE
  8
0
 10
-9.56136
 20
31.7436
 11
-10.9345
 21
33.0331
  0
LINE
  8
0
 10
-10.9345
 20
33.0331
 11
-12.1353
 21
34.4845
  0
LINE
  8
0
 10
-12.1353
 20
34.4845
 11
-13.1446
 21
36.075
  0
LINE
  8
0
 10
-13.1446
 20
36.075
 11
-13.9466
 21
37.7794
  0
LINE
  8
0
 10
-13.9466
 20
37.7794
 11
-14.5287
 21
39.5709
  0
LINE
  8
0
 10
-14.5287
 20
39.5709
 11
-14.8817
 21
41.4213
  0
LINE
  8
0
 10
-14.8817
 20
41.4213
 11
-15
 21
43.3013
  0
LINE
  8
0
 10
-15
 20
43.3013
 11
-14.8817
 21
45.1813
  0
LINE
  8
0
 10
-14.8817
 20
45.1813
 11
-14.5287
 21
47.0316
  0
LINE
  8
0
 10
-14.5287
 20
47.0316
 11
-13.9466
 21
48.8231
  0
LINE
  8
0
 10
-13.9466
 20
48.8231
 11
-13.1446
 21
50.5276
  0
LINE
  8
0
 10
-13.1446
 20
50.5276
 11
-12.1353
 21
52.118
  0
LINE
  8
0
 10
-12.1353
 20
52.118
 11
-10.9345
 21
53.5695
  0
LINE
  8
0
 10
-10.9345
 20
53.5695
 11
-9.56136
 21
54.859
  0
LINE
  8
0
 10
-9.56136
 20
54.859
 11
-8.0374
 21
55.9662
  0
LINE
  8
0
 10
-8.0374
 20
55.9662
 11
-6.38669
 21
56.8737
  0
LINE
  8
0
 10
-6.38669
 20
56.8737
 11
-4.63525
 21
57.5671
  0
LINE
  8
0
 10
-4.63525
 20
57.5671
 11
-2.81071
 21
58.0356
  0
LINE
  8
0
 10
-2.81071
 20
58.0356
 11
-0.941849
 21
58.2717
  0
LINE
  8
0
 10
-0.941849
 20
58.2717
 11
0.941849
 21
58.2717
  0
LINE
  8
0
 10
0.941849
 20
58.2717
 11
2.81071
 21
58.0356
  0
LINE
  8
0
 10
2.81071
 20
58.0356
 11
4.63525
 21
57.5671
  0
LINE
  8
0
 10
4.63525
 20
57.5671
 11
6.38669
 21
56.8737
  0
LINE
  8
0
 10
6.38669
 20
56.8737
 11
8.0374
 21
55.9662
  0
LINE
  8
0
 10
8.0374
 20
55.9662
 11
9.56136
 21
54.859
  0
LINE
  8
0
 10
9.56136
 20
54.859
 11
10.9345
 21
53.5695
  0
LINE
  8
0
 10
10.9345
 20
53.5695
 11
12.1353
 21
52.118
  0
LINE
  8
0
 10
12.1353
 20
52.118
 11
13.1446
 21
50.5276
  0
LINE
  8
0
 10
13.1446
 20
50.5276
 11
13.9466
 21
48.8231
  0
LINE
  8
0
 10
13.9466
 20
48.8231
 11
14.5287
 21
47.0316
  0
LINE
  8
0
 10
14.5287
 20
47.0316
 11
14.8817
 21
45.1813
  0
LINE
  8
0
 10
14.8817
 20
45.1813
 11
15
 21
43.3013
  0
LINE
  8
0
 10
15
 20
43.3013
 11
14.8817
 21
41.4213
  0
LINE
  8
0
 10
14.8817
 20
41.4213
 11
14.5287
 21
39.5709
  0
LINE
  8
0
 10
14.5287
 20
39.5709
 11
13.9466
 21
37.7794
  0
LINE
  8
0
 10
13.9466
 20
37.7794
 11
13.1446
 21
36.075
  0
LINE
  8
0
 10
13.1446
 20
36.075
 11
12.1353
 21
34.4845
  0
LINE
  8
0
 10
12.1353
 20
34.4845
 11
10.9345
 21
33.0331
  0
LINE
  8
0
 10
10.9345
 20
33.0331
 11
9.56136
 21
31.7436
  0
LINE
  8
0
 10
9.56136
 20
31.7436
 11
8.0374
 21
30.6363
  0
LINE
  8
0
 10
8.0374
 20
30.6363
 11
6.38669
 21
29.7289
  0
LINE
  8
0
 10
6.38669
 20
29.7289
 11
4.63525
 21
29.0354
  0
LINE
  8
0
 10
4.63525
 20
29.0354
 11
2.81071
 21
28.567
  0
LINE
  8
0
 10
2.81071
 20
28.567
 11
0.941849
 21
28.3309
  0
LINE
  8
0
 10
0.941849
 20
28.3309
 11
-0.941849
 21
28.3309
  0
ENDSEC
  0
SECTION
  2
OBJECTS
  0
DICTIONARY
  0
ENDSEC
  0
EOF
