  0
SECTION
  2
BLOCKS
  0
ENDSEC
  0
SECTION
  2
ENTITIES
  0
LINE
  8
0
 10
3.40228
 20
-199.971
 11
5.66998
 21
-199.92
  0
LINE
  8
0
 10
5.66998
 20
-199.92
 11
7.93695
 21
-199.842
  0
LINE
  8
0
 10
7.93695
 20
-199.842
 11
10.2029
 21
-199.74
  0
LINE
  8
0
 10
10.2029
 20
-199.74
 11
12.4675
 21
-199.611
  0
LINE
  8
0
 10
12.4675
 20
-199.611
 11
14.7306
 21
-199.457
  0
LINE
  8
0
 10
14.7306
 20
-199.457
 11
16.9917
 21
-199.277
  0
LINE
  8
0
 10
16.9917
 20
-199.277
 11
19.2507
 21
-199.071
  0
LINE
  8
0
 10
19.2507
 20
-199.071
 11
21.5072
 21
-198.84
  0
LINE
  8
0
 10
21.5072
 20
-198.84
 11
23.7609
 21
-198.584
  0
LINE
  8
0
 10
23.7609
 20
-198.584
 11
26.0115
 21
-198.301
  0
LINE
  8
0
 10
26.0115
 20
-198.301
 11
28.2588
 21
-197.994
  0
LINE
  8
0
 10
28.2588
 20
-197.994
 11
30.5025
 21
-197.66
  0
LINE
  8
0
 10
30.5025
 20
-197.66
 11
32.7423
 21
-197.302
  0
LINE
  8
0
 10
32.7423
 20
-197.302
 11
34.9778
 21
-196.918
  0
LINE
  8
0
 10
34.9778
 20
-196.918
 11
37.2088
 21
-196.508
  0
LINE
  8
0
 10
37.2088
 20
-196.508
 11
39.4351
 21
-196.074
  0
LINE
  8
0
 10
39.4351
 20
-196.074
 11
41.6563
 21
-195.614
  0
LINE
  8
0
 10
41.6563
 20
-195.614
 11
43.8721
 21
-195.129
  0
LINE
  8
0
 10
43.8721
 20
-195.129
 11
46.0823
 21
-194.619
  0
LINE
  8
0
 10
46.0823
 20
-194.619
 11
48.2865
 21
-194.083
  0
LINE
  8
0
 10
48.2865
 20
-194.083
 11
50.4846
 21
-193.523
  0
LINE
  8
0
 10
50.4846
 20
-193.523
 11
52.6761
 21
-192.938
  0
LINE
  8
0
 10
52.6761
 20
-192.938
 11
54.8609
 21
-192.329
  0
LINE
  8
0
 10
54.8609
 20
-192.329
 11
57.0386
 21
-191.694
  0
LINE
  8
0
 10
57.0386
 20
-191.694
 11
59.209
 21
-191.035
  0
LINE
  8
0
 10
59.209
 20
-191.035
 11
61.3718
 21
-190.351
  0
LINE
  8
0
 10
61.3718
 20
-190.351
 11
63.5266
 21
-189.643
  0
LINE
  8
0
 10
63.5266
 20
-189.643
 11
65.6733
 21
-188.91
  0
LINE
  8
0
 10
65.6733
 20
-188.91
 11
67.8116
 21
-188.153
  0
LINE
  8
0
 10
67.8116
 20
-188.153
 11
69.9411
 21
-187.372
  0
LINE
  8
0
 10
69.9411
 20
-187.372
 11
72.0617
 21
-186.567
  0
LINE
  8
0
 10
72.0617
 20
-186.567
 11
74.1729
 21
-185.737
  0
LINE
  8
0
 10
74.1729
 20
-185.737
 11
76.2746
 21
-184.884
  0
LINE
  8
0
 10
76.2746
 20
-184.884
 11
78.3666
 21
-184.007
  0
LINE
  8
0
 10
78.3666
 20
-184.007
 11
80.4484
 21
-183.107
  0
LINE
  8
0
 10
80.4484
 20
-183.107
 11
82.5199
 21
-182.183
  0
LINE
  8
0
 10
82.5199
 20
-182.183
 11
84.5807
 21
-181.235
  0
LINE
  8
0
 10
84.5807
 20
-181.235
 11
86.6307
 21
-180.264
  0
LINE
  8
0
 10
86.6307
 20
-180.264
 11
88.6696
 21
-179.27
  0
LINE
  8
0
 10
88.6696
 20
-179.27
 11
90.697
 21
-178.253
  0
LINE
  8
0
 10
90.697
 20
-178.253
 11
92.7128
 21
-177.213
  0
LINE
  8
0
 10
92.7128
 20
-177.213
 11
94.7166
 21
-176.15
  0
LINE
  8
0
 10
94.7166
 20
-176.15
 11
96.7083
 21
-175.064
  0
LINE
  8
0
 10
96.7083
 20
-175.064
 11
98.6875
 21
-173.956
  0
LINE
  8
0
 10
98.6875
 20
-173.956
 11
100.654
 21
-172.826
  0
LINE
  8
0
 10
100.654
 20
-172.826
 11
102.608
 21
-171.673
  0
LINE
  8
0
 10
102.608
 20
-171.673
 11
104.548
 21
-170.498
  0
LINE
  8
0
 10
104.548
 20
-170.498
 11
106.475
 21
-169.302
  0
LINE
  8
0
 10
106.475
 20
-169.302
 11
108.388
 21
-168.083
  0
LINE
  8
0
 10
108.388
 20
-168.083
 11
110.288
 21
-166.843
  0
LINE
  8
0
 10
110.288
 20
-166.843
 11
112.173
 21
-165.582
  0
LINE
  8
0
 10
112.173
 20
-165.582
 11
114.043
 21
-164.299
  0
LINE
  8
0
 10
114.043
 20
-164.299
 11
115.899
 21
-162.995
  0
LINE
  8
0
 10
115.899
 20
-162.995
 11
117.74
 21
-161.67
  0
LINE
  8
0
 10
117.74
 20
-161.67
 11
119.566
 21
-160.324
  0
LINE
  8
0
 10
119.566
 20
-160.324
 11
121.377
 21
-158.958
  0
LINE
  8
0
 10
121.377
 20
-158.958
 11
123.172
 21
-157.571
  0
LINE
  8
0
 10
123.172
 20
-157.571
 11
124.951
 21
-156.164
  0
LINE
  8
0
 10
124.951
 20
-156.164
 11
126.714
 21
-154.737
  0
LINE
  8
0
 10
126.714
 20
-154.737
 11
128.461
 21
-153.29
  0
LINE
  8
0
 10
128.461
 20
-153.29
 11
130.191
 21
-151.823
  0
LINE
  8
0
 10
130.191
 20
-151.823
 11
131.905
 21
-150.337
  0
LINE
  8
0
 10
131.905
 20
-150.337
 11
133.601
 21
-148.831
  0
LINE
  8
0
 10
133.601
 20
-148.831
 11
135.281
 21
-147.306
  0
LINE
  8
0
 10
135.281
 20
-147.306
 11
136.942
 21
-145.763
  0
LINE
  8
0
 10
136.942
 20
-145.763
 11
138.587
 21
-144.2
  0
LINE
  8
0
 10
138.587
 20
-144.2
 11
140.213
 21
-142.619
  0
LINE
  8
0
 10
140.213
 20
-142.619
 11
141.822
 21
-141.02
  0
LINE
  8
0
 10
141.822
 20
-141.02
 11
143.412
 21
-139.402
  0
LINE
  8
0
 10
143.412
 20
-139.402
 11
144.984
 21
-137.767
  0
LINE
  8
0
 10
144.984
 20
-137.767
 11
146.537
 21
-136.114
  0
LINE
  8
0
 10
146.537
 20
-136.114
 11
148.071
 21
-134.443
  0
LINE
  8
0
 10
148.071
 20
-134.443
 11
149.586
 21
-132.755
  0
LINE
  8
0
 10
149.586
 20
-132.755
 11
151.082
 21
-131.05
  0
LINE
  8
0
 10
151.082
 20
-131.05
 11
152.559
 21
-129.328
  0
LINE
  8
0
 10
152.559
 20
-129.328
 11
154.016
 21
-127.59
  0
LINE
  8
0
 10
154.016
 20
-127.59
 11
155.453
 21
-125.835
  0
LINE
  8
0
 10
155.453
 20
-125.835
 11
156.87
 21
-124.064
  0
LINE
  8
0
 10
156.87
 20
-124.064
 11
158.267
 21
-122.276
  0
LINE
  8
0
 10
158.267
 20
-122.276
 11
159.644
 21
-120.474
  0
LINE
  8
0
 10
159.644
 20
-120.474
 11
161
 21
-118.655
  0
LINE
  8
0
 10
161
 20
-118.655
 11
162.335
 21
-116.822
  0
LINE
  8
0
 10
162.335
 20
-116.822
 11
163.649
 21
-114.973
  0
LINE
  8
0
 10
163.649
 20
-114.973
 11
164.943
 21
-113.11
  0
LINE
  8
0
 10
164.943
 20
-113.11
 11
166.215
 21
-111.232
  0
LINE
  8
0
 10
166.215
 20
-111.232
 11
167.466
 21
-109.34
  0
LINE
  8
0
 10
167.466
 20
-109.34
 11
168.695
 21
-107.433
  0
LINE
  8
0
 10
168.695
 20
-107.433
 11
169.903
 21
-105.513
  0
LINE
  8
0
 10
169.903
 20
-105.513
 11
171.089
 21
-103.58
  0
LINE
  8
0
 10
171.089
 20
-103.58
 11
172.252
 21
-101.633
  0
LINE
  8
0
 10
172.252
 20
-101.633
 11
173.394
 21
-99.6724
  0
LINE
  8
0
 10
173.394
 20
-99.6724
 11
174.513
 21
-97.6995
  0
LINE
  8
0
 10
174.513
 20
-97.6995
 11
175.61
 21
-95.714
  0
LINE
  8
0
 10
175.61
 20
-95.714
 11
176.684
 21
-93.7162
  0
LINE
  8
0
 10
176.684
 20
-93.7162
 11
177.736
 21
-91.7064
  0
LINE
  8
0
 10
177.736
 20
-91.7064
 11
178.764
 21
-89.6847
  0
LINE
  8
0
 10
178.764
 20
-89.6847
 11
179.77
 21
-87.6516
  0
LINE
  8
0
 10
179.77
 20
-87.6516
 11
180.752
 21
-85.6071
  0
LINE
  8
0
 10
180.752
 20
-85.6071
 11
181.712
 21
-83.5517
  0
LINE
  8
0
 10
181.712
 20
-83.5517
 11
182.648
 21
-81.4854
  0
LINE
  8
0
 10
182.648
 20
-81.4854
 11
183.56
 21
-79.4088
  0
LINE
  8
0
 10
183.56
 20
-79.4088
 11
184.449
 21
-77.3219
  0
LINE
  8
0
 10
184.449
 20
-77.3219
 11
185.314
 21
-75.225
  0
LINE
  8
0
 10
185.314
 20
-75.225
 11
186.155
 21
-73.1185
  0
LINE
  8
0
 10
186.155
 20
-73.1185
 11
186.972
 21
-71.0025
  0
LINE
  8
0
 10
186.972
 20
-71.0025
 11
187.766
 21
-68.8775
  0
LINE
  8
0
 10
187.766
 20
-68.8775
 11
188.535
 21
-66.7435
  0
LINE
  8
0
 10
188.535
 20
-66.7435
 11
189.279
 21
-64.601
  0
LINE
  8
0
 10
189.279
 20
-64.601
 11
190
 21
-62.4502
  0
LINE
  8
0
 10
190
 20
-62.4502
 11
190.696
 21
-60.2914
  0
LINE
  8
0
 10
190.696
 20
-60.2914
 11
191.367
 21
-58.1248
  0
LINE
  8
0
 10
191.367
 20
-58.1248
 11
192.014
 21
-55.9507
  0
LINE
  8
0
 10
192.014
 20
-55.9507
 11
192.637
 21
-53.7694
  0
LINE
  8
0
 10
192.637
 20
-53.7694
 11
193.234
 21
-51.5812
  0
LINE
  8
0
 10
193.234
 20
-51.5812
 11
193.807
 21
-49.3864
  0
LINE
  8
0
 10
193.807
 20
-49.3864
 11
194.354
 21
-47.1852
  0
LINE
  8
0
 10
194.354
 20
-47.1852
 11
194.877
 21
-44.9779
  0
LINE
  8
0
 10
194.877
 20
-44.9779
 11
195.374
 21
-42.7649
  0
LINE
  8
0
 10
195.374
 20
-42.7649
 11
195.847
 21
-40.5463
  0
LINE
  8
0
 10
195.847
 20
-40.5463
 11
196.294
 21
-38.3226
  0
LINE
  8
0
 10
196.294
 20
-38.3226
 11
196.716
 21
-36.0939
  0
LINE
  8
0
 10
196.716
 20
-36.0939
 11
197.113
 21
-33.8606
  0
LINE
  8
0
 10
197.113
 20
-33.8606
 11
197.484
 21
-31.6229
  0
LINE
  8
0
 10
197.484
 20
-31.6229
 11
197.83
 21
-29.3811
  0
LINE
  8
0
 10
197.83
 20
-29.3811
 11
198.151
 21
-27.1356
  0
LINE
  8
0
 10
198.151
 20
-27.1356
 11
198.446
 21
-24.8866
  0
LINE
  8
0
 10
198.446
 20
-24.8866
 11
198.715
 21
-22.6344
  0
LINE
  8
0
 10
198.715
 20
-22.6344
 11
198.959
 21
-20.3792
  0
LINE
  8
0
 10
198.959
 20
-20.3792
 11
199.177
 21
-18.1215
  0
LINE
  8
0
 10
199.177
 20
-18.1215
 11
199.37
 21
-15.8614
  0
LINE
  8
0
 10
199.37
 20
-15.8614
 11
199.537
 21
-13.5993
  0
LINE
  8
0
 10
199.537
 20
-13.5993
 11
199.679
 21
-11.3354
  0
LINE
  8
0
 10
199.679
 20
-11.3354
 11
199.794
 21
-9.07007
  0
LINE
  8
0
 10
199.794
 20
-9.07007
 11
199.884
 21
-6.80357
  0
LINE
  8
0
 10
199.884
 20
-6.80357
 11
199.949
 21
-4.53619
  0
LINE
  8
0
 10
199.949
 20
-4.53619
 11
199.987
 21
-2.26823
  0
LINE
  8
0
 10
199.987
 20
-2.26823
 11
200
 21
0
  0
LINE
  8
0
 10
200
 20
0
 11
199.987
 21
2.26823
  0
LINE
  8
0
 10
199.987
 20
2.26823
 11
199.949
 21
4.53619
  0
LINE
  8
0
 10
199.949
 20
4.53619
 11
199.884
 21
6.80357
  0
LINE
  8
0
 10
199.884
 20
6.80357
 11
199.794
 21
9.07007
  0
LINE
  8
0
 10
199.794
 20
9.07007
 11
199.679
 21
11.3354
  0
LINE
  8
0
 10
199.679
 20
11.3354
 11
199.537
 21
13.5993
  0
LINE
  8
0
 10
199.537
 20
13.5993
 11
199.37
 21
15.8614
  0
LINE
  8
0
 10
199.37
 20
15.8614
 11
199.177
 21
18.1215
  0
LINE
  8
0
 10
199.177
 20
18.1215
 11
198.959
 21
20.3792
  0
LINE
  8
0
 10
198.959
 20
20.3792
 11
198.715
 21
22.6344
  0
LINE
  8
0
 10
198.715
 20
22.6344
 11
198.446
 21
24.8866
  0
LINE
  8
0
 10
198.446
 20
24.8866
 11
198.151
 21
27.1356
  0
LINE
  8
0
 10
198.151
 20
27.1356
 11
197.83
 21
29.3811
  0
LINE
  8
0
 10
197.83
 20
29.3811
 11
197.484
 21
31.6229
  0
LINE
  8
0
 10
197.484
 20
31.6229
 11
197.113
 21
33.8606
  0
LINE
  8
0
 10
197.113
 20
33.8606
 11
196.716
 21
36.0939
  0
LINE
  8
0
 10
196.716
 20
36.0939
 11
196.294
 21
38.3226
  0
LINE
  8
0
 10
196.294
 20
38.3226
 11
195.847
 21
40.5463
  0
LINE
  8
0
 10
195.847
 20
40.5463
 11
195.374
 21
42.7649
  0
LINE
  8
0
 10
195.374
 20
42.7649
 11
194.877
 21
44.9779
  0
LINE
  8
0
 10
194.877
 20
44.9779
 11
194.354
 21
47.1852
  0
LINE
  8
0
 10
194.354
 20
47.1852
 11
193.807
 21
49.3864
  0
LINE
  8
0
 10
193.807
 20
49.3864
 11
193.234
 21
51.5812
  0
LINE
  8
0
 10
193.234
 20
51.5812
 11
192.637
 21
53.7694
  0
LINE
  8
0
 10
192.637
 20
53.7694
 11
192.014
 21
55.9507
  0
LINE
  8
0
 10
192.014
 20
55.9507
 11
191.367
 21
58.1248
  0
LINE
  8
0
 10
191.367
 20
58.1248
 11
190.696
 21
60.2914
  0
LINE
  8
0
 10
190.696
 20
60.2914
 11
190
 21
62.4502
  0
LINE
  8
0
 10
190
 20
62.4502
 11
189.279
 21
64.601
  0
LINE
  8
0
 10
189.279
 20
64.601
 11
188.535
 21
66.7435
  0
LINE
  8
0
 10
188.535
 20
66.7435
 11
187.766
 21
68.8775
  0
LINE
  8
0
 10
187.766
 20
68.8775
 11
186.972
 21
71.0025
  0
LINE
  8
0
 10
186.972
 20
71.0025
 11
186.155
 21
73.1185
  0
LINE
  8
0
 10
186.155
 20
73.1185
 11
185.314
 21
75.225
  0
LINE
  8
0
 10
185.314
 20
75.225
 11
184.449
 21
77.3219
  0
LINE
  8
0
 10
184.449
 20
77.3219
 11
183.56
 21
79.4088
  0
LINE
  8
0
 10
183.56
 20
79.4088
 11
182.648
 21
81.4854
  0
LINE
  8
0
 10
182.648
 20
81.4854
 11
181.712
 21
83.5517
  0
LINE
  8
0
 10
181.712
 20
83.5517
 11
180.752
 21
85.6071
  0
LINE
  8
0
 10
180.752
 20
85.6071
 11
179.77
 21
87.6516
  0
LINE
  8
0
 10
179.77
 20
87.6516
 11
178.764
 21
89.6847
  0
LINE
  8
0
 10
178.764
 20
89.6847
 11
177.736
 21
91.7064
  0
LINE
  8
0
 10
177.736
 20
91.7064
 11
176.684
 21
93.7162
  0
LINE
  8
0
 10
176.684
 20
93.7162
 11
175.61
 21
95.714
  0
LINE
  8
0
 10
175.61
 20
95.714
 11
174.513
 21
97.6995
  0
LINE
  8
0
 10
174.513
 20
97.6995
 11
173.394
 21
99.6724
  0
LINE
  8
0
 10
173.394
 20
99.6724
 11
172.252
 21
101.633
  0
LINE
  8
0
 10
172.252
 20
101.633
 11
171.089
 21
103.58
  0
LINE
  8
0
 10
171.089
 20
103.58
 11
169.903
 21
105.513
  0
LINE
  8
0
 10
169.903
 20
105.513
 11
168.695
 21
107.433
  0
LINE
  8
0
 10
168.695
 20
107.433
 11
167.466
 21
109.34
  0
LINE
  8
0
 10
167.466
 20
109.34
 11
166.215
 21
111.232
  0
LINE
  8
0
 10
166.215
 20
111.232
 11
164.943
 21
113.11
  0
LINE
  8
0
 10
164.943
 20
113.11
 11
163.649
 21
114.973
  0
LINE
  8
0
 10
163.649
 20
114.973
 11
162.335
 21
116.822
  0
LINE
  8
0
 10
162.335
 20
116.822
 11
161
 21
118.655
  0
LINE
  8
0
 10
161
 20
118.655
 11
159.644
 21
120.474
  0
LINE
  8
0
 10
159.644
 20
120.474
 11
158.267
 21
122.276
  0
LINE
  8
0
 10
158.267
 20
122.276
 11
156.87
 21
124.064
  0
LINE
  8
0
 10
156.87
 20
124.064
 11
155.453
 21
125.835
  0
LINE
  8
0
 10
155.453
 20
125.835
 11
154.016
 21
127.59
  0
LINE
  8
0
 10
154.016
 20
127.59
 11
152.559
 21
129.328
  0
LINE
  8
0
 10
152.559
 20
129.328
 11
151.082
 21
131.05
  0
LINE
  8
0
 10
151.082
 20
131.05
 11
149.586
 21
132.755
  0
LINE
  8
0
 10
149.586
 20
132.755
 11
148.071
 21
134.443
  0
LINE
  8
0
 10
148.071
 20
134.443
 11
146.537
 21
136.114
  0
LINE
  8
0
 10
146.537
 20
136.114
 11
144.984
 21
137.767
  0
LINE
  8
0
 10
144.984
 20
137.767
 11
143.412
 21
139.402
  0
LINE
  8
0
 10
143.412
 20
139.402
 11
141.822
 21
141.02
  0
LINE
  8
0
 10
141.822
 20
141.02
 11
140.213
 21
142.619
  0
LINE
  8
0
 10
140.213
 20
142.619
 11
138.587
 21
144.2
  0
LINE
  8
0
 10
138.587
 20
144.2
 11
136.942
 21
145.763
  0
LINE
  8
0
 10
136.942
 20
145.763
 11
135.281
 21
147.306
  0
LINE
  8
0
 10
135.281
 20
147.306
 11
133.601
 21
148.831
  0
LINE
  8
0
 10
133.601
 20
148.831
 11
131.905
 21
150.337
  0
LINE
  8
0
 10
131.905
 20
150.337
 11
130.191
 21
151.823
  0
LINE
  8
0
 10
130.191
 20
151.823
 11
128.461
 21
153.29
  0
LINE
  8
0
 10
128.461
 20
153.29
 11
126.714
 21
154.737
  0
LINE
  8
0
 10
126.714
 20
154.737
 11
124.951
 21
156.164
  0
LINE
  8
0
 10
124.951
 20
156.164
 11
123.172
 21
157.571
  0
LINE
  8
0
 10
123.172
 20
157.571
 11
121.377
 21
158.958
  0
LINE
  8
0
 10
121.377
 20
158.958
 11
119.566
 21
160.324
  0
LINE
  8
0
 10
119.566
 20
160.324
 11
117.74
 21
161.67
  0
LINE
  8
0
 10
117.74
 20
161.67
 11
115.899
 21
162.995
  0
LINE
  8
0
 10
115.899
 20
162.995
 11
114.043
 21
164.299
  0
LINE
  8
0
 10
114.043
 20
164.299
 11
112.173
 21
165.582
  0
LINE
  8
0
 10
112.173
 20
165.582
 11
110.288
 21
166.843
  0
LINE
  8
0
 10
110.288
 20
166.843
 11
108.388
 21
168.083
  0
LINE
  8
0
 10
108.388
 20
168.083
 11
106.475
 21
169.302
  0
LINE
  8
0
 10
106.475
 20
169.302
 11
104.548
 21
170.498
  0
LINE
  8
0
 10
104.548
 20
170.498
 11
102.608
 21
171.673
  0
LINE
  8
0
 10
102.608
 20
171.673
 11
100.654
 21
172.826
  0
LINE
  8
0
 10
100.654
 20
172.826
 11
98.6875
 21
173.956
  0
LINE
  8
0
 10
98.6875
 20
173.956
 11
96.7083
 21
175.064
  0
LINE
  8
0
 10
96.7083
 20
175.064
 11
94.7166
 21
176.15
  0
LINE
  8
0
 10
94.7166
 20
176.15
 11
92.7128
 21
177.213
  0
LINE
  8
0
 10
92.7128
 20
177.213
 11
90.697
 21
178.253
  0
LINE
  8
0
 10
90.697
 20
178.253
 11
88.6696
 21
179.27
  0
LINE
  8
0
 10
88.6696
 20
179.27
 11
86.6307
 21
180.264
  0
LINE
  8
0
 10
86.6307
 20
180.264
 11
84.5807
 21
181.235
  0
LINE
  8
0
 10
84.5807
 20
181.235
 11
82.5199
 21
182.183
  0
LINE
  8
0
 10
82.5199
 20
182.183
 11
80.4484
 21
183.107
  0
LINE
  8
0
 10
80.4484
 20
183.107
 11
78.3666
 21
184.007
  0
LINE
  8
0
 10
78.3666
 20
184.007
 11
76.2746
 21
184.884
  0
LINE
  8
0
 10
76.2746
 20
184.884
 11
74.1729
 21
185.737
  0
LINE
  8
0
 10
74.1729
 20
185.737
 11
72.0617
 21
186.567
  0
LINE
  8
0
 10
72.0617
 20
186.567
 11
69.9411
 21
187.372
  0
LINE
  8
0
 10
69.9411
 20
187.372
 11
67.8116
 21
188.153
  0
LINE
  8
0
 10
67.8116
 20
188.153
 11
65.6733
 21
188.91
  0
LINE
  8
0
 10
65.6733
 20
188.91
 11
63.5266
 21
189.643
  0
LINE
  8
0
 10
63.5266
 20
189.643
 11
61.3718
 21
190.351
  0
LINE
  8
0
 10
61.3718
 20
190.351
 11
59.209
 21
191.035
  0
LINE
  8
0
 10
59.209
 20
191.035
 11
57.0386
 21
191.694
  0
LINE
  8
0
 10
57.0386
 20
191.694
 11
54.8609
 21
192.329
  0
LINE
  8
0
 10
54.8609
 20
192.329
 11
52.6761
 21
192.938
  0
LINE
  8
0
 10
52.6761
 20
192.938
 11
50.4846
 21
193.523
  0
LINE
  8
0
 10
50.4846
 20
193.523
 11
48.2865
 21
194.083
  0
LINE
  8
0
 10
48.2865
 20
194.083
 11
46.0823
 21
194.619
  0
LINE
  8
0
 10
46.0823
 20
194.619
 11
43.8721
 21
195.129
  0
LINE
  8
0
 10
43.8721
 20
195.129
 11
41.6563
 21
195.614
  0
LINE
  8
0
 10
41.6563
 20
195.614
 11
39.4351
 21
196.074
  0
LINE
  8
0
 10
39.4351
 20
196.074
 11
37.2088
 21
196.508
  0
LINE
  8
0
 10
37.2088
 20
196.508
 11
34.9778
 21
196.918
  0
LINE
  8
0
 10
34.9778
 20
196.918
 11
32.7423
 21
197.302
  0
LINE
  8
0
 10
32.7423
 20
197.302
 11
30.5025
 21
197.66
  0
LINE
  8
0
 10
30.5025
 20
197.66
 11
28.2588
 21
197.994
  0
LINE
  8
0
 10
28.2588
 20
197.994
 11
26.0115
 21
198.301
  0
LINE
  8
0
 10
26.0115
 20
198.301
 11
23.7609
 21
198.584
  0
LINE
  8
0
 10
23.7609
 20
198.584
 11
21.5072
 21
198.84
  0
LINE
  8
0
 10
21.5072
 20
198.84
 11
19.2507
 21
199.071
  0
LINE
  8
0
 10
19.2507
 20
199.071
 11
16.9917
 21
199.277
  0
LINE
  8
0
 10
16.9917
 20
199.277
 11
14.7306
 21
199.457
  0
LINE
  8
0
 10
14.7306
 20
199.457
 11
12.4675
 21
199.611
  0
LINE
  8
0
 10
12.4675
 20
199.611
 11
10.2029
 21
199.74
  0
LINE
  8
0
 10
10.2029
 20
199.74
 11
7.93695
 21
199.842
  0
LINE
  8
0
 10
7.93695
 20
199.842
 11
5.66998
 21
199.92
  0
LINE
  8
0
 10
5.66998
 20
199.92
 11
3.40228
 21
199.971
  0
LINE
  8
0
 10
3.40228
 20
199.971
 11
1.13414
 21
199.997
  0
LINE
  8
0
 10
1.13414
 20
199.997
 11
-1.13414
 21
199.997
  0
LINE
  8
0
 10
-1.13414
 20
199.997
 11
-3.40228
 21
199.971
  0
LINE
  8
0
 10
-3.40228
 20
199.971
 11
-5.66998
 21
199.92
  0
LINE
  8
0
 10
-5.66998
 20
199.92
 11
-7.93695
 21
199.842
  0
LINE
  8
0
 10
-7.93695
 20
199.842
 11
-10.2029
 21
199.74
  0
LINE
  8
0
 10
-10.2029
 20
199.74
 11
-12.4675
 21
199.611
  0
LINE
  8
0
 10
-12.4675
 20
199.611
 11
-14.7306
 21
199.457
  0
LINE
  8
0
 10
-14.7306
 20
199.457
 11
-16.9917
 21
199.277
  0
LINE
  8
0
 10
-16.9917
 20
199.277
 11
-19.2507
 21
199.071
  0
LINE
  8
0
 10
-19.2507
 20
199.071
 11
-21.5072
 21
198.84
  0
LINE
  8
0
 10
-21.5072
 20
198.84
 11
-23.7609
 21
198.584
  0
LINE
  8
0
 10
-23.7609
 20
198.584
 11
-26.0115
 21
198.301
  0
LINE
  8
0
 10
-26.0115
 20
198.301
 11
-28.2588
 21
197.994
  0
LINE
  8
0
 10
-28.2588
 20
197.994
 11
-30.5025
 21
197.66
  0
LINE
  8
0
 10
-30.5025
 20
197.66
 11
-32.7423
 21
197.302
  0
LINE
  8
0
 10
-32.7423
 20
197.302
 11
-34.9778
 21
196.918
  0
LINE
  8
0
 10
-34.9778
 20
196.918
 11
-37.2088
 21
196.508
  0
LINE
  8
0
 10
-37.2088
 20
196.508
 11
-39.4351
 21
196.074
  0
LINE
  8
0
 10
-39.4351
 20
196.074
 11
-41.6563
 21
195.614
  0
LINE
  8
0
 10
-41.6563
 20
195.614
 11
-43.8721
 21
195.129
  0
LINE
  8
0
 10
-43.8721
 20
195.129
 11
-46.0823
 21
194.619
  0
LINE
  8
0
 10
-46.0823
 20
194.619
 11
-48.2865
 21
194.083
  0
LINE
  8
0
 10
-48.2865
 20
194.083
 11
-50.4846
 21
193.523
  0
LINE
  8
0
 10
-50.4846
 20
193.523
 11
-52.6761
 21
192.938
  0
LINE
  8
0
 10
-52.6761
 20
192.938
 11
-54.8609
 21
192.329
  0
LINE
  8
0
 10
-54.8609
 20
192.329
 11
-57.0386
 21
191.694
  0
LINE
  8
0
 10
-57.0386
 20
191.694
 11
-59.209
 21
191.035
  0
LINE
  8
0
 10
-59.209
 20
191.035
 11
-61.3718
 21
190.351
  0
LINE
  8
0
 10
-61.3718
 20
190.351
 11
-63.5266
 21
189.643
  0
LINE
  8
0
 10
-63.5266
 20
189.643
 11
-65.6733
 21
188.91
  0
LINE
  8
0
 10
-65.6733
 20
188.91
 11
-67.8116
 21
188.153
  0
LINE
  8
0
 10
-67.8116
 20
188.153
 11
-69.9411
 21
187.372
  0
LINE
  8
0
 10
-69.9411
 20
187.372
 11
-72.0617
 21
186.567
  0
LINE
  8
0
 10
-72.0617
 20
186.567
 11
-74.1729
 21
185.737
  0
LINE
  8
0
 10
-74.1729
 20
185.737
 11
-76.2746
 21
184.884
  0
LINE
  8
0
 10
-76.2746
 20
184.884
 11
-78.3666
 21
184.007
  0
LINE
  8
0
 10
-78.3666
 20
184.007
 11
-80.4484
 21
183.107
  0
LINE
  8
0
 10
-80.4484
 20
183.107
 11
-82.5199
 21
182.183
  0
LINE
  8
0
 10
-82.5199
 20
182.183
 11
-84.5807
 21
181.235
  0
LINE
  8
0
 10
-84.5807
 20
181.235
 11
-86.6307
 21
180.264
  0
LINE
  8
0
 10
-86.6307
 20
180.264
 11
-88.6696
 21
179.27
  0
LINE
  8
0
 10
-88.6696
 20
179.27
 11
-90.697
 21
178.253
  0
LINE
  8
0
 10
-90.697
 20
178.253
 11
-92.7128
 21
177.213
  0
LINE
  8
0
 10
-92.7128
 20
177.213
 11
-94.7166
 21
176.15
  0
LINE
  8
0
 10
-94.7166
 20
176.15
 11
-96.7083
 21
175.064
  0
LINE
  8
0
 10
-96.7083
 20
175.064
 11
-98.6875
 21
173.956
  0
LINE
  8
0
 10
-98.6875
 20
173.956
 11
-100.654
 21
172.826
  0
LINE
  8
0
 10
-100.654
 20
172.826
 11
-102.608
 21
171.673
  0
LINE
  8
0
 10
-102.608
 20
171.673
 11
-104.548
 21
170.498
  0
LINE
  8
0
 10
-104.548
 20
170.498
 11
-106.475
 21
169.302
  0
LINE
  8
0
 10
-106.475
 20
169.302
 11
-108.388
 21
168.083
  0
LINE
  8
0
 10
-108.388
 20
168.083
 11
-110.288
 21
166.843
  0
LINE
  8
0
 10
-110.288
 20
166.843
 11
-112.173
 21
165.582
  0
LINE
  8
0
 10
-112.173
 20
165.582
 11
-114.043
 21
164.299
  0
LINE
  8
0
 10
-114.043
 20
164.299
 11
-115.899
 21
162.995
  0
LINE
  8
0
 10
-115.899
 20
162.995
 11
-117.74
 21
161.67
  0
LINE
  8
0
 10
-117.74
 20
161.67
 11
-119.566
 21
160.324
  0
LINE
  8
0
 10
-119.566
 20
160.324
 11
-121.377
 21
158.958
  0
LINE
  8
0
 10
-121.377
 20
158.958
 11
-123.172
 21
157.571
  0
LINE
  8
0
 10
-123.172
 20
157.571
 11
-124.951
 21
156.164
  0
LINE
  8
0
 10
-124.951
 20
156.164
 11
-126.714
 21
154.737
  0
LINE
  8
0
 10
-126.714
 20
154.737
 11
-128.461
 21
153.29
  0
LINE
  8
0
 10
-128.461
 20
153.29
 11
-130.191
 21
151.823
  0
LINE
  8
0
 10
-130.191
 20
151.823
 11
-131.905
 21
150.337
  0
LINE
  8
0
 10
-131.905
 20
150.337
 11
-133.601
 21
148.831
  0
LINE
  8
0
 10
-133.601
 20
148.831
 11
-135.281
 21
147.306
  0
LINE
  8
0
 10
-135.281
 20
147.306
 11
-136.942
 21
145.763
  0
LINE
  8
0
 10
-136.942
 20
145.763
 11
-138.587
 21
144.2
  0
LINE
  8
0
 10
-138.587
 20
144.2
 11
-140.213
 21
142.619
  0
LINE
  8
0
 10
-140.213
 20
142.619
 11
-141.822
 21
141.02
  0
LINE
  8
0
 10
-141.822
 20
141.02
 11
-143.412
 21
139.402
  0
LINE
  8
0
 10
-143.412
 20
139.402
 11
-144.984
 21
137.767
  0
LINE
  8
0
 10
-144.984
 20
137.767
 11
-146.537
 21
136.114
  0
LINE
  8
0
 10
-146.537
 20
136.114
 11
-148.071
 21
134.443
  0
LINE
  8
0
 10
-148.071
 20
134.443
 11
-149.586
 21
132.755
  0
LINE
  8
0
 10
-149.586
 20
132.755
 11
-151.082
 21
131.05
  0
LINE
  8
0
 10
-151.082
 20
131.05
 11
-152.559
 21
129.328
  0
LINE
  8
0
 10
-152.559
 20
129.328
 11
-154.016
 21
127.59
  0
LINE
  8
0
 10
-154.016
 20
127.59
 11
-155.453
 21
125.835
  0
LINE
  8
0
 10
-155.453
 20
125.835
 11
-156.87
 21
124.064
  0
LINE
  8
0
 10
-156.87
 20
124.064
 11
-158.267
 21
122.276
  0
LINE
  8
0
 10
-158.267
 20
122.276
 11
-159.644
 21
120.474
  0
LINE
  8
0
 10
-159.644
 20
120.474
 11
-161
 21
118.655
  0
LINE
  8
0
 10
-161
 20
118.655
 11
-162.335
 21
116.822
  0
LINE
  8
0
 10
-162.335
 20
116.822
 11
-163.649
 21
114.973
  0
LINE
  8
0
 10
-163.649
 20
114.973
 11
-164.943
 21
113.11
  0
LINE
  8
0
 10
-164.943
 20
113.11
 11
-166.215
 21
111.232
  0
LINE
  8
0
 10
-166.215
 20
111.232
 11
-167.466
 21
109.34
  0
LINE
  8
0
 10
-167.466
 20
109.34
 11
-168.695
 21
107.433
  0
LINE
  8
0
 10
-168.695
 20
107.433
 11
-169.903
 21
105.513
  0
LINE
  8
0
 10
-169.903
 20
105.513
 11
-171.089
 21
103.58
  0
LINE
  8
0
 10
-171.089
 20
103.58
 11
-172.252
 21
101.633
  0
LINE
  8
0
 10
-172.252
 20
101.633
 11
-173.394
 21
99.6724
  0
LINE
  8
0
 10
-173.394
 20
99.6724
 11
-174.513
 21
97.6995
  0
LINE
  8
0
 10
-174.513
 20
97.6995
 11
-175.61
 21
95.714
  0
LINE
  8
0
 10
-175.61
 20
95.714
 11
-176.684
 21
93.7162
  0
LINE
  8
0
 10
-176.684
 20
93.7162
 11
-177.736
 21
91.7064
  0
LINE
  8
0
 10
-177.736
 20
91.7064
 11
-178.764
 21
89.6847
  0
LINE
  8
0
 10
-178.764
 20
89.6847
 11
-179.77
 21
87.6516
  0
LINE
  8
0
 10
-179.77
 20
87.6516
 11
-180.752
 21
85.6071
  0
LINE
  8
0
 10
-180.752
 20
85.6071
 11
-181.712
 21
83.5517
  0
LINE
  8
0
 10
-181.712
 20
83.5517
 11
-182.648
 21
81.4854
  0
LINE
  8
0
 10
-182.648
 20
81.4854
 11
-183.56
 21
79.4088
  0
LINE
  8
0
 10
-183.56
 20
79.4088
 11
-184.449
 21
77.3219
  0
LINE
  8
0
 10
-184.449
 20
77.3219
 11
-185.314
 21
75.225
  0
LINE
  8
0
 10
-185.314
 20
75.225
 11
-186.155
 21
73.1185
  0
LINE
  8
0
 10
-186.155
 20
73.1185
 11
-186.972
 21
71.0025
  0
LINE
  8
0
 10
-186.972
 20
71.0025
 11
-187.766
 21
68.8775
  0
LINE
  8
0
 10
-187.766
 20
68.8775
 11
-188.535
 21
66.7435
  0
LINE
  8
0
 10
-188.535
 20
66.7435
 11
-189.279
 21
64.601
  0
LINE
  8
0
 10
-189.279
 20
64.601
 11
-190
 21
62.4502
  0
LINE
  8
0
 10
-190
 20
62.4502
 11
-190.696
 21
60.2914
  0
LINE
  8
0
 10
-190.696
 20
60.2914
 11
-191.367
 21
58.1248
  0
LINE
  8
0
 10
-191.367
 20
58.1248
 11
-192.014
 21
55.9507
  0
LINE
  8
0
 10
-192.014
 20
55.9507
 11
-192.637
 21
53.7694
  0
LINE
  8
0
 10
-192.637
 20
53.7694
 11
-193.234
 21
51.5812
  0
LINE
  8
0
 10
-193.234
 20
51.5812
 11
-193.807
 21
49.3864
  0
LINE
  8
0
 10
-193.807
 20
49.3864
 11
-194.354
 21
47.1852
  0
LINE
  8
0
 10
-194.354
 20
47.1852
 11
-194.877
 21
44.9779
  0
LINE
  8
0
 10
-194.877
 20
44.9779
 11
-195.374
 21
42.7649
  0
LINE
  8
0
 10
-195.374
 20
42.7649
 11
-195.847
 21
40.5463
  0
LINE
  8
0
 10
-195.847
 20
40.5463
 11
-196.294
 21
38.3226
  0
LINE
  8
0
 10
-196.294
 20
38.3226
 11
-196.716
 21
36.0939
  0
LINE
  8
0
 10
-196.716
 20
36.0939
 11
-197.113
 21
33.8606
  0
LINE
  8
0
 10
-197.113
 20
33.8606
 11
-197.484
 21
31.6229
  0
LINE
  8
0
 10
-197.484
 20
31.6229
 11
-197.83
 21
29.3811
  0
LINE
  8
0
 10
-197.83
 20
29.3811
 11
-198.151
 21
27.1356
  0
LINE
  8
0
 10
-198.151
 20
27.1356
 11
-198.446
 21
24.8866
  0
LINE
  8
0
 10
-198.446
 20
24.8866
 11
-198.715
 21
22.6344
  0
LINE
  8
0
 10
-198.715
 20
22.6344
 11
-198.959
 21
20.3792
  0
LINE
  8
0
 10
-198.959
 20
20.3792
 11
-199.177
 21
18.1215
  0
LINE
  8
0
 10
-199.177
 20
18.1215
 11
-199.37
 21
15.8614
  0
LINE
  8
0
 10
-199.37
 20
15.8614
 11
-199.537
 21
13.5993
  0
LINE
  8
0
 10
-199.537
 20
13.5993
 11
-199.679
 21
11.3354
  0
LINE
  8
0
 10
-199.679
 20
11.3354
 11
-199.794
 21
9.07007
  0
LINE
  8
0
 10
-199.794
 20
9.07007
 11
-199.884
 21
6.80357
  0
LINE
  8
0
 10
-199.884
 20
6.80357
 11
-199.949
 21
4.53619
  0
LINE
  8
0
 10
-199.949
 20
4.53619
 11
-199.987
 21
2.26823
  0
LINE
  8
0
 10
-199.987
 20
2.26823
 11
-200
 21
0
  0
LINE
  8
0
 10
-200
 20
0
 11
-199.987
 21
-2.26823
  0
LINE
  8
0
 10
-199.987
 20
-2.26823
 11
-199.949
 21
-4.53619
  0
LINE
  8
0
 10
-199.949
 20
-4.53619
 11
-199.884
 21
-6.80357
  0
LINE
  8
0
 10
-199.884
 20
-6.80357
 11
-199.794
 21
-9.07007
  0
LINE
  8
0
 10
-199.794
 20
-9.07007
 11
-199.679
 21
-11.3354
  0
LINE
  8
0
 10
-199.679
 20
-11.3354
 11
-199.537
 21
-13.5993
  0
LINE
  8
0
 10
-199.537
 20
-13.5993
 11
-199.37
 21
-15.8614
  0
LINE
  8
0
 10
-199.37
 20
-15.8614
 11
-199.177
 21
-18.1215
  0
LINE
  8
0
 10
-199.177
 20
-18.1215
 11
-198.959
 21
-20.3792
  0
LINE
  8
0
 10
-198.959
 20
-20.3792
 11
-198.715
 21
-22.6344
  0
LINE
  8
0
 10
-198.715
 20
-22.6344
 11
-198.446
 21
-24.8866
  0
LINE
  8
0
 10
-198.446
 20
-24.8866
 11
-198.151
 21
-27.1356
  0
LINE
  8
0
 10
-198.151
 20
-27.1356
 11
-197.83
 21
-29.3811
  0
LINE
  8
0
 10
-197.83
 20
-29.3811
 11
-197.484
 21
-31.6229
  0
LINE
  8
0
 10
-197.484
 20
-31.6229
 11
-197.113
 21
-33.8606
  0
LINE
  8
0
 10
-197.113
 20
-33.8606
 11
-196.716
 21
-36.0939
  0
LINE
  8
0
 10
-196.716
 20
-36.0939
 11
-196.294
 21
-38.3226
  0
LINE
  8
0
 10
-196.294
 20
-38.3226
 11
-195.847
 21
-40.5463
  0
LINE
  8
0
 10
-195.847
 20
-40.5463
 11
-195.374
 21
-42.7649
  0
LINE
  8
0
 10
-195.374
 20
-42.7649
 11
-194.877
 21
-44.9779
  0
LINE
  8
0
 10
-194.877
 20
-44.9779
 11
-194.354
 21
-47.1852
  0
LINE
  8
0
 10
-194.354
 20
-47.1852
 11
-193.807
 21
-49.3864
  0
LINE
  8
0
 10
-193.807
 20
-49.3864
 11
-193.234
 21
-51.5812
  0
LINE
  8
0
 10
-193.234
 20
-51.5812
 11
-192.637
 21
-53.7694
  0
LINE
  8
0
 10
-192.637
 20
-53.7694
 11
-192.014
 21
-55.9507
  0
LINE
  8
0
 10
-192.014
 20
-55.9507
 11
-191.367
 21
-58.1248
  0
LINE
  8
0
 10
-191.367
 20
-58.1248
 11
-190.696
 21
-60.2914
  0
LINE
  8
0
 10
-190.696
 20
-60.2914
 11
-190
 21
-62.4502
  0
LINE
  8
0
 10
-190
 20
-62.4502
 11
-189.279
 21
-64.601
  0
LINE
  8
0
 10
-189.279
 20
-64.601
 11
-188.535
 21
-66.7435
  0
LINE
  8
0
 10
-188.535
 20
-66.7435
 11
-187.766
 21
-68.8775
  0
LINE
  8
0
 10
-187.766
 20
-68.8775
 11
-186.972
 21
-71.0025
  0
LINE
  8
0
 10
-186.972
 20
-71.0025
 11
-186.155
 21
-73.1185
  0
LINE
  8
0
 10
-186.155
 20
-73.1185
 11
-185.314
 21
-75.225
  0
LINE
  8
0
 10
-185.314
 20
-75.225
 11
-184.449
 21
-77.3219
  0
LINE
  8
0
 10
-184.449
 20
-77.3219
 11
-183.56
 21
-79.4088
  0
LINE
  8
0
 10
-183.56
 20
-79.4088
 11
-182.648
 21
-81.4854
  0
LINE
  8
0
 10
-182.648
 20
-81.4854
 11
-181.712
 21
-83.5517
  0
LINE
  8
0
 10
-181.712
 20
-83.5517
 11
-180.752
 21
-85.6071
  0
LINE
  8
0
 10
-180.752
 20
-85.6071
 11
-179.77
 21
-87.6516
  0
LINE
  8
0
 10
-179.77
 20
-87.6516
 11
-178.764
 21
-89.6847
  0
LINE
  8
0
 10
-178.764
 20
-89.6847
 11
-177.736
 21
-91.7064
  0
LINE
  8
0
 10
-177.736
 20
-91.7064
 11
-176.684
 21
-93.7162
  0
LINE
  8
0
 10
-176.684
 20
-93.7162
 11
-175.61
 21
-95.714
  0
LINE
  8
0
 10
-175.61
 20
-95.714
 11
-174.513
 21
-97.6995
  0
LINE
  8
0
 10
-174.513
 20
-97.6995
 11
-173.394
 21
-99.6724
  0
LINE
  8
0
 10
-173.394
 20
-99.6724
 11
-172.252
 21
-101.633
  0
LINE
  8
0
 10
-172.252
 20
-101.633
 11
-171.089
 21
-103.58
  0
LINE
  8
0
 10
-171.089
 20
-103.58
 11
-169.903
 21
-105.513
  0
LINE
  8
0
 10
-169.903
 20
-105.513
 11
-168.695
 21
-107.433
  0
LINE
  8
0
 10
-168.695
 20
-107.433
 11
-167.466
 21
-109.34
  0
LINE
  8
0
 10
-167.466
 20
-109.34
 11
-166.215
 21
-111.232
  0
LINE
  8
0
 10
-166.215
 20
-111.232
 11
-164.943
 21
-113.11
  0
LINE
  8
0
 10
-164.943
 20
-113.11
 11
-163.649
 21
-114.973
  0
LINE
  8
0
 10
-163.649
 20
-114.973
 11
-162.335
 21
-116.822
  0
LINE
  8
0
 10
-162.335
 20
-116.822
 11
-161
 21
-118.655
  0
LINE
  8
0
 10
-161
 20
-118.655
 11
-159.644
 21
-120.474
  0
LINE
  8
0
 10
-159.644
 20
-120.474
 11
-158.267
 21
-122.276
  0
LINE
  8
0
 10
-158.267
 20
-122.276
 11
-156.87
 21
-124.064
  0
LINE
  8
0
 10
-156.87
 20
-124.064
 11
-155.453
 21
-125.835
  0
LINE
  8
0
 10
-155.453
 20
-125.835
 11
-154.016
 21
-127.59
  0
LINE
  8
0
 10
-154.016
 20
-127.59
 11
-152.559
 21
-129.328
  0
LINE
  8
0
 10
-152.559
 20
-129.328
 11
-151.082
 21
-131.05
  0
LINE
  8
0
 10
-151.082
 20
-131.05
 11
-149.586
 21
-132.755
  0
LINE
  8
0
 10
-149.586
 20
-132.755
 11
-148.071
 21
-134.443
  0
LINE
  8
0
 10
-148.071
 20
-134.443
 11
-146.537
 21
-136.114
  0
LINE
  8
0
 10
-146.537
 20
-136.114
 11
-144.984
 21
-137.767
  0
LINE
  8
0
 10
-144.984
 20
-137.767
 11
-143.412
 21
-139.402
  0
LINE
  8
0
 10
-143.412
 20
-139.402
 11
-141.822
 21
-141.02
  0
LINE
  8
0
 10
-141.822
 20
-141.02
 11
-140.213
 21
-142.619
  0
LINE
  8
0
 10
-140.213
 20
-142.619
 11
-138.587
 21
-144.2
  0
LINE
  8
0
 10
-138.587
 20
-144.2
 11
-136.942
 21
-145.763
  0
LINE
  8
0
 10
-136.942
 20
-145.763
 11
-135.281
 21
-147.306
  0
LINE
  8
0
 10
-135.281
 20
-147.306
 11
-133.601
 21
-148.831
  0
LINE
  8
0
 10
-133.601
 20
-148.831
 11
-131.905
 21
-150.337
  0
LINE
  8
0
 10
-131.905
 20
-150.337
 11
-130.191
 21
-151.823
  0
LINE
  8
0
 10
-130.191
 20
-151.823
 11
-128.461
 21
-153.29
  0
LINE
  8
0
 10
-128.461
 20
-153.29
 11
-126.714
 21
-154.737
  0
LINE
  8
0
 10
-126.714
 20
-154.737
 11
-124.951
 21
-156.164
  0
LINE
  8
0
 10
-124.951
 20
-156.164
 11
-123.172
 21
-157.571
  0
LINE
  8
0
 10
-123.172
 20
-157.571
 11
-121.377
 21
-158.958
  0
LINE
  8
0
 10
-121.377
 20
-158.958
 11
-119.566
 21
-160.324
  0
LINE
  8
0
 10
-119.566
 20
-160.324
 11
-117.74
 21
-161.67
  0
LINE
  8
0
 10
-117.74
 20
-161.67
 11
-115.899
 21
-162.995
  0
LINE
  8
0
 10
-115.899
 20
-162.995
 11
-114.043
 21
-164.299
  0
LINE
  8
0
 10
-114.043
 20
-164.299
 11
-112.173
 21
-165.582
  0
LINE
  8
0
 10
-112.173
 20
-165.582
 11
-110.288
 21
-166.843
  0
LINE
  8
0
 10
-110.288
 20
-166.843
 11
-108.388
 21
-168.083
  0
LINE
  8
0
 10
-108.388
 20
-168.083
 11
-106.475
 21
-169.302
  0
LINE
  8
0
 10
-106.475
 20
-169.302
 11
-104.548
 21
-170.498
  0
LINE
  8
0
 10
-104.548
 20
-170.498
 11
-102.608
 21
-171.673
  0
LINE
  8
0
 10
-102.608
 20
-171.673
 11
-100.654
 21
-172.826
  0
LINE
  8
0
 10
-100.654
 20
-172.826
 11
-98.6875
 21
-173.956
  0
LINE
  8
0
 10
-98.6875
 20
-173.956
 11
-96.7083
 21
-175.064
  0
LINE
  8
0
 10
-96.7083
 20
-175.064
 11
-94.7166
 21
-176.15
  0
LINE
  8
0
 10
-94.7166
 20
-176.15
 11
-92.7128
 21
-177.213
  0
LINE
  8
0
 10
-92.7128
 20
-177.213
 11
-90.697
 21
-178.253
  0
LINE
  8
0
 10
-90.697
 20
-178.253
 11
-88.6696
 21
-179.27
  0
LINE
  8
0
 10
-88.6696
 20
-179.27
 11
-86.6307
 21
-180.264
  0
LINE
  8
0
 10
-86.6307
 20
-180.264
 11
-84.5807
 21
-181.235
  0
LINE
  8
0
 10
-84.5807
 20
-181.235
 11
-82.5199
 21
-182.183
  0
LINE
  8
0
 10
-82.5199
 20
-182.183
 11
-80.4484
 21
-183.107
  0
LINE
  8
0
 10
-80.4484
 20
-183.107
 11
-78.3666
 21
-184.007
  0
LINE
  8
0
 10
-78.3666
 20
-184.007
 11
-76.2746
 21
-184.884
  0
LINE
  8
0
 10
-76.2746
 20
-184.884
 11
-74.1729
 21
-185.737
  0
LINE
  8
0
 10
-74.1729
 20
-185.737
 11
-72.0617
 21
-186.567
  0
LINE
  8
0
 10
-72.0617
 20
-186.567
 11
-69.9411
 21
-187.372
  0
LINE
  8
0
 10
-69.9411
 20
-187.372
 11
-67.8116
 21
-188.153
  0
LINE
  8
0
 10
-67.8116
 20
-188.153
 11
-65.6733
 21
-188.91
  0
LINE
  8
0
 10
-65.6733
 20
-188.91
 11
-63.5266
 21
-189.643
  0
LINE
  8
0
 10
-63.5266
 20
-189.643
 11
-61.3718
 21
-190.351
  0
LINE
  8
0
 10
-61.3718
 20
-190.351
 11
-59.209
 21
-191.035
  0
LINE
  8
0
 10
-59.209
 20
-191.035
 11
-57.0386
 21
-191.694
  0
LINE
  8
0
 10
-57.0386
 20
-191.694
 11
-54.8609
 21
-192.329
  0
LINE
  8
0
 10
-54.8609
 20
-192.329
 11
-52.6761
 21
-192.938
  0
LINE
  8
0
 10
-52.6761
 20
-192.938
 11
-50.4846
 21
-193.523
  0
LINE
  8
0
 10
-50.4846
 20
-193.523
 11
-48.2865
 21
-194.083
  0
LINE
  8
0
 10
-48.2865
 20
-194.083
 11
-46.0823
 21
-194.619
  0
LINE
  8
0
 10
-46.0823
 20
-194.619
 11
-43.8721
 21
-195.129
  0
LINE
  8
0
 10
-43.8721
 20
-195.129
 11
-41.6563
 21
-195.614
  0
LINE
  8
0
 10
-41.6563
 20
-195.614
 11
-39.4351
 21
-196.074
  0
LINE
  8
0
 10
-39.4351
 20
-196.074
 11
-37.2088
 21
-196.508
  0
LINE
  8
0
 10
-37.2088
 20
-196.508
 11
-34.9778
 21
-196.918
  0
LINE
  8
0
 10
-34.9778
 20
-196.918
 11
-32.7423
 21
-197.302
  0
LINE
  8
0
 10
-32.7423
 20
-197.302
 11
-30.5025
 21
-197.66
  0
LINE
  8
0
 10
-30.5025
 20
-197.66
 11
-28.2588
 21
-197.994
  0
LINE
  8
0
 10
-28.2588
 20
-197.994
 11
-26.0115
 21
-198.301
  0
LINE
  8
0
 10
-26.0115
 20
-198.301
 11
-23.7609
 21
-198.584
  0
LINE
  8
0
 10
-23.7609
 20
-198.584
 11
-21.5072
 21
-198.84
  0
LINE
  8
0
 10
-21.5072
 20
-198.84
 11
-19.2507
 21
-199.071
  0
LINE
  8
0
 10
-19.2507
 20
-199.071
 11
-16.9917
 21
-199.277
  0
LINE
  8
0
 10
-16.9917
 20
-199.277
 11
-14.7306
 21
-199.457
  0
LINE
  8
0
 10
-14.7306
 20
-199.457
 11
-12.4675
 21
-199.611
  0
LINE
  8
0
 10
-12.4675
 20
-199.611
 11
-10.2029
 21
-199.74
  0
LINE
  8
0
 10
-10.2029
 20
-199.74
 11
-7.93695
 21
-199.842
  0
LINE
  8
0
 10
-7.93695
 20
-199.842
 11
-5.66998
 21
-199.92
  0
LINE
  8
0
 10
-5.66998
 20
-199.92
 11
-3.40228
 21
-199.971
  0
LINE
  8
0
 10
-3.40228
 20
-199.971
 11
-1.13414
 21
-199.997
  0
LINE
  8
0
 10
-1.13414
 20
-199.997
 11
1.13414
 21
-199.997
  0
LINE
  8
0
 10
1.13414
 20
-199.997
 11
3.40228
 21
-199.971
  0
LINE
  8
0
 10
-85
 20
-6.5
 11
-85
 21
6.5
  0
LINE
  8
0
 10
-85
 20
6.5
 11
85
 21
6.5
  0
LINE
  8
0
 10
85
 20
6.5
 11
85
 21
-6.5
  0
LINE
  8
0
 10
85
 20
-6.5
 11
-85
 21
-6.5
  0
ENDSEC
  0
SECTION
  2
OBJECTS
  0
DICTIONARY
  0
ENDSEC
  0
EOF
