  0
SECTION
  2
BLOCKS
  0
ENDSEC
  0
SECTION
  2
ENTITIES
  0
LINE
  8
0
 10
-75
 20
75
 11
-75
 21
-75
  0
LINE
  8
0
 10
-75
 20
-75
 11
75
 21
-75
  0
LINE
  8
0
 10
75
 20
-75
 11
75
 21
75
  0
LINE
  8
0
 10
75
 20
75
 11
-75
 21
75
  0
LINE
  8
0
 10
43.0421
 20
30.1283
 11
41.1177
 21
30.5111
  0
LINE
  8
0
 10
41.1177
 20
30.5111
 11
39.2597
 21
31.1418
  0
LINE
  8
0
 10
39.2597
 20
31.1418
 11
37.5
 21
32.0096
  0
LINE
  8
0
 10
37.5
 20
32.0096
 11
35.8686
 21
33.0997
  0
LINE
  8
0
 10
35.8686
 20
33.0997
 11
34.3934
 21
34.3934
  0
LINE
  8
0
 10
34.3934
 20
34.3934
 11
33.0997
 21
35.8686
  0
LINE
  8
0
 10
33.0997
 20
35.8686
 11
32.0096
 21
37.5
  0
LINE
  8
0
 10
32.0096
 20
37.5
 11
31.1418
 21
39.2597
  0
LINE
  8
0
 10
31.1418
 20
39.2597
 11
30.5111
 21
41.1177
  0
LINE
  8
0
 10
30.5111
 20
41.1177
 11
30.1283
 21
43.0421
  0
LINE
  8
0
 10
30.1283
 20
43.0421
 11
30
 21
45
  0
LINE
  8
0
 10
30
 20
45
 11
30.1283
 21
46.9579
  0
LINE
  8
0
 10
30.1283
 20
46.9579
 11
30.5111
 21
48.8823
  0
LINE
  8
0
 10
30.5111
 20
48.8823
 11
31.1418
 21
50.7402
  0
LINE
  8
0
 10
31.1418
 20
50.7402
 11
32.0096
 21
52.5
  0
LINE
  8
0
 10
32.0096
 20
52.5
 11
33.0997
 21
54.1314
  0
LINE
  8
0
 10
33.0997
 20
54.1314
 11
34.3934
 21
55.6066
  0
LINE
  8
0
 10
34.3934
 20
55.6066
 11
35.8686
 21
56.9003
  0
LINE
  8
0
 10
35.8686
 20
56.9003
 11
37.5
 21
57.9904
  0
LINE
  8
0
 10
37.5
 20
57.9904
 11
39.2597
 21
58.8582
  0
LINE
  8
0
 10
39.2597
 20
58.8582
 11
41.1177
 21
59.4889
  0
LINE
  8
0
 10
41.1177
 20
59.4889
 11
43.0421
 21
59.8717
  0
LINE
  8
0
 10
43.0421
 20
59.8717
 11
45
 21
60
  0
LINE
  8
0
 10
45
 20
60
 11
46.9579
 21
59.8717
  0
LINE
  8
0
 10
46.9579
 20
59.8717
 11
48.8823
 21
59.4889
  0
LINE
  8
0
 10
48.8823
 20
59.4889
 11
50.7402
 21
58.8582
  0
LINE
  8
0
 10
50.7402
 20
58.8582
 11
52.5
 21
57.9904
  0
LINE
  8
0
 10
52.5
 20
57.9904
 11
54.1314
 21
56.9003
  0
LINE
  8
0
 10
54.1314
 20
56.9003
 11
55.6066
 21
55.6066
  0
LINE
  8
0
 10
55.6066
 20
55.6066
 11
56.9003
 21
54.1314
  0
LINE
  8
0
 10
56.9003
 20
54.1314
 11
57.9904
 21
52.5
  0
LINE
  8
0
 10
57.9904
 20
52.5
 11
58.8582
 21
50.7402
  0
LINE
  8
0
 10
58.8582
 20
50.7402
 11
59.4889
 21
48.8823
  0
LINE
  8
0
 10
59.4889
 20
48.8823
 11
59.8717
 21
46.9579
  0
LINE
  8
0
 10
59.8717
 20
46.9579
 11
60
 21
45
  0
LINE
  8
0
 10
60
 20
45
 11
59.8717
 21
43.0421
  0
LINE
  8
0
 10
59.8717
 20
43.0421
 11
59.4889
 21
41.1177
  0
LINE
  8
0
 10
59.4889
 20
41.1177
 11
58.8582
 21
39.2597
  0
LINE
  8
0
 10
58.8582
 20
39.2597
 11
57.9904
 21
37.5
  0
LINE
  8
0
 10
57.9904
 20
37.5
 11
56.9003
 21
35.8686
  0
LINE
  8
0
 10
56.9003
 20
35.8686
 11
55.6066
 21
34.3934
  0
LINE
  8
0
 10
55.6066
 20
34.3934
 11
54.1314
 21
33.0997
  0
LINE
  8
0
 10
54.1314
 20
33.0997
 11
52.5
 21
32.0096
  0
LINE
  8
0
 10
52.5
 20
32.0096
 11
50.7402
 21
31.1418
  0
LINE
  8
0
 10
50.7402
 20
31.1418
 11
48.8823
 21
30.5111
  0
LINE
  8
0
 10
48.8823
 20
30.5111
 11
46.9579
 21
30.1283
  0
LINE
  8
0
 10
46.9579
 20
30.1283
 11
45
 21
30
  0
LINE
  8
0
 10
45
 20
30
 11
43.0421
 21
30.1283
  0
LINE
  8
0
 10
-46.9579
 20
30.1283
 11
-48.8823
 21
30.5111
  0
LINE
  8
0
 10
-48.8823
 20
30.5111
 11
-50.7402
 21
31.1418
  0
LINE
  8
0
 10
-50.7402
 20
31.1418
 11
-52.5
 21
32.0096
  0
LINE
  8
0
 10
-52.5
 20
32.0096
 11
-54.1314
 21
33.0997
  0
LINE
  8
0
 10
-54.1314
 20
33.0997
 11
-55.6066
 21
34.3934
  0
LINE
  8
0
 10
-55.6066
 20
34.3934
 11
-56.9003
 21
35.8686
  0
LINE
  8
0
 10
-56.9003
 20
35.8686
 11
-57.9904
 21
37.5
  0
LINE
  8
0
 10
-57.9904
 20
37.5
 11
-58.8582
 21
39.2597
  0
LINE
  8
0
 10
-58.8582
 20
39.2597
 11
-59.4889
 21
41.1177
  0
LINE
  8
0
 10
-59.4889
 20
41.1177
 11
-59.8717
 21
43.0421
  0
LINE
  8
0
 10
-59.8717
 20
43.0421
 11
-60
 21
45
  0
LINE
  8
0
 10
-60
 20
45
 11
-59.8717
 21
46.9579
  0
LINE
  8
0
 10
-59.8717
 20
46.9579
 11
-59.4889
 21
48.8823
  0
LINE
  8
0
 10
-59.4889
 20
48.8823
 11
-58.8582
 21
50.7402
  0
LINE
  8
0
 10
-58.8582
 20
50.7402
 11
-57.9904
 21
52.5
  0
LINE
  8
0
 10
-57.9904
 20
52.5
 11
-56.9003
 21
54.1314
  0
LINE
  8
0
 10
-56.9003
 20
54.1314
 11
-55.6066
 21
55.6066
  0
LINE
  8
0
 10
-55.6066
 20
55.6066
 11
-54.1314
 21
56.9003
  0
LINE
  8
0
 10
-54.1314
 20
56.9003
 11
-52.5
 21
57.9904
  0
LINE
  8
0
 10
-52.5
 20
57.9904
 11
-50.7402
 21
58.8582
  0
LINE
  8
0
 10
-50.7402
 20
58.8582
 11
-48.8823
 21
59.4889
  0
LINE
  8
0
 10
-48.8823
 20
59.4889
 11
-46.9579
 21
59.8717
  0
LINE
  8
0
 10
-46.9579
 20
59.8717
 11
-45
 21
60
  0
LINE
  8
0
 10
-45
 20
60
 11
-43.0421
 21
59.8717
  0
LINE
  8
0
 10
-43.0421
 20
59.8717
 11
-41.1177
 21
59.4889
  0
LINE
  8
0
 10
-41.1177
 20
59.4889
 11
-39.2597
 21
58.8582
  0
LINE
  8
0
 10
-39.2597
 20
58.8582
 11
-37.5
 21
57.9904
  0
LINE
  8
0
 10
-37.5
 20
57.9904
 11
-35.8686
 21
56.9003
  0
LINE
  8
0
 10
-35.8686
 20
56.9003
 11
-34.3934
 21
55.6066
  0
LINE
  8
0
 10
-34.3934
 20
55.6066
 11
-33.0997
 21
54.1314
  0
LINE
  8
0
 10
-33.0997
 20
54.1314
 11
-32.0096
 21
52.5
  0
LINE
  8
0
 10
-32.0096
 20
52.5
 11
-31.1418
 21
50.7402
  0
LINE
  8
0
 10
-31.1418
 20
50.7402
 11
-30.5111
 21
48.8823
  0
LINE
  8
0
 10
-30.5111
 20
48.8823
 11
-30.1283
 21
46.9579
  0
LINE
  8
0
 10
-30.1283
 20
46.9579
 11
-30
 21
45
  0
LINE
  8
0
 10
-30
 20
45
 11
-30.1283
 21
43.0421
  0
LINE
  8
0
 10
-30.1283
 20
43.0421
 11
-30.5111
 21
41.1177
  0
LINE
  8
0
 10
-30.5111
 20
41.1177
 11
-31.1418
 21
39.2597
  0
LINE
  8
0
 10
-31.1418
 20
39.2597
 11
-32.0096
 21
37.5
  0
LINE
  8
0
 10
-32.0096
 20
37.5
 11
-33.0997
 21
35.8686
  0
LINE
  8
0
 10
-33.0997
 20
35.8686
 11
-34.3934
 21
34.3934
  0
LINE
  8
0
 10
-34.3934
 20
34.3934
 11
-35.8686
 21
33.0997
  0
LINE
  8
0
 10
-35.8686
 20
33.0997
 11
-37.5
 21
32.0096
  0
LINE
  8
0
 10
-37.5
 20
32.0096
 11
-39.2597
 21
31.1418
  0
LINE
  8
0
 10
-39.2597
 20
31.1418
 11
-41.1177
 21
30.5111
  0
LINE
  8
0
 10
-41.1177
 20
30.5111
 11
-43.0421
 21
30.1283
  0
LINE
  8
0
 10
-43.0421
 20
30.1283
 11
-45
 21
30
  0
LINE
  8
0
 10
-45
 20
30
 11
-46.9579
 21
30.1283
  0
LINE
  8
0
 10
-46.9579
 20
-59.8716
 11
-48.8823
 21
-59.4889
  0
LINE
  8
0
 10
-48.8823
 20
-59.4889
 11
-50.7402
 21
-58.8582
  0
LINE
  8
0
 10
-50.7402
 20
-58.8582
 11
-52.5
 21
-57.9904
  0
LINE
  8
0
 10
-52.5
 20
-57.9904
 11
-54.1314
 21
-56.9003
  0
LINE
  8
0
 10
-54.1314
 20
-56.9003
 11
-55.6066
 21
-55.6066
  0
LINE
  8
0
 10
-55.6066
 20
-55.6066
 11
-56.9003
 21
-54.1314
  0
LINE
  8
0
 10
-56.9003
 20
-54.1314
 11
-57.9904
 21
-52.5
  0
LINE
  8
0
 10
-57.9904
 20
-52.5
 11
-58.8582
 21
-50.7402
  0
LINE
  8
0
 10
-58.8582
 20
-50.7402
 11
-59.4889
 21
-48.8823
  0
LINE
  8
0
 10
-59.4889
 20
-48.8823
 11
-59.8716
 21
-46.9579
  0
LINE
  8
0
 10
-59.8716
 20
-46.9579
 11
-60
 21
-45
  0
LINE
  8
0
 10
-60
 20
-45
 11
-59.8716
 21
-43.0421
  0
LINE
  8
0
 10
-59.8716
 20
-43.0421
 11
-59.4889
 21
-41.1177
  0
LINE
  8
0
 10
-59.4889
 20
-41.1177
 11
-58.8582
 21
-39.2597
  0
LINE
  8
0
 10
-58.8582
 20
-39.2597
 11
-57.9904
 21
-37.5
  0
LINE
  8
0
 10
-57.9904
 20
-37.5
 11
-56.9003
 21
-35.8686
  0
LINE
  8
0
 10
-56.9003
 20
-35.8686
 11
-55.6066
 21
-34.3934
  0
LINE
  8
0
 10
-55.6066
 20
-34.3934
 11
-54.1314
 21
-33.0997
  0
LINE
  8
0
 10
-54.1314
 20
-33.0997
 11
-52.5
 21
-32.0096
  0
LINE
  8
0
 10
-52.5
 20
-32.0096
 11
-50.7402
 21
-31.1418
  0
LINE
  8
0
 10
-50.7402
 20
-31.1418
 11
-48.8823
 21
-30.5111
  0
LINE
  8
0
 10
-48.8823
 20
-30.5111
 11
-46.9579
 21
-30.1283
  0
LINE
  8
0
 10
-46.9579
 20
-30.1283
 11
-45
 21
-30
  0
LINE
  8
0
 10
-45
 20
-30
 11
-43.0421
 21
-30.1283
  0
LINE
  8
0
 10
-43.0421
 20
-30.1283
 11
-41.1177
 21
-30.5111
  0
LINE
  8
0
 10
-41.1177
 20
-30.5111
 11
-39.2597
 21
-31.1418
  0
LINE
  8
0
 10
-39.2597
 20
-31.1418
 11
-37.5
 21
-32.0096
  0
LINE
  8
0
 10
-37.5
 20
-32.0096
 11
-35.8686
 21
-33.0997
  0
LINE
  8
0
 10
-35.8686
 20
-33.0997
 11
-34.3934
 21
-34.3934
  0
LINE
  8
0
 10
-34.3934
 20
-34.3934
 11
-33.0997
 21
-35.8686
  0
LINE
  8
0
 10
-33.0997
 20
-35.8686
 11
-32.0096
 21
-37.5
  0
LINE
  8
0
 10
-32.0096
 20
-37.5
 11
-31.1418
 21
-39.2597
  0
LINE
  8
0
 10
-31.1418
 20
-39.2597
 11
-30.5111
 21
-41.1177
  0
LINE
  8
0
 10
-30.5111
 20
-41.1177
 11
-30.1283
 21
-43.0421
  0
LINE
  8
0
 10
-30.1283
 20
-43.0421
 11
-30
 21
-45
  0
LINE
  8
0
 10
-30
 20
-45
 11
-30.1283
 21
-46.9579
  0
LINE
  8
0
 10
-30.1283
 20
-46.9579
 11
-30.5111
 21
-48.8823
  0
LINE
  8
0
 10
-30.5111
 20
-48.8823
 11
-31.1418
 21
-50.7402
  0
LINE
  8
0
 10
-31.1418
 20
-50.7402
 11
-32.0096
 21
-52.5
  0
LINE
  8
0
 10
-32.0096
 20
-52.5
 11
-33.0997
 21
-54.1314
  0
LINE
  8
0
 10
-33.0997
 20
-54.1314
 11
-34.3934
 21
-55.6066
  0
LINE
  8
0
 10
-34.3934
 20
-55.6066
 11
-35.8686
 21
-56.9003
  0
LINE
  8
0
 10
-35.8686
 20
-56.9003
 11
-37.5
 21
-57.9904
  0
LINE
  8
0
 10
-37.5
 20
-57.9904
 11
-39.2597
 21
-58.8582
  0
LINE
  8
0
 10
-39.2597
 20
-58.8582
 11
-41.1177
 21
-59.4889
  0
LINE
  8
0
 10
-41.1177
 20
-59.4889
 11
-43.0421
 21
-59.8716
  0
LINE
  8
0
 10
-43.0421
 20
-59.8716
 11
-45
 21
-60
  0
LINE
  8
0
 10
-45
 20
-60
 11
-46.9579
 21
-59.8716
  0
LINE
  8
0
 10
43.0421
 20
-59.8717
 11
41.1177
 21
-59.4889
  0
LINE
  8
0
 10
41.1177
 20
-59.4889
 11
39.2597
 21
-58.8582
  0
LINE
  8
0
 10
39.2597
 20
-58.8582
 11
37.5
 21
-57.9904
  0
LINE
  8
0
 10
37.5
 20
-57.9904
 11
35.8686
 21
-56.9003
  0
LINE
  8
0
 10
35.8686
 20
-56.9003
 11
34.3934
 21
-55.6066
  0
LINE
  8
0
 10
34.3934
 20
-55.6066
 11
33.0997
 21
-54.1314
  0
LINE
  8
0
 10
33.0997
 20
-54.1314
 11
32.0096
 21
-52.5
  0
LINE
  8
0
 10
32.0096
 20
-52.5
 11
31.1418
 21
-50.7402
  0
LINE
  8
0
 10
31.1418
 20
-50.7402
 11
30.5111
 21
-48.8823
  0
LINE
  8
0
 10
30.5111
 20
-48.8823
 11
30.1283
 21
-46.9579
  0
LINE
  8
0
 10
30.1283
 20
-46.9579
 11
30
 21
-45
  0
LINE
  8
0
 10
30
 20
-45
 11
30.1283
 21
-43.0421
  0
LINE
  8
0
 10
30.1283
 20
-43.0421
 11
30.5111
 21
-41.1177
  0
LINE
  8
0
 10
30.5111
 20
-41.1177
 11
31.1418
 21
-39.2597
  0
LINE
  8
0
 10
31.1418
 20
-39.2597
 11
32.0096
 21
-37.5
  0
LINE
  8
0
 10
32.0096
 20
-37.5
 11
33.0997
 21
-35.8686
  0
LINE
  8
0
 10
33.0997
 20
-35.8686
 11
34.3934
 21
-34.3934
  0
LINE
  8
0
 10
34.3934
 20
-34.3934
 11
35.8686
 21
-33.0997
  0
LINE
  8
0
 10
35.8686
 20
-33.0997
 11
37.5
 21
-32.0096
  0
LINE
  8
0
 10
37.5
 20
-32.0096
 11
39.2597
 21
-31.1418
  0
LINE
  8
0
 10
39.2597
 20
-31.1418
 11
41.1177
 21
-30.5111
  0
LINE
  8
0
 10
41.1177
 20
-30.5111
 11
43.0421
 21
-30.1283
  0
LINE
  8
0
 10
43.0421
 20
-30.1283
 11
45
 21
-30
  0
LINE
  8
0
 10
45
 20
-30
 11
46.9579
 21
-30.1283
  0
LINE
  8
0
 10
46.9579
 20
-30.1283
 11
48.8823
 21
-30.5111
  0
LINE
  8
0
 10
48.8823
 20
-30.5111
 11
50.7402
 21
-31.1418
  0
LINE
  8
0
 10
50.7402
 20
-31.1418
 11
52.5
 21
-32.0096
  0
LINE
  8
0
 10
52.5
 20
-32.0096
 11
54.1314
 21
-33.0997
  0
LINE
  8
0
 10
54.1314
 20
-33.0997
 11
55.6066
 21
-34.3934
  0
LINE
  8
0
 10
55.6066
 20
-34.3934
 11
56.9003
 21
-35.8686
  0
LINE
  8
0
 10
56.9003
 20
-35.8686
 11
57.9904
 21
-37.5
  0
LINE
  8
0
 10
57.9904
 20
-37.5
 11
58.8582
 21
-39.2597
  0
LINE
  8
0
 10
58.8582
 20
-39.2597
 11
59.4889
 21
-41.1177
  0
LINE
  8
0
 10
59.4889
 20
-41.1177
 11
59.8717
 21
-43.0421
  0
LINE
  8
0
 10
59.8717
 20
-43.0421
 11
60
 21
-45
  0
LINE
  8
0
 10
60
 20
-45
 11
59.8717
 21
-46.9579
  0
LINE
  8
0
 10
59.8717
 20
-46.9579
 11
59.4889
 21
-48.8823
  0
LINE
  8
0
 10
59.4889
 20
-48.8823
 11
58.8582
 21
-50.7402
  0
LINE
  8
0
 10
58.8582
 20
-50.7402
 11
57.9904
 21
-52.5
  0
LINE
  8
0
 10
57.9904
 20
-52.5
 11
56.9003
 21
-54.1314
  0
LINE
  8
0
 10
56.9003
 20
-54.1314
 11
55.6066
 21
-55.6066
  0
LINE
  8
0
 10
55.6066
 20
-55.6066
 11
54.1314
 21
-56.9003
  0
LINE
  8
0
 10
54.1314
 20
-56.9003
 11
52.5
 21
-57.9904
  0
LINE
  8
0
 10
52.5
 20
-57.9904
 11
50.7402
 21
-58.8582
  0
LINE
  8
0
 10
50.7402
 20
-58.8582
 11
48.8823
 21
-59.4889
  0
LINE
  8
0
 10
48.8823
 20
-59.4889
 11
46.9579
 21
-59.8717
  0
LINE
  8
0
 10
46.9579
 20
-59.8717
 11
45
 21
-60
  0
LINE
  8
0
 10
45
 20
-60
 11
43.0421
 21
-59.8717
  0
ENDSEC
  0
SECTION
  2
OBJECTS
  0
DICTIONARY
  0
ENDSEC
  0
EOF
